<svg version="1.1" viewBox="0.0 0.0 539.5196850393701 768.0" fill="none" stroke="none" stroke-linecap="square" stroke-miterlimit="10" xmlns:xlink="http://www.w3.org/1999/xlink" xmlns="http://www.w3.org/2000/svg"><clipPath id="g45535f87d1_0_508.0"><path d="m0 0l539.5197 0l0 768.0l-539.5197 0l0 -768.0z" clip-rule="nonzero"/></clipPath><g clip-path="url(#g45535f87d1_0_508.0)"><path fill="#ffffff" d="m0 0l539.5197 0l0 768.0l-539.5197 0z" fill-rule="evenodd"/><path fill="#ffe599" d="m32.760185 94.25984l0 0c0 -42.565063 67.58738 -77.07086 150.96063 -77.07086l0 0c83.373245 0 150.96065 34.505802 150.96065 77.07086l0 0c0 42.565063 -67.5874 77.07086 -150.96065 77.07086l0 0c-83.373245 0 -150.96063 -34.5058 -150.96063 -77.07086z" fill-rule="evenodd"/><path stroke="#ffe599" stroke-width="1.0" stroke-linejoin="round" stroke-linecap="butt" d="m32.760185 94.25984l0 0c0 -42.565063 67.58738 -77.07086 150.96063 -77.07086l0 0c83.373245 0 150.96065 34.505802 150.96065 77.07086l0 0c0 42.565063 -67.5874 77.07086 -150.96065 77.07086l0 0c-83.373245 0 -150.96063 -34.5058 -150.96063 -77.07086z" fill-rule="evenodd"/><path fill="#000000" fill-opacity="0.0" d="m192.20616 176.84651c4.649048 3.4468384 6.921036 12.393372 27.894302 20.681c20.973251 8.287613 74.59085 16.134933 97.94528 29.044754c23.3544 12.909805 35.151 40.345093 42.181183 48.414093" fill-rule="evenodd"/><path stroke="#942a2a" stroke-width="1.0" stroke-linejoin="round" stroke-linecap="butt" stroke-dasharray="4.0,3.0" d="m192.20616 176.84651c4.649048 3.4468384 6.921036 12.393372 27.894302 20.681c20.973251 8.287613 74.59085 16.134933 97.94528 29.044754c23.3544 12.909805 35.151 40.345093 42.181183 48.414093" fill-rule="evenodd"/><path fill="#000000" fill-opacity="0.0" d="m-16.879265 18.946308l298.80316 0l0 39.14961l-298.80316 0z" fill-rule="evenodd"/><path fill="#49352a" d="m81.241066 31.76756q-0.09375 1.6875 -0.09375 4.875q0 3.1875 0.09375 4.5l-5.0625 0l0 1.875q5.71875 0 6.84375 -0.09375l0 1.6875q-1.21875 -0.09375 -6.1875 -0.09375q1.5 2.0625 3.28125 3.375q1.78125 1.3125 3.65625 1.96875q-0.65625 0.84375 -1.03125 1.96875q-2.4375 -1.03125 -4.03125 -2.53125q-1.59375 -1.5 -2.53125 -3.0q0 5.25 0.09375 7.3125l-1.875 0q0.09375 -2.15625 0.09375 -7.03125q-0.9375 1.40625 -2.109375 2.671875q-1.171875 1.265625 -3.609375 2.859375q-0.46875 -0.84375 -1.3125 -1.59375q2.53125 -1.3125 3.84375 -2.765625q1.3125 -1.453125 2.25 -3.234375q-4.40625 0 -5.625 0.09375l0 -1.6875q1.125 0.09375 6.5625 0.09375l0 -1.875l-5.0625 0q0.09375 -2.0625 0.09375 -4.78125q0 -2.8125 -0.09375 -4.59375l11.8125 0zm-12.375 15.75q-1.03125 1.21875 -1.78125 2.296875q-0.75 1.078125 -1.59375 2.390625q-0.75 -0.5625 -1.6875 -1.125q0.84375 -0.84375 0.84375 -1.6875l0 -9.0l-0.75 0q-1.21875 0 -2.625 0.09375l0 -1.78125q1.3125 0.09375 2.625 0.09375l2.53125 0q-0.09375 1.875 -0.09375 3.75l0 5.25q0.5625 -0.84375 1.21875 -1.78125q0.5625 0.9375 1.3125 1.5zm-3.84375 -15.75q1.59375 2.25 2.34375 3.5625q-0.84375 0.375 -1.78125 1.125q-1.21875 -2.53125 -2.25 -3.5625q1.03125 -0.65625 1.6875 -1.125zm9.46875 7.78125l0 -2.4375l-3.1875 0l0 2.4375l3.1875 0zm4.875 0l0 -2.4375l-3.1875 0l0 2.4375l3.1875 0zm-4.875 -3.9375l0 -2.34375l-3.1875 0l0 2.34375l3.1875 0zm4.875 0l0 -2.34375l-3.1875 0l0 2.34375l3.1875 0z" fill-rule="nonzero"/><path fill="#49352a" d="m91.31919 34.20506l-0.578125 -1.3125q-0.546875 -1.03125 -0.546875 -1.265625q0 -0.78125 1.0625 -0.78125q0.84375 0 1.546875 1.546875l0.765625 1.8125l5.421875 0l0.9375 -2.53125q0.296875 -0.875 1.171875 -0.875q1.140625 0 1.140625 0.9375q0 0.453125 -0.65625 1.671875l-0.4375 0.796875l5.25 0q1.171875 0 1.171875 0.96875q0 0.953125 -1.171875 0.953125l-19.734375 0q-1.171875 0 -1.171875 -0.953125q0 -0.96875 1.171875 -0.96875l4.65625 0zm-2.5 12.953125l0 4.578125q0 1.171875 -0.921875 1.171875q-0.984375 0 -0.984375 -1.078125l0 -11.859375q-0.109375 -2.109375 2.015625 -2.0l5.15625 0q2.15625 -0.109375 2.015625 2.0l0 10.328125q0.171875 2.5625 -2.3125 2.421875l-1.171875 0q-1.15625 0 -1.15625 -0.984375q0 -0.984375 0.984375 -0.984375l0.9375 0q0.796875 -0.03125 0.828125 -0.84375l0 -2.75l-5.390625 0zm0 -1.59375l5.390625 0l0 -2.171875l-5.390625 0l0 2.171875zm0 -3.765625l5.390625 0l0 -1.390625q-0.03125 -0.71875 -0.734375 -0.75l-3.9375 0q-0.703125 0.03125 -0.71875 0.75l0 1.390625zm17.015625 8.40625q0.140625 2.6875 -2.515625 2.515625l-1.59375 0q-1.125 0 -1.125 -1.046875q0 -1.046875 1.125 -1.046875l1.125 0q0.96875 -0.015625 0.984375 -1.0l0 -10.921875q0 -1.125 1.015625 -1.125q0.984375 0 0.984375 1.125l0 11.5zm-5.328125 -2.4375q0 0.96875 -0.984375 0.96875q-0.984375 0 -0.984375 -0.96875l0 -8.453125q0 -1.015625 0.984375 -1.015625q0.984375 0 0.984375 1.015625l0 8.453125zm21.46875 -4.5625l0 -3.546875l-5.6875 0q-1.203125 0 -1.203125 -0.953125q0 -0.96875 1.203125 -0.96875l5.6875 0l0 -3.5625l-0.859375 0.125q-2.421875 0.296875 -3.875 0.296875q-1.078125 0 -1.078125 -1.125q0 -0.484375 0.296875 -0.71875q0.3125 -0.234375 1.578125 -0.265625q6.75 -0.1875 9.5 -1.28125q0.7499924 -0.265625 1.1406174 -0.265625q1.0625 0 1.0625 1.078125q0 0.6875 -1.28125 1.109375q-1.2812424 0.421875 -4.4218674 0.8125l0 3.796875l6.4062424 0q1.140625 0 1.140625 0.96875q0 0.953125 -1.140625 0.953125l-6.4062424 0l0 3.546875l3.453125 0q1.1718674 0 1.8281174 0.609375q0.65625 0.671875 0.609375 1.921875l0 3.8125q0.046875 1.25 -0.609375 1.9375q-0.703125 0.65625 -1.9218674 0.609375l-8.484375 0q-2.71875 0.1875 -2.53125 -2.546875l0 -3.8125q-0.1875 -2.71875 2.53125 -2.53125l3.0625 0zm4.671875 6.984375q1.21875 0.015625 1.21875 -1.171875l0 -2.703125q0.015625 -1.21875 -1.171875 -1.21875l-7.109375 0q-1.21875 -0.015625 -1.21875 1.171875l0 2.703125q-0.015625 1.21875 1.171875 1.21875l7.109375 0zm-15.546875 -12.6875q0.453125 0 2.421875 0.921875q0.953125 0.4375 0.953125 1.171875q0 1.125 -1.09375 1.125q-0.3125 0 -0.875 -0.28125l-1.234375 -0.59375q-1.25 -0.53125 -1.25 -1.265625q0 -1.078125 1.078125 -1.078125zm2.65625 6.171875q1.046875 0 1.046875 1.03125q0 0.65625 -1.203125 3.78125q-1.203125 3.109375 -1.46875 3.484375q-0.328125 0.421875 -0.890625 0.421875q-1.140625 0 -1.140625 -1.171875q0 -0.28125 0.203125 -0.6875q1.078125 -2.171875 2.234375 -5.546875q0.4375 -1.3125 1.21875 -1.3125zm-1.484375 -12.3125q0.5 0 1.90625 0.75q1.421875 0.734375 1.421875 1.484375q0 1.09375 -1.125 1.09375q-0.296875 0 -0.859375 -0.328125l-1.296875 -0.71875q-1.140625 -0.5625 -1.140625 -1.203125q0 -1.078125 1.09375 -1.078125z" fill-rule="nonzero"/><path fill="#49352a" d="m134.86606 43.67381q0 -1.03125 -0.09375 -2.15625l1.875 0q-0.09375 1.125 -0.09375 2.15625l0 5.34375l1.6875 -0.28125l0 -9.1875l-3.0 0q0.09375 -1.78125 0.09375 -3.65625q0 -1.96875 -0.09375 -3.75l7.3125 0q-0.09375 1.78125 -0.09375 3.75q0 1.875 0.09375 3.65625l-2.625 0l0 3.09375q1.21875 0 2.625 -0.09375l0 1.59375q-1.40625 -0.09375 -2.625 -0.09375l0 4.3125l3.0 -0.75l0 1.59375q-5.4375 1.3125 -6.5625 1.640625q-1.125 0.328125 -2.25 0.796875q-0.375 -1.125 -0.75 -2.0625q0.75 -0.09375 1.5 -0.28125l0 -5.625zm5.8125 8.4375q1.59375 -0.84375 2.765625 -1.96875q1.171875 -1.125 1.96875 -2.484375q0.796875 -1.359375 1.265625 -2.90625q0.46875 -1.546875 0.65625 -3.140625q-3.375 0 -4.59375 0.09375l0 -1.59375q1.875 0.09375 4.78125 0.09375l0 -5.53125q-1.40625 0.1875 -3.65625 0.65625q-0.09375 -0.9375 -0.65625 -1.6875q2.15625 -0.09375 5.109375 -0.65625q2.953125 -0.5625 3.890625 -1.21875q0.46875 0.75 1.40625 1.6875q-1.03125 0.28125 -4.40625 0.84375l0 5.90625q4.03125 0 5.4375 -0.09375l0 1.59375q-1.5 -0.09375 -5.15625 -0.09375q0.09375 1.59375 1.265625 4.171875q1.171875 2.578125 2.484375 3.890625q1.3125 1.3125 2.4375 1.96875q-1.03125 0.375 -1.6875 1.40625q-1.875 -1.59375 -2.90625 -3.09375q-1.03125 -1.5 -1.59375 -2.71875q-0.5625 -1.21875 -0.9375 -2.71875q-0.65625 2.53125 -1.828125 4.40625q-1.171875 1.875 -4.265625 4.40625q-0.84375 -0.65625 -1.78125 -1.21875zm0.1875 -14.0625l0 -4.40625l-3.9375 0l0 4.40625l3.9375 0z" fill-rule="nonzero"/><path fill="#49352a" d="m163.55356 33.26756l14.15625 0q1.109375 0 1.109375 0.9375q0 0.9375 -1.109375 0.9375l-15.109375 0q-0.96875 1.78125 -2.265625 3.5q-1.28125 1.703125 -1.8125 1.703125q-1.03125 0 -1.03125 -1.0625q0 -0.421875 0.484375 -1.0q1.921875 -2.25 3.703125 -6.234375q0.5625 -1.25 1.34375 -1.25q1.125 0 1.125 0.890625q0 0.46875 -0.59375 1.578125zm-1.078125 5.453125q-0.984375 0 -0.984375 -0.890625q0 -0.890625 0.984375 -0.890625l13.203125 0q0.984375 0 0.984375 0.890625q0 0.890625 -0.984375 0.890625l-13.203125 0zm-3.046875 2.953125q0 -0.9375 1.03125 -0.9375l12.890625 0q2.140625 0 2.140625 2.0l-0.03125 0.34375l0 0.46875q0 3.0 0.46875 4.8125q0.46875 1.796875 1.203125 1.796875q0.25 0 0.4375 -1.796875q0.09375 -1.484375 1.03125 -1.484375q0.96875 0 0.96875 1.125q0 1.90625 -0.703125 3.359375q-0.703125 1.453125 -1.734375 1.453125q-1.734375 0 -2.765625 -2.4375q-1.015625 -2.4375 -1.015625 -5.234375l0.03125 -1.6875q0 -0.84375 -0.828125 -0.84375l-12.09375 0q-1.03125 0 -1.03125 -0.9375zm30.03125 5.796875q-0.28125 2.25 -1.78125 3.703125q-0.890625 0.828125 -2.25 1.21875q-1.34375 0.40625 -1.734375 0.40625q-0.921875 0 -0.921875 -0.890625q0 -0.6875 1.265625 -0.921875q3.421875 -0.515625 3.65625 -3.515625l-1.921875 0q-0.84375 0 -0.84375 -0.78125q0 -0.75 0.84375 -0.75l7.859375 0q1.890625 0 1.890625 1.546875q0 1.53125 -0.484375 3.28125q-0.46875 1.75 -2.578125 1.984375l-1.546875 0.0625q-1.015625 0 -1.015625 -0.9375q0 -0.890625 1.015625 -0.890625l0.421875 0.03125l0.234375 0q1.609375 0 1.875 -1.421875l0.1875 -0.890625l0.09375 -0.703125q0 -0.53125 -0.59375 -0.53125l-3.671875 0zm-1.640625 -14.890625l13.875 0q1.09375 0 1.09375 0.875q0 0.859375 -1.09375 0.859375l-15.09375 0q-3.078125 4.015625 -4.25 4.015625q-0.859375 0 -0.859375 -0.984375q0 -0.40625 0.46875 -0.84375q2.578125 -2.390625 4.09375 -4.90625q0.46875 -0.765625 1.15625 -0.765625q1.046875 0 1.046875 0.765625q0 0.265625 -0.390625 0.921875l-0.046875 0.0625zm4.515625 10.765625l-2.265625 0q-0.875 0 -0.875 -0.765625q0 -0.78125 0.875 -0.78125l2.625 0q1.28125 -0.03125 2.015625 1.375q0.90625 1.578125 2.8125 2.578125q0.796875 0.421875 0.796875 1.015625q0 0.9375 -0.921875 0.9375q-0.625 0 -2.0 -1.1875q-1.375 -1.1875 -2.09375 -2.5625q-0.359375 -0.59375 -0.96875 -0.609375zm-5.765625 -1.015625q0.828125 0 0.828125 0.78125q0 0.8125 -1.953125 2.734375q-1.9375 1.921875 -2.640625 1.921875q-0.84375 0 -0.84375 -0.890625q0 -0.4375 0.625 -0.890625q1.765625 -1.234375 2.90625 -2.828125q0.59375 -0.828125 1.078125 -0.828125zm-0.296875 -5.015625q-0.921875 0 -0.921875 -0.796875q0 -0.796875 0.921875 -0.796875l13.421875 0q0.921875 0 0.921875 0.796875q0 0.796875 -0.921875 0.796875l-13.421875 0zm-3.703125 2.5625q0 -0.875 1.09375 -0.875l14.578125 0q2.140625 0 2.140625 2.1875l-0.03125 1.328125l0 1.265625q0 6.40625 1.03125 6.40625q0.359375 0 0.453125 -1.375q0.109375 -1.375 0.234375 -1.578125q0.203125 -0.359375 0.671875 -0.359375q0.828125 0 0.828125 0.9375q0 5.03125 -2.0 5.03125q-1.828125 0 -2.71875 -4.09375q-0.390625 -1.796875 -0.390625 -6.109375q0 -1.296875 -0.125 -1.59375q-0.140625 -0.3125 -0.703125 -0.3125l-13.96875 0q-1.09375 0 -1.09375 -0.859375z" fill-rule="nonzero"/><path fill="#000000" fill-opacity="0.0" d="m109.14152 61.27828l266.96063 0l0 95.11812l-266.96063 0z" fill-rule="evenodd"/><path fill="#49352a" d="m127.48527 79.07328q0.8281174 0 1.4218674 0.609375q0.609375 0.609375 0.609375 1.453125q0 0.90625 -0.6875 1.53125q-0.59375 0.515625 -1.3749924 0.515625q-0.90625 0 -1.53125 -0.671875q-0.53125 -0.59375 -0.53125 -1.40625q0 -0.8125 0.609375 -1.421875q0.609375 -0.609375 1.484375 -0.609375zm14.703117 -2.953125l1.609375 0q0.859375 0 0.859375 0.75q0 0.75 -0.859375 0.75l-1.609375 0l0 3.5625l1.59375 -0.515625q0.25 -0.078125 0.390625 -0.078125q0.71875 0 0.71875 0.71875q0 0.53125 -0.546875 0.734375l-2.15625 0.703125l0 4.71875q0.125 2.1875 -1.875 2.0625l-1.1875 0q-0.78125 0 -0.78125 -0.828125q0 -0.8125 0.78125 -0.8125l0.78125 0q0.71875 -0.015625 0.734375 -0.703125l0 -3.953125l-0.34375 0.09375q-1.734375 0.5 -1.921875 0.5q-0.828125 0 -0.828125 -0.8125q0 -0.671875 1.109375 -0.890625l1.734375 -0.4375l0.25 -0.0625l0 -4.0l-2.125 0q-0.90625 0 -0.90625 -0.75q0 -0.75 0.90625 -0.75l2.125 0l0 -2.765625q0 -0.84375 0.78125 -0.84375q0.765625 0 0.765625 0.84375l0 2.765625zm9.109375 -0.65625l0 11.96875q0.03125 1.03125 -0.5 1.609375q-0.578125 0.546875 -1.609375 0.5l-1.671875 0q-0.984375 0 -0.984375 -0.890625q0 -0.890625 0.921875 -0.890625l1.265625 0q0.890625 0.015625 0.875 -0.875l0 -11.421875l-4.171875 0q-0.96875 0 -0.96875 -0.828125q0 -0.796875 0.96875 -0.796875l8.34375 0q0.953125 0 0.953125 0.796875q0 0.828125 -0.953125 0.828125l-2.46875 0zm9.0625 2.171875l0 3.390625l1.0625 -0.40625l0.25 -0.03125q0.609375 0 0.609375 0.703125q0 0.546875 -1.921875 1.234375l0 5.140625q0.125 1.984375 -1.90625 1.875l-0.875 0q-0.875 0 -0.875 -0.796875q0 -0.796875 0.875 -0.796875l0.53125 0q0.703125 -0.015625 0.71875 -0.71875l0 -4.125q-1.796875 0.625 -1.953125 0.625q-0.671875 0 -0.671875 -0.828125q0 -0.40625 0.25 -0.578125q0.25 -0.171875 1.40625 -0.5l0.96875 -0.28125l0 -3.90625l-1.65625 0q-0.90625 0 -0.90625 -0.75q0 -0.75 0.90625 -0.75l1.65625 0l0 -2.671875q0 -0.921875 0.765625 -0.921875q0.765625 0 0.765625 0.921875l0 2.671875l1.28125 0q0.921875 0 0.921875 0.765625q0 0.734375 -0.921875 0.734375l-1.28125 0zm6.90625 -2.609375q-0.09375 2.109375 -0.578125 3.40625q-0.46875 1.296875 -1.59375 2.234375q-1.109375 0.9375 -1.78125 0.9375q-0.71875 0 -0.71875 -0.796875q0 -0.4375 0.453125 -0.6875q1.328125 -0.625 1.953125 -1.796875q0.640625 -1.171875 0.6875 -3.296875l-2.203125 0q-0.921875 0 -0.921875 -0.75q0 -0.75 0.921875 -0.75l7.484375 0q1.734375 0 1.734375 1.421875l-0.03125 0.921875l-0.03125 0.359375q-0.1875 3.28125 -0.75 4.203125q-0.546875 0.921875 -3.015625 0.921875q-0.890625 0 -0.890625 -0.84375q0 -0.78125 1.359375 -0.796875q0.828125 -0.03125 1.1875 -0.328125q0.296875 -0.390625 0.515625 -2.5625l0.0625 -1.25q0 -0.546875 -0.59375 -0.546875l-3.25 0zm-2.4375 7.015625l5.890625 0q1.765625 -0.109375 1.65625 1.640625l0 3.734375q0.109375 1.75 -1.65625 1.640625l-5.890625 0q-1.734375 0.109375 -1.625 -1.640625l0 -3.734375q-0.109375 -1.75 1.625 -1.640625zm0.59375 5.53125l4.703125 0q0.625 -0.015625 0.65625 -0.671875l0 -2.71875q-0.03125 -0.65625 -0.65625 -0.671875l-4.703125 0q-0.65625 0.015625 -0.671875 0.671875l0 2.71875q0.015625 0.65625 0.671875 0.671875zm20.1875 -6.0l0 -6.328125l-2.765625 0.25l-0.53125 0.046875l-0.5625 0.03125q-0.8125 0 -0.8125 -0.828125q0 -0.734375 1.3125 -0.796875q4.875 -0.171875 7.625 -0.921875l0.578125 -0.09375q0.84375 0 0.84375 0.875q0 0.46875 -0.75 0.703125q-0.75 0.234375 -3.34375 0.546875l0 6.515625l3.984375 0q0.9375 0 0.9375 0.78125q0 0.765625 -0.9375 0.765625l-3.984375 0l0 4.53125q0.15625 2.09375 -2.078125 1.96875l-1.46875 0q-0.90625 0 -0.90625 -0.84375q0 -0.84375 0.90625 -0.84375l1.234375 0q0.703125 -0.03125 0.71875 -0.71875l0 -4.09375l-3.734375 0q-0.953125 0 -0.953125 -0.78125q0 -0.765625 0.953125 -0.765625l3.734375 0zm-9.984375 2.59375l0 -8.40625q-0.09375 -1.65625 1.5625 -1.578125l1.734375 0q1.6875 -0.0625 1.578125 1.578125l0 8.40625q0.109375 1.65625 -1.578125 1.578125l-1.734375 0q-1.671875 0.0625 -1.5625 -1.578125zm3.46875 -0.484375l0 -7.4375q-0.015625 -0.578125 -0.59375 -0.59375l-0.875 0q-0.578125 0.015625 -0.59375 0.59375l0 7.4375q0.015625 0.578125 0.59375 0.59375l0.875 0q0.578125 -0.015625 0.59375 -0.59375zm3.359375 -7.1875q0.46875 0 0.796875 0.734375q0.828125 1.84375 0.828125 2.453125q0 0.765625 -0.78125 0.765625q-0.59375 0 -0.84375 -0.890625q-0.25 -0.890625 -0.515625 -1.53125q-0.25 -0.65625 -0.25 -0.796875q0 -0.734375 0.765625 -0.734375zm8.0 -0.171875q0.78125 0 0.78125 0.765625q0 0.609375 -0.90625 2.8125q-0.265625 0.625 -0.8125 0.625q-0.8125 0 -0.8125 -0.78125q0 -0.203125 0.296875 -0.890625q0.125 -0.171875 0.453125 -1.34375q0.328125 -1.1875 1.0 -1.1875z" fill-rule="nonzero"/><path fill="#49352a" d="m127.48527 105.07328q0.8281174 0 1.4218674 0.609375q0.609375 0.609375 0.609375 1.453125q0 0.90625 -0.6875 1.53125q-0.59375 0.515625 -1.3749924 0.515625q-0.90625 0 -1.53125 -0.671875q-0.53125 -0.59375 -0.53125 -1.40625q0 -0.8125 0.609375 -1.421875q0.609375 -0.609375 1.484375 -0.609375z" fill-rule="nonzero"/><path fill="#49352a" d="m147.93839 113.151405q1.40625 0.59375 4.8125 0.96875l-0.59375 1.640625q-3.484375 -0.453125 -5.40625 -1.5625q-2.234375 1.34375 -5.875 1.703125l-0.515625 -1.484375q3.125 -0.296875 5.203125 -1.265625q-0.96875 -0.890625 -1.484375 -1.84375q-1.265625 1.40625 -2.671875 2.078125l-0.890625 -1.265625q2.734375 -1.484375 3.921875 -3.640625l-1.625 0l0 -4.59375l-1.5625 1.546875l-1.1875 -1.03125q2.453125 -2.234375 3.71875 -5.5625l1.484375 0.59375q0.296875 0.296875 -0.234375 0.359375l-0.4375 0.96875l7.5 0l0 1.40625l-8.171875 0l-0.515625 0.828125l7.203125 0l0 5.484375l-4.53125 0l-0.515625 0.890625l3.703125 0l0.296875 -0.296875l1.109375 0.96875q0.453125 0.21875 -0.21875 0.375q-1.03125 1.484375 -2.515625 2.734375zm-2.828125 -2.59375q0.515625 0.890625 1.640625 1.78125q1.1875 -1.03125 1.78125 -1.78125l-3.421875 0zm-1.03125 -6.375l0 0.953125l5.265625 0l0 -0.953125l-5.265625 0zm0 2.140625l0 0.96875l5.265625 0l0 -0.96875l-5.265625 0z" fill-rule="nonzero"/><path fill="#49352a" d="m163.07901 101.588905q-2.109375 0 -4.0 0.078125l0 -1.46875q2.40625 0.078125 3.640625 0.078125l9.109375 0q-0.140625 1.015625 -0.21875 3.140625l-0.296875 9.6875q-0.140625 1.96875 -1.15625 2.328125q-1.015625 0.375 -3.359375 0.515625q-0.21875 -0.875 -0.796875 -1.75q2.109375 0.140625 2.90625 -0.03125q0.8125 -0.1875 0.953125 -1.359375l0.296875 -11.21875l-7.078125 0zm4.96875 6.5625q0 0.796875 0.140625 1.53125q-4.15625 1.53125 -8.671875 3.78125q-0.359375 -0.875 -1.015625 -1.671875q0.9375 -0.21875 3.734375 -1.234375q2.8125 -1.03125 5.8125 -2.40625zm-7.0 -5.109375q3.125 1.828125 4.65625 3.0q-0.28125 0.4375 -1.015625 1.375q-1.3125 -1.234375 -4.515625 -3.125q0.5 -0.65625 0.875 -1.25z" fill-rule="nonzero"/><path fill="#49352a" d="m182.20401 112.91703l0 -13.390625q0 -1.0 0.890625 -1.0q0.875 0 0.875 1.0l0 4.265625l5.71875 0q0.984375 0 0.984375 0.859375q0 0.859375 -0.984375 0.859375l-5.71875 0l0 7.40625l7.40625 0q0.984375 0 0.984375 0.859375q0 0.859375 -0.984375 0.859375l-15.203125 0q-0.96875 0 -0.96875 -0.859375q0 -0.859375 0.96875 -0.859375l6.03125 0z" fill-rule="nonzero"/><path fill="#49352a" d="m205.36026 113.620155q-0.15625 -0.875 -0.734375 -1.75q1.453125 0 2.21875 -0.140625q0.765625 -0.15625 0.84375 -0.890625l0.140625 -3.921875l-6.1875 0l0 6.328125q0 1.3125 0.0625 2.703125l-1.671875 0q0.140625 -1.3125 0.140625 -2.703125l0 -6.328125l-1.59375 0q-2.40625 0 -3.859375 0.0625l0 -1.375q1.53125 0.0625 3.125 0.0625l11.65625 0q-0.21875 3.0625 -0.296875 4.96875q-0.0625 1.890625 -1.078125 2.359375q-1.015625 0.46875 -2.765625 0.625zm-5.03125 -10.9375q0 1.3125 0.0625 2.265625l-1.59375 0q0.0625 -1.09375 0.0625 -2.265625l-2.46875 0q-1.015625 0 -2.265625 0.140625l0 -1.453125q1.25 0.078125 2.265625 0.078125l2.46875 0q0 -1.390625 -0.0625 -2.328125l1.59375 0q-0.0625 0.9375 -0.0625 2.328125l3.859375 0q0 -1.453125 -0.078125 -2.328125l1.6875 0q-0.078125 0.875 -0.078125 2.328125l2.328125 0q1.390625 0 2.546875 -0.078125l0 1.390625q-1.15625 -0.078125 -2.546875 -0.078125l-2.328125 0q0 1.171875 0.078125 2.265625l-1.6875 0q0.078125 -1.171875 0.078125 -2.265625l-3.859375 0zm27.546875 -3.421875q-0.078125 1.3125 -0.078125 3.78125q0 2.484375 0.078125 3.5l-3.9375 0l0 1.46875q4.4375 0 5.3125 -0.078125l0 1.3125q-0.9375 -0.078125 -4.796875 -0.078125q1.15625 1.609375 2.53125 2.625q1.390625 1.015625 2.859375 1.53125q-0.515625 0.65625 -0.8125 1.53125q-1.890625 -0.796875 -3.125 -1.96875q-1.234375 -1.171875 -1.96875 -2.328125q0 4.078125 0.078125 5.6875l-1.46875 0q0.078125 -1.6875 0.078125 -5.46875q-0.734375 1.09375 -1.640625 2.078125q-0.90625 0.984375 -2.8125 2.21875q-0.359375 -0.65625 -1.015625 -1.234375q1.96875 -1.03125 2.984375 -2.15625q1.03125 -1.125 1.75 -2.515625q-3.421875 0 -4.375 0.078125l0 -1.3125q0.875 0.078125 5.109375 0.078125l0 -1.46875l-3.9375 0q0.078125 -1.59375 0.078125 -3.71875q0 -2.1875 -0.078125 -3.5625l9.1875 0zm-9.625 12.234375q-0.796875 0.953125 -1.390625 1.796875q-0.578125 0.828125 -1.234375 1.859375q-0.578125 -0.4375 -1.3125 -0.875q0.65625 -0.65625 0.65625 -1.3125l0 -7.0l-0.578125 0q-0.953125 0 -2.046875 0.078125l0 -1.390625q1.03125 0.078125 2.046875 0.078125l1.96875 0q-0.078125 1.453125 -0.078125 2.90625l0 4.078125q0.4375 -0.65625 0.953125 -1.375q0.4375 0.71875 1.015625 1.15625zm-2.984375 -12.234375q1.234375 1.75 1.8125 2.765625q-0.640625 0.296875 -1.375 0.875q-0.953125 -1.96875 -1.75 -2.765625q0.796875 -0.515625 1.3125 -0.875zm7.359375 6.046875l0 -1.890625l-2.484375 0l0 1.890625l2.484375 0zm3.78125 0l0 -1.890625l-2.46875 0l0 1.890625l2.46875 0zm-3.78125 -3.0625l0 -1.828125l-2.484375 0l0 1.828125l2.484375 0zm3.78125 0l0 -1.828125l-2.46875 0l0 1.828125l2.46875 0z" fill-rule="nonzero"/><path fill="#49352a" d="m239.93839 105.620155q0.234375 -0.28125 0.578125 -0.28125q0.34375 0 2.40625 1.96875q2.078125 1.96875 2.078125 2.625q0 0.84375 -0.875 0.84375q-0.3125 0 -0.578125 -0.234375l-1.09375 -1.359375q-0.5 -0.65625 -2.28125 -2.484375q-0.375 -0.390625 -0.390625 -0.609375q-0.59375 1.75 -2.03125 3.28125q-1.4375 1.515625 -2.359375 1.515625q-0.78125 0 -0.78125 -0.875q0 -0.515625 0.75 -0.9375q3.140625 -1.78125 3.328125 -6.140625l-4.109375 0q-0.828125 0.03125 -0.84375 0.84375l0 10.796875q0 1.015625 -0.8125 1.015625q-0.8125 0 -0.8125 -1.015625l0 -11.21875q-0.03125 -1.0 0.5 -1.546875q0.5625 -0.53125 1.546875 -0.484375l4.609375 0l0.015625 -0.921875l-0.015625 -0.59375q0 -1.296875 0.828125 -1.296875q0.84375 0 0.84375 1.328125l-0.03125 1.484375l5.03125 0q1.0 -0.046875 1.546875 0.484375q0.53125 0.5625 0.484375 1.546875l0 10.15625q0.140625 2.140625 -2.015625 2.015625l-1.734375 0q-0.9375 0 -0.9375 -0.859375q0 -0.875 0.9375 -0.875l1.390625 0q0.71875 -0.015625 0.75 -0.71875l0 -9.296875q-0.03125 -0.8125 -0.84375 -0.84375l-4.703125 0q-0.140625 1.71875 -0.375 2.6875zm17.5 -5.375l0 -0.890625q0 -0.828125 0.859375 -0.828125q0.875 0 0.875 0.828125l0 0.890625l5.5625 0q0.90625 0 1.4375 0.46875q0.46875 0.53125 0.46875 1.421875l0 1.1875q0 0.953125 -0.8125 0.953125q-0.796875 0 -0.796875 -0.953125l0 -0.96875q0 -0.75 -0.71875 -0.734375l-11.8125 0q-0.75 -0.015625 -0.703125 0.734375l0 0.96875q0 0.953125 -0.828125 0.953125q-0.796875 0 -0.796875 -0.953125l0 -1.109375q-0.015625 -0.96875 0.46875 -1.5q0.546875 -0.515625 1.515625 -0.46875l5.28125 0zm1.546875 4.4375l0.15625 0.140625q2.859375 2.671875 6.5 3.796875q1.34375 0.390625 1.34375 0.953125q0 0.859375 -0.75 0.859375q-0.875 0 -3.46875 -1.40625q-2.578125 -1.40625 -4.546875 -3.40625q-1.6875 1.84375 -4.34375 3.453125q-2.640625 1.59375 -3.328125 1.59375q-0.71875 0 -0.71875 -0.8125q0 -0.515625 0.765625 -0.8125q2.03125 -0.765625 3.96875 -2.09375q1.953125 -1.34375 2.921875 -2.671875q0.40625 -0.59375 0.875 -0.59375q0.796875 0 0.796875 0.546875q0 0.1875 -0.171875 0.453125zm-3.140625 -2.296875q0.6875 0 0.6875 0.703125q0 0.46875 -2.0 1.75q-1.984375 1.265625 -2.609375 1.265625q-0.71875 0 -0.71875 -0.71875q0 -0.46875 1.0625 -0.921875q1.5 -0.6875 2.84375 -1.75q0.421875 -0.328125 0.734375 -0.328125zm4.890625 -0.03125q0.3125 0 0.953125 0.515625q1.8125 1.3125 3.28125 1.953125q0.546875 0.25 0.546875 0.703125q0 0.765625 -0.75 0.765625q-0.578125 0 -2.671875 -1.4375q-2.078125 -1.4375 -2.078125 -1.859375q0 -0.640625 0.71875 -0.640625zm1.4375 7.015625q2.171875 -0.03125 2.015625 1.765625l0 2.203125q0.109375 1.875 -1.75 1.75l-8.0625 0q-1.859375 0.109375 -1.75 -1.75l0 -2.203125q-0.125 -1.78125 1.96875 -1.765625l7.578125 0zm-7.265625 4.3125l7.0 0q0.703125 -0.015625 0.734375 -0.703125l0 -1.5625q-0.03125 -0.65625 -0.65625 -0.65625l-7.15625 0q-0.625 0.015625 -0.65625 0.65625l0 1.5625q0.03125 0.6875 0.734375 0.703125z" fill-rule="nonzero"/><path fill="#49352a" d="m127.48527 131.07327q0.8281174 0 1.4218674 0.609375q0.609375 0.609375 0.609375 1.453125q0 0.90625 -0.6875 1.53125q-0.59375 0.515625 -1.3749924 0.515625q-0.90625 0 -1.53125 -0.671875q-0.53125 -0.59375 -0.53125 -1.40625q0 -0.8125 0.609375 -1.421875q0.609375 -0.609375 1.484375 -0.609375z" fill-rule="nonzero"/><path fill="#49352a" d="m150.06339 126.057655q-0.515625 0.578125 -1.53125 2.7656174l3.125 0q-0.0625 1.390625 -0.0625 2.78125q0 1.3125 0.0625 2.6875l-11.4375 0q0.078125 -1.53125 0.078125 -2.84375q0 -1.375 -0.078125 -2.625l2.921875 0q-0.8125 -1.3124924 -1.890625 -2.4687424q0.5 -0.296875 1.015625 -0.875q1.375 1.453125 2.03125 2.46875q-0.5 0.37499237 -0.9375 0.8749924l3.78125 0q0.953125 -2.3281174 1.171875 -3.4843674q1.015625 0.5 1.75 0.71875zm0.140625 6.9999924l0 -3.140625l-8.59375 0l0 3.140625l8.59375 0zm-6.78125 2.90625q-0.0625 1.171875 -0.0625 2.265625q0 1.09375 0.03125 1.640625q0.03125 0.546875 1.203125 0.546875l3.859375 0q0.953125 0 1.171875 -1.828125q0.734375 0.4375 1.53125 0.65625q-0.4375 1.53125 -1.0625 1.9375q-0.609375 0.40625 -1.640625 0.328125l-4.875 0q-1.390625 0 -1.46875 -0.8125q-0.0625 -0.796875 -0.0625 -2.03125q0 -1.3125 -0.078125 -2.703125l1.453125 0zm-2.6875 0.375q-0.875 2.984375 -1.53125 4.59375q-0.578125 -0.296875 -1.3125 -0.59375q0.875 -1.671875 1.53125 -4.515625q0.578125 0.21875 1.3125 0.515625zm10.484375 -0.734375q2.1875 2.1875 3.0625 3.28125q-0.5 0.515625 -1.09375 1.015625q-0.71875 -1.015625 -2.984375 -3.421875q0.4375 -0.296875 1.015625 -0.875zm-4.65625 2.921875q-1.09375 -1.75 -1.96875 -2.703125q0.4375 -0.4375 0.953125 -0.875q0.65625 0.65625 2.1875 2.703125q-0.65625 0.28125 -1.171875 0.875z" fill-rule="nonzero"/><path fill="#49352a" d="m160.17276 128.93265l0 11.828125q0 0.9375 -0.765625 0.9375q-0.765625 0 -0.765625 -0.9375l0 -8.8125q-1.28125 2.34375 -1.765625 2.34375q-0.671875 0 -0.671875 -0.875q0 -0.3125 0.421875 -0.921875q2.03125 -2.984375 3.09375 -6.4843674q0.328125 -1.078125 0.53125 -1.28125q0.21875 -0.203125 0.578125 -0.203125q0.796875 0 0.796875 0.671875q0 0.546875 -1.453125 3.7343674zm5.796875 2.40625q-0.828125 2.40625 -2.4375 4.765625q-1.59375 2.34375 -2.21875 2.34375q-0.78125 0 -0.78125 -0.8125q0 -0.375 0.71875 -1.15625q3.046875 -3.34375 4.15625 -6.75l-3.46875 0q-0.90625 0 -0.90625 -0.765625q0 -0.765625 0.90625 -0.765625l4.03125 0l0 -2.7031174q0 -0.96875 0.734375 -0.96875q0.75 0 0.75 0.96875l0 2.7031174l4.640625 0q0.921875 0 0.921875 0.765625q0 0.765625 -0.921875 0.765625l-4.234375 0q1.421875 3.65625 4.9375 6.890625q0.5625 0.546875 0.5625 0.9375q0 0.890625 -0.8125 0.890625q-0.640625 0 -2.390625 -2.265625q-1.734375 -2.265625 -2.703125 -4.78125l0 5.546875l2.140625 0q0.78125 0 0.78125 0.734375q0 0.71875 -0.78125 0.71875l-2.140625 0l0 2.359375q0 0.9375 -0.75 0.9375q-0.734375 0 -0.734375 -0.9375l0 -2.359375l-1.921875 0q-0.796875 0 -0.796875 -0.71875q0 -0.734375 0.796875 -0.734375l1.921875 0l0 -5.609375z" fill-rule="nonzero"/><path fill="#49352a" d="m185.25089 139.1514q1.40625 0.59375 4.8125 0.96875l-0.59375 1.640625q-3.484375 -0.453125 -5.40625 -1.5625q-2.234375 1.34375 -5.875 1.703125l-0.515625 -1.484375q3.125 -0.296875 5.203125 -1.265625q-0.96875 -0.890625 -1.484375 -1.84375q-1.265625 1.40625 -2.671875 2.078125l-0.890625 -1.265625q2.734375 -1.484375 3.921875 -3.640625l-1.625 0l0 -4.59375l-1.5625 1.546875l-1.1875 -1.03125q2.453125 -2.234375 3.71875 -5.5624924l1.484375 0.59375q0.296875 0.296875 -0.234375 0.359375l-0.4375 0.96875l7.5 0l0 1.4062424l-8.171875 0l-0.515625 0.828125l7.203125 0l0 5.484375l-4.53125 0l-0.515625 0.890625l3.703125 0l0.296875 -0.296875l1.109375 0.96875q0.453125 0.21875 -0.21875 0.375q-1.03125 1.484375 -2.515625 2.734375zm-2.828125 -2.59375q0.515625 0.890625 1.640625 1.78125q1.1875 -1.03125 1.78125 -1.78125l-3.421875 0zm-1.03125 -6.375l0 0.953125l5.265625 0l0 -0.953125l-5.265625 0zm0 2.140625l0 0.96875l5.265625 0l0 -0.96875l-5.265625 0z" fill-rule="nonzero"/><path fill="#49352a" d="m200.39151 127.588905q-2.109375 0 -4.0 0.078125l0 -1.46875q2.40625 0.078125 3.640625 0.078125l9.109375 0q-0.140625 1.015625 -0.21875 3.1406174l-0.296875 9.6875q-0.140625 1.96875 -1.15625 2.328125q-1.015625 0.375 -3.359375 0.515625q-0.21875 -0.875 -0.796875 -1.75q2.109375 0.140625 2.90625 -0.03125q0.8125 -0.1875 0.953125 -1.359375l0.296875 -11.218742l-7.078125 0zm4.96875 6.5624924q0 0.796875 0.140625 1.53125q-4.15625 1.53125 -8.671875 3.78125q-0.359375 -0.875 -1.015625 -1.671875q0.9375 -0.21875 3.734375 -1.234375q2.8125 -1.03125 5.8125 -2.40625zm-7.0 -5.109375q3.125 1.828125 4.65625 3.0q-0.28125 0.4375 -1.015625 1.375q-1.3125 -1.234375 -4.515625 -3.125q0.5 -0.65625 0.875 -1.25z" fill-rule="nonzero"/><path fill="#000000" fill-opacity="0.0" d="m359.64096 472.80386c-5.651886 6.0601196 -10.459045 27.869263 -33.911255 36.360596c-23.45221 8.491364 -82.12485 6.1407776 -106.802 14.587494c-24.677155 8.446716 -34.384094 30.077393 -41.26091 36.092834" fill-rule="evenodd"/><path stroke="#942a2a" stroke-width="1.0" stroke-linejoin="round" stroke-linecap="butt" stroke-dasharray="4.0,3.0" d="m359.64096 472.80386c-5.651886 6.0601196 -10.459045 27.869263 -33.911255 36.360596c-23.45221 8.491364 -82.12485 6.1407776 -106.802 14.587494c-24.677155 8.446716 -34.384094 30.077393 -41.26091 36.092834" fill-rule="evenodd"/><path fill="#b6d7a8" d="m209.681 372.50897l0 0c0 -42.565063 67.58737 -77.07086 150.96063 -77.07086l0 0c83.37326 0 150.96063 34.5058 150.96063 77.07086l0 0c0 42.565063 -67.58737 77.07086 -150.96063 77.07086l0 0c-83.37326 0 -150.96063 -34.5058 -150.96063 -77.07086z" fill-rule="evenodd"/><path stroke="#b6d7a8" stroke-width="1.0" stroke-linejoin="round" stroke-linecap="butt" d="m209.681 372.50897l0 0c0 -42.565063 67.58737 -77.07086 150.96063 -77.07086l0 0c83.37326 0 150.96063 34.5058 150.96063 77.07086l0 0c0 42.565063 -67.58737 77.07086 -150.96063 77.07086l0 0c-83.37326 0 -150.96063 -34.5058 -150.96063 -77.07086z" fill-rule="evenodd"/><path fill="#000000" fill-opacity="0.0" d="m229.71683 293.62308l233.7008 0l0 39.149628l-233.7008 0z" fill-rule="evenodd"/><path fill="#49352a" d="m251.73245 306.7412l0.0625 0.078125q4.125 4.40625 8.90625 6.0625q1.0625 0.40625 1.0625 1.265625q0 1.15625 -1.0625 1.15625q-1.28125 0 -4.5 -2.125q-3.203125 -2.125 -5.625 -4.84375q-1.5 1.765625 -3.5 3.4375q-2.0 1.671875 -3.9375 2.796875q-1.9375 1.109375 -2.5 1.109375q-0.953125 0 -0.953125 -1.078125q0 -0.78125 1.265625 -1.390625q4.875 -2.34375 8.21875 -6.609375q0.875 -1.09375 1.578125 -1.09375q1.140625 0 1.140625 0.75q0 0.1875 -0.15625 0.484375zm-5.890625 8.4375q-1.1875 0 -1.1875 -0.953125q0 -0.9375 1.1875 -0.9375l9.59375 0q1.171875 0 1.171875 0.953125q0 0.9375 -1.171875 0.9375l-9.59375 0zm10.15625 2.65625q2.171875 0 2.171875 1.328125q0 0.65625 -1.328125 3.671875q-1.3125 3.0 -1.859375 3.875q-0.53125 0.875 -1.265625 0.875q-1.140625 0 -1.140625 -0.984375q0 -0.34375 0.9375 -2.140625l1.75 -3.765625q0.171875 -0.28125 0.171875 -0.5q0 -0.296875 -0.421875 -0.296875l-11.84375 0q-1.140625 0 -1.140625 -1.03125q0 -1.03125 1.140625 -1.03125l12.828125 0zm24.296875 8.421875l-10.78125 0q-2.96875 0.1875 -2.78125 -2.796875l0 -13.828125q-0.046875 -1.4375 0.75 -2.203125q0.75 -0.59375 1.9375 -0.59375l10.875 0q1.40625 -0.046875 2.203125 0.75q0.59375 0.734375 0.59375 1.953125l0 13.921875q0.1875 2.984375 -2.796875 2.796875zm-11.359375 -10.890625l11.953125 0l0 -5.0625q-0.03125 -1.3125 -1.359375 -1.359375l-9.234375 0q-1.359375 0.046875 -1.359375 1.40625l0 5.015625zm0 2.0625l0 5.34375q0.046875 1.359375 1.40625 1.359375l9.1875 0q1.3125 -0.015625 1.359375 -1.359375l0 -5.34375l-11.953125 0z" fill-rule="nonzero"/><path fill="#49352a" d="m307.43558 306.44434q-0.09375 1.6875 -0.09375 4.875q0 3.1875 0.09375 4.5l-5.0625 0l0 1.875q5.71875 0 6.84375 -0.09375l0 1.6875q-1.21875 -0.09375 -6.1875 -0.09375q1.5 2.0625 3.28125 3.375q1.78125 1.3125 3.65625 1.96875q-0.65625 0.84375 -1.03125 1.96875q-2.4375 -1.03125 -4.03125 -2.53125q-1.59375 -1.5 -2.53125 -3.0q0 5.25 0.09375 7.3125l-1.875 0q0.09375 -2.15625 0.09375 -7.03125q-0.9375 1.40625 -2.109375 2.671875q-1.171875 1.265625 -3.609375 2.859375q-0.46875 -0.84375 -1.3125 -1.59375q2.53125 -1.3125 3.84375 -2.765625q1.3125 -1.453125 2.25 -3.234375q-4.40625 0 -5.625 0.09375l0 -1.6875q1.125 0.09375 6.5625 0.09375l0 -1.875l-5.0625 0q0.09375 -2.0625 0.09375 -4.78125q0 -2.8125 -0.09375 -4.59375l11.8125 0zm-12.375 15.75q-1.03125 1.21875 -1.78125 2.296875q-0.75 1.078125 -1.59375 2.390625q-0.75 -0.5625 -1.6875 -1.125q0.84375 -0.84375 0.84375 -1.6875l0 -9.0l-0.75 0q-1.21875 0 -2.625 0.09375l0 -1.78125q1.3125 0.09375 2.625 0.09375l2.53125 0q-0.09375 1.875 -0.09375 3.75l0 5.25q0.5625 -0.84375 1.21875 -1.78125q0.5625 0.9375 1.3125 1.5zm-3.84375 -15.75q1.59375 2.25 2.34375 3.5625q-0.84375 0.375 -1.78125 1.125q-1.21875 -2.53125 -2.25 -3.5625q1.03125 -0.65625 1.6875 -1.125zm9.46875 7.78125l0 -2.4375l-3.1875 0l0 2.4375l3.1875 0zm4.875 0l0 -2.4375l-3.1875 0l0 2.4375l3.1875 0zm-4.875 -3.9375l0 -2.34375l-3.1875 0l0 2.34375l3.1875 0zm4.875 0l0 -2.34375l-3.1875 0l0 2.34375l3.1875 0z" fill-rule="nonzero"/><path fill="#49352a" d="m315.35745 311.64746l0 -3.3125q-2.0625 0.28125 -2.640625 0.28125q-0.890625 0 -0.890625 -1.0q0 -0.453125 0.390625 -0.65625q0.28125 -0.1875 1.734375 -0.3125q2.5625 -0.25 4.625 -0.796875l0.484375 -0.0625q1.078125 0 1.078125 1.0q0 0.421875 -0.4375 0.703125q-0.421875 0.265625 -2.484375 0.609375l0 3.546875l1.75 0q1.125 0 1.125 0.90625q0 0.9375 -1.125 0.9375l-1.75 0l0 3.125q0.25 -0.375 0.65625 -0.375q0.46875 0 1.546875 1.4375q1.09375 1.421875 1.09375 1.796875q0 0.84375 -0.84375 0.84375q-0.390625 0 -0.890625 -0.765625q-0.484375 -0.78125 -1.3125 -1.84375l-0.25 -0.390625l0 9.171875q0 1.09375 -0.9375 1.09375q-0.921875 0 -0.921875 -1.09375l0 -9.59375q-0.53125 1.84375 -1.390625 3.546875q-0.859375 1.703125 -1.421875 1.703125q-0.859375 0 -0.859375 -1.03125q0 -0.40625 0.484375 -1.0625q2.09375 -2.921875 3.0 -6.5625l-2.203125 0q-1.140625 0 -1.140625 -0.9375q0 -0.90625 1.140625 -0.90625l2.390625 0zm12.234375 6.0l0 2.53125l3.6875 0q0.984375 0 0.984375 0.84375q0 0.8125 -0.984375 0.8125l-3.6875 0l0 3.078125l5.09375 0q1.078125 0 1.078125 0.890625q0 0.875 -1.078125 0.875l-12.609375 0q-1.078125 0 -1.078125 -0.875q0 -0.890625 1.078125 -0.890625l5.59375 0l0 -3.078125l-3.65625 0q-0.984375 0 -0.984375 -0.84375q0 -0.8125 0.984375 -0.8125l3.65625 0l0 -2.53125l-4.453125 0q-0.984375 0 -0.984375 -0.859375q0 -0.875 0.984375 -0.875l11.109375 0q1.015625 0 1.015625 0.875q0 0.859375 -1.015625 0.859375l-4.734375 0zm2.796875 -3.46875l-7.296875 0q-2.171875 0.09375 -2.0625 -2.09375l0 -3.328125q-0.109375 -2.203125 2.0625 -2.078125l7.296875 0q2.203125 -0.125 2.0625 2.078125l0 3.328125q0.109375 2.203125 -2.0625 2.09375zm-6.75 -1.734375l6.15625 0q0.75 -0.03125 0.78125 -0.78125l0 -2.484375q-0.03125 -0.75 -0.78125 -0.765625l-6.15625 0q-0.78125 0.015625 -0.796875 0.765625l0 2.484375q0.015625 0.75 0.796875 0.78125z" fill-rule="nonzero"/><path fill="#000000" fill-opacity="0.0" d="m281.9233 336.44177l266.9606 0l0 95.1181l-266.9606 0z" fill-rule="evenodd"/><path fill="#49352a" d="m300.26706 354.23676q0.828125 0 1.421875 0.609375q0.609375 0.609375 0.609375 1.453125q0 0.90625 -0.6875 1.53125q-0.59375 0.515625 -1.375 0.515625q-0.90625 0 -1.53125 -0.671875q-0.53125 -0.59375 -0.53125 -1.40625q0 -0.8125 0.609375 -1.421875q0.609375 -0.609375 1.484375 -0.609375zm17.078125 -0.421875l1.4375 0q0.828125 0 0.828125 0.6875q0 0.671875 -0.828125 0.671875l-3.0625 0l0 1.78125l2.828125 0q0.828125 0 0.828125 0.6875q0 0.671875 -0.828125 0.671875l-2.828125 0l0 1.359375q0.203125 -0.359375 0.65625 -0.359375q0.296875 0 1.25 0.71875q0.953125 0.71875 0.953125 1.09375q0 0.6875 -0.671875 0.6875q-0.296875 0 -0.734375 -0.40625l-1.453125 -1.25l0 3.796875q0 0.90625 -0.734375 0.90625q-0.71875 0 -0.71875 -0.90625l0 -4.078125q-0.75 1.375 -1.828125 2.4375q-1.0625 1.0625 -1.4375 1.0625q-0.671875 0 -0.671875 -0.796875q0 -0.40625 0.828125 -1.015625q2.046875 -1.609375 2.890625 -3.25l-2.625 0q-0.84375 0 -0.84375 -0.6875q0 -0.671875 0.84375 -0.671875l2.84375 0l0 -1.78125l-3.078125 0q-0.84375 0 -0.84375 -0.671875q0 -0.6875 0.84375 -0.6875l1.203125 0q-0.109375 -0.96875 -0.46875 -2.59375l-0.015625 -0.140625l-0.65625 0q-0.671875 0 -0.671875 -0.6875q0 -0.671875 0.671875 -0.671875l2.953125 0l0 -1.078125q0 -0.96875 0.78125 -0.96875q0.78125 0 0.78125 0.96875l0 1.078125l2.9375 0q0.65625 0 0.65625 0.671875q0 0.6875 -0.65625 0.6875l-0.828125 0l-0.03125 0.078125l-0.5 2.65625zm-1.3125 0l0.453125 -2.546875l0.015625 -0.09375l0 -0.09375l-3.28125 0q0.296875 1.296875 0.484375 2.6875l0 0.046875l2.328125 0zm5.53125 0l5.21875 0q0.71875 0 0.71875 0.78125q0 0.765625 -0.71875 0.765625l-1.21875 0l0 8.53125q0 0.96875 -0.8125 0.96875q-0.796875 0 -0.796875 -0.96875l0 -8.53125l-2.421875 0l-0.03125 1.28125q-0.15625 4.015625 -1.109375 5.984375q-0.9375 1.953125 -1.734375 1.953125q-0.84375 0 -0.84375 -0.859375q0 -0.3125 0.59375 -1.015625q0.609375 -0.703125 0.984375 -1.8125q0.390625 -1.125 0.53125 -2.65625q0.15625 -1.53125 0.171875 -3.984375l0 -0.59375l-0.015625 -2.984375q0 -0.8125 0.328125 -1.234375q0.328125 -0.421875 1.5 -0.609375q1.171875 -0.1875 2.015625 -0.390625q0.84375 -0.21875 1.53125 -0.421875q0.328125 -0.109375 0.5 -0.109375q0.875 0 0.875 0.9375q0 0.484375 -0.71875 0.671875q-2.078125 0.53125 -3.765625 0.796875q-0.78125 0.125 -0.78125 1.265625l0.015625 0.609375l0 0.640625l-0.015625 0.859375l0 0.125z" fill-rule="nonzero"/><path fill="#49352a" d="m343.6108 351.48676l0 7.421875l-5.46875 0l0 1.75l4.8125 0q1.609375 0 2.765625 -0.0625l0 1.453125q-1.234375 -0.078125 -2.765625 -0.078125l-4.8125 0q0 2.265625 0.078125 3.21875l-1.609375 0q0.15625 -0.953125 0.15625 -3.21875l-4.734375 0q-1.75 0 -2.5625 0.078125l0 -1.453125q0.734375 0.0625 2.40625 0.0625l4.890625 0l0 -1.75l-5.25 0q0.078125 -1.234375 0.078125 -3.5625q0 -2.328125 -0.078125 -3.859375l7.21875 0q0.796875 -1.6875 1.375 -3.421875q0.734375 0.359375 1.6875 0.796875q-0.296875 0.359375 -0.734375 1.125q-0.4375 0.765625 -0.875 1.5l3.421875 0zm-1.453125 6.265625l0 -1.96875l-4.015625 0l0 1.96875l4.015625 0zm0 -3.140625l0 -1.890625l-4.015625 0l0 1.890625l4.015625 0zm-5.390625 3.140625l0 -1.96875l-3.796875 0l0 1.96875l3.796875 0zm0 -3.140625l0 -1.890625l-3.796875 0l0 1.890625l3.796875 0zm-2.40625 -6.484375q0.71875 0.8125 1.671875 2.546875q-0.796875 0.375 -1.3125 0.65625q-0.734375 -1.59375 -1.453125 -2.46875q0.5 -0.296875 1.09375 -0.734375zm29.953125 1.03125q-0.078125 0.9375 -0.078125 2.765625l0 11.140625q0 1.171875 -0.921875 1.5625q-0.90625 0.40625 -2.21875 0.5625q-0.140625 -0.65625 -0.71875 -1.53125q1.53125 0 2.0 -0.21875q0.46875 -0.21875 0.46875 -1.171875l0 -11.953125l-6.046875 0q-1.671875 0 -2.765625 0.078125l0 -1.3125q0.953125 0.078125 2.84375 0.078125l7.4375 0zm-3.9375 6.1875q-0.078125 0.578125 -0.078125 1.96875l0 1.375q0 1.75 0.078125 3.28125l-1.3125 0l0 -1.015625l-2.921875 0l0 1.3125l-1.3125 0q0.078125 -1.234375 0.078125 -3.140625l0 -1.734375q0 -1.09375 -0.078125 -2.046875l5.546875 0zm-8.671875 -1.75q-0.078125 1.453125 -0.078125 3.0625l0 4.953125q0.734375 -0.578125 1.828125 -1.671875q0.21875 0.578125 0.71875 1.15625q-1.15625 0.953125 -1.96875 1.765625q-0.796875 0.796875 -1.671875 1.734375q-0.5 -0.71875 -0.9375 -1.234375q0.359375 -0.4375 0.5 -0.796875q0.15625 -0.375 0.15625 -1.03125l0 -6.765625l-0.734375 0q-0.21875 0 -1.671875 0.0625l0 -1.3125q1.015625 0.078125 1.671875 0.078125l2.1875 0zm7.359375 6.1875l0 -3.34375l-2.921875 0l0 3.34375l2.921875 0zm0.796875 -7.5q0.734375 0 1.671875 -0.078125l0 1.3125q-0.796875 -0.0625 -2.109375 -0.0625l-3.203125 0q-0.796875 0 -2.1875 0.0625l0 -1.3125q1.390625 0.078125 2.328125 0.078125l3.5 0zm-9.328125 -4.21875q1.3125 2.03125 1.75 2.828125q-0.65625 0.375 -1.234375 0.875q-1.09375 -2.1875 -1.671875 -2.90625q0.65625 -0.359375 1.15625 -0.796875z" fill-rule="nonzero"/><path fill="#49352a" d="m300.26706 380.23676q0.828125 0 1.421875 0.609375q0.609375 0.609375 0.609375 1.453125q0 0.90625 -0.6875 1.53125q-0.59375 0.515625 -1.375 0.515625q-0.90625 0 -1.53125 -0.671875q-0.53125 -0.59375 -0.53125 -1.40625q0 -0.8125 0.609375 -1.421875q0.609375 -0.609375 1.484375 -0.609375zm22.296875 -3.421875q0.796875 -1.28125 1.3125 -2.46875q0.296875 -0.640625 0.890625 -0.640625q0.859375 0 0.859375 0.71875q0 0.421875 -1.4375 2.390625l1.09375 0q2.171875 -0.171875 2.0 2.0l0 1.515625q0 0.890625 -0.796875 0.890625q-0.796875 0 -0.796875 -0.890625l0 -1.1875q0.015625 -0.890625 -0.875 -0.875l-11.5 0q-0.890625 -0.015625 -0.875 0.875l0 1.1875q0 0.890625 -0.8125 0.890625q-0.796875 0 -0.796875 -0.890625l0 -1.515625q-0.140625 -2.171875 2.015625 -2.0l9.71875 0zm-2.765625 7.734375l6.421875 0q0.921875 0 0.921875 0.765625q0 0.765625 -0.921875 0.765625l-6.421875 0l0 2.65625q0.03125 1.046875 -0.515625 1.609375q-0.578125 0.546875 -1.59375 0.515625l-1.234375 0q-0.984375 0 -0.984375 -0.828125q0 -0.8125 1.09375 -0.8125l0.890625 0q0.75 0.015625 0.71875 -0.734375l0 -2.40625l-6.296875 0q-0.9375 0 -0.9375 -0.765625q0 -0.765625 0.9375 -0.765625l6.296875 0l0 -0.59375q0 -1.046875 1.25 -1.484375q2.421875 -0.90625 2.421875 -1.140625q0 -0.078125 -0.109375 -0.078125l-7.796875 0q-0.859375 0 -0.859375 -0.6875q0 -0.71875 0.859375 -0.71875l9.90625 0q1.078125 0 1.078125 0.84375q0 0.703125 -4.0 2.40625q-0.90625 0.375 -1.015625 0.53125q-0.109375 0.140625 -0.109375 0.921875zm-6.53125 -10.796875q0.484375 0 0.875 0.59375l0.375 0.625q0.40625 0.59375 0.40625 0.890625q0 0.734375 -0.78125 0.734375q-0.53125 0 -0.84375 -0.609375l-0.640625 -1.09375q-0.1875 -0.265625 -0.1875 -0.453125q0 -0.6875 0.796875 -0.6875zm5.15625 -0.0625q0.484375 0 1.03125 0.921875q0.5625 0.90625 0.5625 1.25q0 0.6875 -0.8125 0.6875q-0.546875 0 -0.84375 -0.640625l-0.5625 -1.125q-0.140625 -0.234375 -0.140625 -0.453125q0 -0.640625 0.765625 -0.640625z" fill-rule="nonzero"/><path fill="#49352a" d="m335.51706 376.75238q-2.109375 0 -4.0 0.078125l0 -1.46875q2.40625 0.078125 3.640625 0.078125l9.109375 0q-0.140625 1.015625 -0.21875 3.140625l-0.296875 9.6875q-0.140625 1.96875 -1.15625 2.328125q-1.015625 0.375 -3.359375 0.515625q-0.21875 -0.875 -0.796875 -1.75q2.109375 0.140625 2.90625 -0.03125q0.8125 -0.1875 0.953125 -1.359375l0.296875 -11.21875l-7.078125 0zm4.96875 6.5625q0 0.796875 0.140625 1.53125q-4.15625 1.53125 -8.671875 3.78125q-0.359375 -0.875 -1.015625 -1.671875q0.9375 -0.21875 3.734375 -1.234375q2.8125 -1.03125 5.8125 -2.40625zm-7.0 -5.109375q3.125 1.828125 4.65625 3.0q-0.28125 0.4375 -1.015625 1.375q-1.3125 -1.234375 -4.515625 -3.125q0.5 -0.65625 0.875 -1.25z" fill-rule="nonzero"/><path fill="#49352a" d="m355.43893 384.65863l-4.71875 0q-0.640625 6.0 -2.1875 6.0q-0.890625 0 -0.890625 -0.9375q0 -0.21875 0.25 -0.671875q0.75 -1.34375 1.0625 -3.546875q0.3125 -2.21875 0.3125 -7.6875l-0.046875 -1.765625q0 -1.71875 2.015625 -1.71875l10.34375 0q2.125 -0.125 1.984375 1.984375l0 12.265625q0.125 2.28125 -2.09375 2.125l-1.296875 0q-0.859375 0 -0.859375 -0.859375q0 -0.84375 0.859375 -0.84375l1.03125 0q0.71875 -0.015625 0.734375 -0.734375l0 -3.609375l-4.90625 0l0 4.9375q0 0.890625 -0.796875 0.890625q-0.796875 0 -0.796875 -0.890625l0 -4.9375zm-4.53125 -5.921875l4.53125 0l0 -2.859375l-3.75 0q-0.8125 0 -0.8125 1.265625l0.03125 0.59375l0 1.0zm-0.046875 1.484375l-0.03125 2.140625l-0.03125 0.828125l4.640625 0l0 -2.96875l-4.578125 0zm11.078125 2.96875l0 -2.96875l-4.90625 0l0 2.96875l4.90625 0zm0 -4.453125l0 -2.09375q-0.015625 -0.75 -0.765625 -0.765625l-4.140625 0l0 2.859375l4.90625 0zm19.203125 10.1875q-0.921875 0.1875 -5.203125 0.71875q-4.265625 0.53125 -4.671875 0.53125q-0.796875 0 -0.796875 -0.890625q0 -0.796875 1.421875 -0.875l0.671875 -0.03125q1.25 -2.703125 2.09375 -5.3125l-3.28125 0q-0.953125 0 -0.953125 -0.78125q0 -0.796875 0.953125 -0.796875l4.453125 0l0 -3.125l-3.578125 0q-0.953125 0 -0.953125 -0.78125q0 -0.796875 0.953125 -0.796875l3.578125 0l0 -2.171875q0 -0.921875 0.796875 -0.921875q0.8125 0 0.8125 0.921875l0 2.171875l4.203125 0q0.953125 0 0.953125 0.796875q0 0.78125 -0.953125 0.78125l-4.203125 0l0 3.125l5.046875 0q0.984375 0 0.984375 0.796875q0 0.78125 -0.984375 0.78125l-6.046875 0l-0.015625 0.0625q-0.78125 2.171875 -2.09375 4.90625l-0.09375 0.21875q4.78125 -0.453125 6.109375 -0.640625l-1.15625 -1.765625q-0.453125 -0.609375 -0.453125 -0.875q0 -0.6875 0.765625 -0.6875q0.546875 0 1.125 0.828125q2.84375 4.0625 2.84375 4.703125q0 0.796875 -0.890625 0.796875q-0.5625 0 -1.046875 -0.984375l-0.390625 -0.703125zm-13.625 -10.078125q0.265625 0 1.09375 0.375l0.671875 0.296875q1.03125 0.4375 1.03125 1.078125q0 0.90625 -0.796875 0.90625q-0.21875 0 -1.203125 -0.484375l-0.703125 -0.3125q-0.953125 -0.375 -0.953125 -0.984375q0 -0.875 0.859375 -0.875zm0.921875 -4.703125q0.296875 0 1.5 0.625q1.21875 0.625 1.21875 1.21875q0 0.859375 -0.859375 0.859375q-0.1875 0 -2.140625 -1.0625q-0.59375 -0.3125 -0.59375 -0.796875q0 -0.84375 0.875 -0.84375zm1.28125 9.46875q0.84375 0 0.84375 0.703125q0 0.28125 -0.890625 2.671875q-0.875 2.390625 -1.296875 3.078125q-0.265625 0.421875 -0.75 0.421875q-0.890625 0 -0.890625 -0.828125q0 -0.28125 0.5 -1.265625q0.75 -1.703125 1.640625 -4.046875q0.25 -0.734375 0.84375 -0.734375z" fill-rule="nonzero"/><path fill="#49352a" d="m300.26706 406.23676q0.828125 0 1.421875 0.609375q0.609375 0.609375 0.609375 1.453125q0 0.90625 -0.6875 1.53125q-0.59375 0.515625 -1.375 0.515625q-0.90625 0 -1.53125 -0.671875q-0.53125 -0.59375 -0.53125 -1.40625q0 -0.8125 0.609375 -1.421875q0.609375 -0.609375 1.484375 -0.609375z" fill-rule="nonzero"/><path fill="#49352a" d="m321.6108 405.15863q-0.21875 0.875 -0.375 2.40625q-0.140625 1.53125 -0.4375 3.28125l3.421875 0q1.3125 0 2.78125 -0.078125l0 1.390625q-1.53125 -0.078125 -2.84375 -0.078125l-3.71875 0q-0.65625 1.453125 -1.96875 2.546875q-1.3125 1.09375 -3.0625 1.71875q-1.75 0.625 -3.125 0.984375q-0.296875 -0.875 -1.25 -1.390625q2.125 -0.21875 4.515625 -1.203125q2.40625 -0.984375 3.359375 -2.65625l-5.171875 0q-1.3125 0 -2.921875 0.078125l0 -1.390625q1.6875 0.078125 2.921875 0.078125l5.6875 0q0.21875 -1.234375 0.328125 -2.65625q0.109375 -1.421875 0.03125 -3.46875q0.875 0.296875 1.828125 0.4375zm-2.5625 -5.09375q0.59375 1.15625 1.03125 2.546875l6.328125 0q-0.0625 0.796875 -0.0625 1.59375q0 0.734375 0.0625 1.609375l-1.671875 0l0 -2.046875l-11.578125 0l0 2.1875l-1.609375 0q0.078125 -0.875 0.078125 -1.671875q0 -0.875 -0.078125 -1.671875l6.703125 0q-0.21875 -0.875 -0.796875 -2.046875q0.578125 -0.21875 1.59375 -0.5zm2.1875 12.890625q1.609375 0.875 3.0625 1.640625q1.453125 0.765625 2.546875 1.421875q-0.5 0.578125 -1.09375 1.234375q-1.3125 -0.9375 -2.84375 -1.78125q-1.515625 -0.84375 -2.609375 -1.28125q0.578125 -0.71875 0.9375 -1.234375zm-8.234375 -5.609375q1.25 0.578125 3.421875 2.046875q-0.28125 0.4375 -0.875 1.15625q-2.03125 -1.53125 -3.265625 -2.03125q0.4375 -0.4375 0.71875 -1.171875zm5.765625 -0.21875q-0.515625 0.578125 -0.875 1.171875q-2.34375 -1.6875 -3.4375 -2.046875q0.375 -0.515625 0.8125 -1.171875l3.5 2.046875zm16.75 -6.046875q-0.21875 0.578125 -0.734375 2.328125q-0.5 1.75 -1.078125 3.5q0.9375 1.453125 1.265625 2.484375q0.328125 1.015625 0.140625 1.859375q-0.171875 0.828125 -1.015625 1.453125q-0.828125 0.609375 -1.921875 0.765625q-0.359375 -1.171875 -0.65625 -1.6875q1.59375 0 1.921875 -0.546875q0.328125 -0.546875 0.140625 -1.296875q-0.171875 -0.765625 -0.5 -1.5q-0.328125 -0.734375 -0.90625 -1.453125q0.359375 -1.03125 0.71875 -2.265625q0.375 -1.234375 0.734375 -2.40625l-2.40625 0l0 14.578125l-1.53125 0q0.078125 -2.046875 0.078125 -4.015625l0 -8.671875q0 -1.59375 -0.078125 -3.125l5.828125 0zm8.015625 4.65625q1.171875 0 2.34375 -0.0625l0 1.375q-0.953125 -0.0625 -2.125 -0.0625l-2.390625 0l0 8.15625q0 1.171875 -0.8125 1.34375q-0.796875 0.1875 -2.1875 0.40625q-0.0625 -0.875 -0.578125 -1.75q1.453125 0 1.78125 -0.0625q0.328125 -0.078125 0.328125 -0.515625l0 -7.578125l-1.8125 0q-1.609375 0 -2.625 0.0625l0 -1.375q1.59375 0.0625 2.625 0.0625l5.453125 0zm-0.796875 -4.296875q1.171875 0 2.046875 -0.140625l0 1.375q-0.875 -0.0625 -2.046875 -0.0625l-3.859375 0q-1.234375 0 -2.1875 0.0625l0 -1.375q0.875 0.140625 2.328125 0.140625l3.71875 0zm-8.234375 13.34375q0.875 -1.46875 1.484375 -2.875q0.625 -1.421875 1.140625 -2.890625q0.578125 0.21875 1.53125 0.65625q-0.734375 1.3125 -1.359375 2.78125q-0.609375 1.453125 -1.34375 2.984375q-0.578125 -0.296875 -1.453125 -0.65625zm9.109375 -5.828125q1.828125 3.5625 2.703125 5.390625q-0.734375 0.28125 -1.53125 0.71875q-1.09375 -2.6875 -2.546875 -5.3125q0.421875 -0.21875 1.375 -0.796875zm13.40625 -7.953125q-0.359375 0.796875 -0.578125 1.640625q-0.21875 0.84375 -0.578125 2.296875l5.828125 0q0.71875 0 2.1875 -0.078125l0 1.390625q-1.46875 -0.078125 -2.1875 -0.078125l-6.125 0q-0.4375 1.09375 -0.953125 2.1875l7.734375 0q-1.390625 3.359375 -3.859375 5.609375q1.96875 1.390625 5.75 1.828125q-0.515625 0.578125 -0.875 1.453125q-1.453125 -0.28125 -2.984375 -0.828125q-1.53125 -0.546875 -2.984375 -1.578125q-1.171875 0.734375 -2.859375 1.421875q-1.671875 0.703125 -3.40625 1.140625q-0.15625 -0.734375 -0.734375 -1.390625q1.59375 -0.21875 3.203125 -0.765625q1.609375 -0.546875 2.84375 -1.34375q-1.234375 -1.25 -2.765625 -3.578125q-0.8125 1.3125 -2.046875 2.5625q-1.234375 1.234375 -2.6875 2.25q-0.296875 -0.515625 -1.171875 -1.09375q1.09375 -0.578125 2.140625 -1.53125q1.0625 -0.953125 2.21875 -2.515625q1.171875 -1.5625 1.984375 -3.828125q-1.90625 0 -2.921875 0.078125q-1.015625 0.078125 -1.53125 0.296875q-0.21875 -0.65625 -0.578125 -1.390625q0.734375 -0.140625 1.0625 -1.09375q0.328125 -0.953125 0.6875 -2.90625q0.578125 0.28125 1.59375 0.578125q-0.359375 0.71875 -0.65625 1.484375q-0.28125 0.765625 -0.640625 1.71875l3.34375 0q0.578125 -2.328125 0.875 -4.4375q0.796875 0.4375 1.671875 0.5zm-2.328125 8.53125q1.015625 1.8125 2.84375 3.640625q1.609375 -1.3125 2.84375 -3.640625l-5.6875 0zm5.03125 -8.96875q1.234375 1.390625 2.46875 2.84375q-0.5 0.296875 -1.234375 0.953125q-1.15625 -1.6875 -2.25 -2.84375q0.5 -0.359375 1.015625 -0.953125z" fill-rule="nonzero"/><path fill="#49352a" d="m379.39206 402.86176l-0.578125 2.734375l3.765625 0q0.875 0 0.875 0.734375q0 0.71875 -0.875 0.71875l-15.40625 0q-0.875 0 -0.875 -0.71875q0 -0.734375 0.875 -0.734375l3.609375 0q-0.171875 -1.4375 -0.484375 -2.734375l-2.109375 0q-0.859375 0 -0.859375 -0.703125q0 -0.703125 0.859375 -0.703125l5.703125 0l0 -0.6875q0 -1.078125 0.890625 -1.078125q0.890625 0 0.890625 1.078125l0 0.6875l5.90625 0q0.875 0 0.875 0.703125q0 0.703125 -0.875 0.703125l-2.1875 0zm-1.625 0l-5.890625 0q0.296875 1.34375 0.484375 2.734375l4.890625 0q0.34375 -1.328125 0.515625 -2.734375zm1.859375 13.359375l-9.484375 0q-1.875 0.109375 -1.765625 -1.765625l0 -4.4375q-0.109375 -1.890625 1.765625 -1.765625l9.484375 0q1.875 -0.125 1.765625 1.765625l0 4.4375q0.109375 1.890625 -1.765625 1.765625zm0.15625 -4.671875l0 -1.171875q0 -0.765625 -0.765625 -0.765625l-8.265625 0q-0.75 0 -0.75 0.765625l0 1.171875l9.78125 0zm0 1.3125l-9.78125 0l0 1.25q0 0.765625 0.75 0.765625l8.265625 0q0.765625 0 0.765625 -0.765625l0 -1.25zm6.71875 -0.796875q1.40625 0 1.40625 1.65625q0 1.234375 -0.828125 2.1875q-0.828125 0.953125 -1.328125 0.953125q-0.4375 0 -0.4375 -0.46875q0 -0.1875 0.28125 -0.375q1.140625 -0.78125 1.140625 -1.359375q0 -0.140625 -0.09375 -0.140625l-0.109375 0.03125l-0.109375 0.015625q-1.234375 0 -1.234375 -1.25q0 -1.25 1.3125 -1.25zm22.65625 2.515625l3.890625 -0.234375l3.34375 -0.3125l-1.234375 -1.28125q-0.328125 -0.328125 -0.328125 -0.59375q0 -0.640625 0.765625 -0.640625q0.46875 0 1.5 0.984375q3.0 2.90625 3.0 3.5q0 0.78125 -0.90625 0.78125q-0.515625 0 -1.0625 -0.734375l-0.59375 -0.734375l-0.40625 0.03125l-4.640625 0.5l-7.0 0.546875q-0.96875 0 -0.96875 -0.875q0 -0.796875 1.15625 -0.796875l1.5 -0.046875l0.203125 -0.015625l0.15625 -0.25q0.890625 -1.546875 1.59375 -3.296875l0.09375 -0.265625l-4.375 0q-0.921875 0 -0.921875 -0.765625q0 -0.765625 0.921875 -0.765625l14.6875 0q0.921875 0 0.921875 0.765625q0 0.765625 -0.921875 0.765625l-8.375 0q-1.640625 3.125 -2.0 3.734375zm3.796875 -13.859375l0.03125 0.046875q3.46875 3.28125 6.953125 4.5625q0.828125 0.296875 0.828125 0.890625q0 0.34375 -0.28125 0.640625q-0.265625 0.296875 -0.59375 0.296875q-1.0 0 -3.515625 -1.671875q-2.515625 -1.671875 -4.3125 -3.640625q-1.40625 1.734375 -4.0625 3.640625q-2.640625 1.890625 -3.59375 1.890625q-0.796875 0 -0.796875 -0.890625q0 -0.484375 1.25 -1.078125q3.84375 -1.890625 5.984375 -4.6875q0.8125 -1.03125 1.359375 -1.03125q0.875 0 0.875 0.671875q0 0.15625 -0.125 0.359375zm-4.90625 6.53125q-0.921875 0 -0.921875 -0.734375q0 -0.734375 0.875 -0.734375l8.234375 0q0.90625 0 0.90625 0.734375q0 0.734375 -0.90625 0.734375l-8.1875 0z" fill-rule="nonzero"/><path fill="#49352a" d="m437.32956 400.72113q0.140625 0.640625 0.734375 1.453125q-0.875 0.0625 -1.859375 0.171875q-0.984375 0.109375 -2.078125 0.328125l0 3.0625q4.0 0 5.171875 -0.0625l0 1.3125q-0.953125 -0.078125 -5.171875 -0.078125l0 3.140625l3.640625 0q-0.078125 0.859375 -0.078125 3.34375q0 2.40625 0.078125 3.359375l-1.453125 0l0 -1.171875l-5.6875 0l0 1.390625l-1.453125 0q0.0625 -1.171875 0.0625 -3.796875q0 -2.6875 -0.0625 -3.125l3.5625 0l0 -3.140625q-3.5 0 -5.09375 0.078125l0 -1.3125q1.59375 0.0625 5.09375 0.0625l0 -2.84375q-2.6875 0.296875 -3.640625 0.515625q-0.21875 -0.65625 -0.515625 -1.390625q1.46875 -0.0625 4.125 -0.390625q2.65625 -0.328125 4.625 -0.90625zm-9.25 10.703125q0.21875 0.578125 0.796875 1.171875q-0.796875 0.875 -1.609375 1.71875q-0.796875 0.828125 -1.8125 2.0q-0.578125 -0.734375 -1.234375 -1.171875q0.5 -0.578125 0.5 -1.53125l0 -6.265625q-1.015625 0 -2.328125 0.078125l0 -1.390625l3.796875 0q-0.078125 1.3125 -0.078125 2.921875l0 4.734375q0.65625 -0.59375 1.96875 -2.265625zm8.234375 2.984375l0 -3.28125l-5.6875 0l0 3.28125l5.6875 0zm-11.15625 -14.0625q0.4375 0.515625 2.1875 2.703125q-0.515625 0.4375 -1.15625 1.015625q-1.25 -1.828125 -2.125 -2.765625q0.59375 -0.359375 1.09375 -0.953125z" fill-rule="nonzero"/><path fill="#49352a" d="m450.62643 409.31488l0 -2.75l-4.421875 0q-0.9375 0 -0.9375 -0.75q0 -0.75 0.9375 -0.75l4.421875 0l0 -2.765625l-0.671875 0.09375q-1.875 0.234375 -3.0 0.234375q-0.84375 0 -0.84375 -0.875q0 -0.390625 0.234375 -0.5625q0.234375 -0.1875 1.21875 -0.203125q5.25 -0.140625 7.390625 -1.0q0.578125 -0.203125 0.890625 -0.203125q0.8125 0 0.8125 0.84375q0 0.53125 -1.0 0.859375q-0.984375 0.3125 -3.421875 0.625l0 2.953125l4.96875 0q0.890625 0 0.890625 0.75q0 0.75 -0.890625 0.75l-4.96875 0l0 2.75l2.671875 0q0.921875 0 1.421875 0.46875q0.515625 0.53125 0.484375 1.5l0 2.96875q0.03125 0.96875 -0.484375 1.484375q-0.546875 0.515625 -1.484375 0.484375l-6.59375 0q-2.125 0.140625 -1.96875 -1.96875l0 -2.96875q-0.15625 -2.109375 1.96875 -1.96875l2.375 0zm3.625 5.421875q0.953125 0.03125 0.953125 -0.90625l0 -2.09375q0.015625 -0.953125 -0.90625 -0.953125l-5.53125 0q-0.9375 -0.015625 -0.9375 0.921875l0 2.09375q-0.015625 0.9375 0.90625 0.9375l5.515625 0zm-12.078125 -9.84375q0.34375 0 1.875 0.703125q0.75 0.34375 0.75 0.90625q0 0.875 -0.859375 0.875q-0.234375 0 -0.671875 -0.21875l-0.96875 -0.453125q-0.953125 -0.421875 -0.953125 -0.984375q0 -0.828125 0.828125 -0.828125zm2.0625 4.78125q0.8125 0 0.8125 0.8125q0 0.5 -0.9375 2.921875q-0.9375 2.421875 -1.125 2.71875q-0.265625 0.328125 -0.703125 0.328125q-0.890625 0 -0.890625 -0.90625q0 -0.21875 0.171875 -0.53125q0.828125 -1.703125 1.71875 -4.328125q0.359375 -1.015625 0.953125 -1.015625zm-1.140625 -9.5625q0.375 0 1.46875 0.578125q1.109375 0.578125 1.109375 1.15625q0 0.859375 -0.875 0.859375q-0.234375 0 -0.671875 -0.265625l-1.0 -0.5625q-0.890625 -0.4375 -0.890625 -0.921875q0 -0.84375 0.859375 -0.84375z" fill-rule="nonzero"/><path fill="#49352a" d="m470.8608 400.34613q0.875 0.21875 1.671875 0.21875q-0.140625 0.734375 -0.1875 1.640625q-0.03125 0.90625 -0.03125 2.21875l4.078125 0q-0.078125 0.953125 -0.140625 2.125l-0.375 8.296875q-0.21875 1.46875 -1.203125 1.796875q-0.984375 0.328125 -2.21875 0.46875q-0.21875 -0.875 -0.71875 -1.609375q1.59375 0.078125 2.171875 -0.171875q0.59375 -0.265625 0.59375 -0.984375l0.4375 -8.671875l-2.625 0q-0.140625 3.203125 -0.46875 4.875q-0.328125 1.671875 -1.03125 3.09375q-0.6875 1.421875 -2.796875 3.6875q-0.734375 -0.734375 -1.3125 -0.953125q1.375 -1.09375 2.25 -2.296875q0.875 -1.203125 1.234375 -2.46875q0.375 -1.28125 0.515625 -2.65625q0.15625 -1.390625 0.21875 -3.28125l-1.234375 0q-0.796875 0 -1.890625 0.0625l0 -1.375q1.09375 0.0625 2.03125 0.0625l1.09375 0l0 -2.03125q0 -1.03125 -0.0625 -2.046875zm-11.234375 6.203125q1.09375 0.0625 2.625 0.0625l2.765625 0q1.3125 0 3.0 -0.0625l0 1.3125q-1.6875 -0.078125 -2.921875 -0.078125l-0.796875 0q-0.4375 1.171875 -0.984375 2.484375q-0.546875 1.296875 -1.28125 2.609375q2.84375 -0.28125 4.296875 -0.578125q-0.359375 -0.875 -1.15625 -2.1875q0.796875 -0.4375 1.15625 -0.71875q0.734375 1.296875 1.234375 2.21875q0.515625 0.90625 1.109375 2.21875q-0.59375 0.359375 -1.3125 0.734375q-0.296875 -0.65625 -0.515625 -1.09375q-2.328125 0.359375 -3.75 0.578125q-1.421875 0.21875 -2.4375 0.578125q-0.296875 -0.71875 -0.734375 -1.375q0.953125 -0.59375 1.71875 -2.328125q0.765625 -1.75 1.125 -3.140625l-0.515625 0q-1.53125 0 -2.625 0.078125l0 -1.3125zm5.03125 -4.09375q1.234375 0 2.765625 -0.0625l0 1.375q-1.53125 -0.0625 -2.765625 -0.0625l-1.75 0q-1.15625 0 -2.25 0.0625l0 -1.375q1.015625 0.0625 2.1875 0.0625l1.8125 0z" fill-rule="nonzero"/><path fill="#6d9eeb" d="m32.760185 673.7395l0 0c0 -42.565063 67.58738 -77.07086 150.96063 -77.07086l0 0c83.373245 0 150.96065 34.5058 150.96065 77.07086l0 0c0 42.565063 -67.5874 77.07086 -150.96065 77.07086l0 0c-83.373245 0 -150.96063 -34.5058 -150.96063 -77.07086z" fill-rule="evenodd"/><path stroke="#6d9eeb" stroke-width="1.0" stroke-linejoin="round" stroke-linecap="butt" d="m32.760185 673.7395l0 0c0 -42.565063 67.58738 -77.07086 150.96063 -77.07086l0 0c83.373245 0 150.96065 34.5058 150.96065 77.07086l0 0c0 42.565063 -67.5874 77.07086 -150.96065 77.07086l0 0c-83.373245 0 -150.96063 -34.5058 -150.96063 -77.07086z" fill-rule="evenodd"/><path fill="#000000" fill-opacity="0.0" d="m52.522316 598.5066l157.16534 0l0 39.149597l-157.16534 0z" fill-rule="evenodd"/><path fill="#49352a" d="m73.88169 611.4216l7.046875 0q2.34375 -0.125 2.203125 2.203125l0 4.515625q0.140625 2.296875 -2.203125 2.1875l-7.046875 0q-2.34375 0.109375 -2.203125 -2.1875l0 -4.515625q-0.140625 -2.328125 2.203125 -2.203125zm-0.421875 5.21875l0 1.265625q-0.03125 0.84375 0.84375 0.828125l6.09375 0q0.859375 0.015625 0.84375 -0.828125l0 -1.265625l-7.78125 0zm0 -1.546875l7.78125 0l0 -1.1875q0.015625 -0.875 -0.84375 -0.84375l-6.09375 0q-0.875 -0.03125 -0.84375 0.84375l0 1.1875zm-0.453125 6.875l8.84375 0q2.34375 -0.125 2.203125 2.203125l0 5.171875q0.140625 2.328125 -2.203125 2.21875l-8.84375 0q-2.3125 0.109375 -2.171875 -2.21875l0 -5.171875q-0.140625 -2.328125 2.171875 -2.203125zm-0.390625 5.53125l0 1.5625q-0.03125 0.875 0.84375 0.84375l7.84375 0q0.875 0.03125 0.84375 -0.84375l0 -1.5625l-9.53125 0zm0 -1.59375l9.53125 0l0 -1.453125q0.03125 -0.875 -0.84375 -0.84375l-7.84375 0q-0.875 -0.03125 -0.84375 0.84375l0 1.453125zm-9.140625 -0.546875l0 -10.828125q-0.140625 -2.109375 2.015625 -2.015625l2.171875 0q2.1875 -0.09375 2.046875 2.015625l0 10.828125q0.140625 2.140625 -2.046875 2.015625l-2.171875 0q-2.15625 0.09375 -2.015625 -2.015625zm4.46875 -0.625l0 -9.5625q-0.015625 -0.75 -0.765625 -0.78125l-1.171875 0q-0.75 0.03125 -0.78125 0.78125l0 9.5625q0.03125 0.765625 0.78125 0.765625l1.171875 0q0.75 -0.015625 0.765625 -0.765625zm30.65625 0.765625l0 5.78125q0 1.1875 -1.078125 1.1875q-1.046875 0 -1.046875 -1.1875l0 -5.78125l-6.125 0q-2.828125 0.171875 -2.6875 -2.71875l0 -5.390625q-0.140625 -2.90625 2.6875 -2.71875l6.125 0l0 -3.09375q0 -1.1875 1.046875 -1.1875q1.078125 0 1.078125 1.1875l0 3.09375l6.359375 0q2.828125 -0.15625 2.6875 2.71875l0 5.390625q0.140625 2.890625 -2.6875 2.71875l-6.359375 0zm0 -8.765625l0 6.703125l5.609375 0q1.3125 0 1.3125 -1.3125l0 -4.078125q0 -1.3125 -1.3125 -1.3125l-5.609375 0zm-2.125 0l-5.375 0q-1.3125 0 -1.3125 1.3125l0 4.078125q0 1.3125 1.3125 1.3125l5.375 0l0 -6.703125zm31.515625 -0.609375q-1.40625 6.421875 -4.84375 10.125q3.234375 2.375 8.031258 3.421875q1.390625 0.3125 1.390625 1.25q0 1.265625 -1.125 1.265625q-0.359375 0 -0.921875 -0.1875q-5.5000076 -1.5 -9.000008 -4.21875q-2.15625 1.84375 -5.234375 3.171875q-3.078125 1.328125 -4.671875 1.328125q-1.125 0 -1.125 -1.1875q0 -0.921875 1.515625 -1.234375q4.6875 -0.953125 7.90625 -3.4375q-2.328125 -2.15625 -3.59375 -4.859375q-1.265625 -2.71875 -1.265625 -3.609375q0 -0.90625 1.109375 -0.90625q0.84375 0 1.1875 1.03125q1.15625 3.984375 4.171875 6.890625q3.234375 -3.46875 4.109375 -8.84375l-13.546875 0q-1.3125 0 -1.3125 -1.046875q0 -1.0625 1.3125 -1.0625l8.203125 0l0 -2.25q0 -1.40625 1.125 -1.40625q1.140625 0 1.140625 1.40625l0 2.25l8.421883 0q1.3125 0 1.3125 1.0625q0 1.046875 -1.3125 1.046875l-2.9843826 0zm23.046883 5.109375q1.171875 5.84375 4.78125 8.671875q0.75 0.59375 0.75 1.1875q0 1.125 -1.015625 1.125q-0.859375 0 -2.53125 -2.140625q-1.65625 -2.140625 -2.5 -5.09375q-0.609375 3.328125 -2.15625 5.34375q-1.546875 2.0 -2.46875 2.0q-0.953125 0 -0.953125 -0.9375q0 -0.484375 0.5625 -0.9375q2.25 -1.765625 3.09375 -4.859375q0.84375 -3.09375 0.84375 -7.09375l-0.03125 -0.40625l0 -0.28125q0 -0.90625 0.921875 -0.90625q0.890625 0 0.890625 0.890625l-0.03125 0.578125l-0.046875 1.078125l-0.109375 1.78125zm-1.875 -6.71875l5.359375 0q1.859375 0 1.859375 1.3125q0 0.390625 -0.421875 1.359375l-0.5625 1.28125q-1.21875 3.0 -2.0 3.0q-0.90625 0 -0.90625 -0.796875q0 -0.328125 0.28125 -0.84375l0.75 -1.75l0.234375 -0.59375l0.328125 -0.90625q0 -0.21875 -0.453125 -0.21875l-5.125 0l-0.984375 2.296875q-0.59375 1.34375 -1.21875 1.34375q-0.921875 0 -0.921875 -0.84375q0 -0.328125 0.3125 -0.890625q1.59375 -2.65625 2.390625 -6.703125q0.234375 -1.171875 1.046875 -1.171875q0.984375 0 0.984375 0.8125q0 0.421875 -0.953125 3.3125zm-4.25 -1.359375l0 5.484375q0.09375 2.125 -2.171875 2.171875l-0.609375 0q-0.875 0 -0.875 -0.84375q0 -0.84375 0.78125 -0.84375l0.515625 0q0.578125 -0.015625 0.609375 -0.625l0 -5.34375l-7.671875 0q-0.953125 0 -0.953125 -0.84375q0 -0.828125 0.953125 -0.828125l10.53125 0q0.890625 0 0.890625 0.84375q0 0.828125 -0.890625 0.828125l-1.109375 0zm0 9.75l0 7.046875q0.140625 2.453125 -2.296875 2.28125l-1.265625 0q-0.84375 0 -0.84375 -0.890625q0 -0.921875 0.84375 -0.921875l0.9375 0q0.84375 0 0.875 -0.84375l0 -6.671875l-7.71875 0q-0.953125 0 -0.953125 -0.84375q0 -0.828125 0.953125 -0.828125l10.546875 0q0.890625 0 0.890625 0.84375q0 0.828125 -0.890625 0.828125l-1.078125 0zm-7.75 -8.703125l2.921875 0q1.828125 -0.109375 1.6875 1.6875l0 1.59375q0.140625 1.828125 -1.6875 1.6875l-2.921875 0q-1.78125 0.125 -1.671875 -1.6875l0 -1.59375q-0.109375 -1.828125 1.671875 -1.6875zm2.53125 3.609375q0.5625 0 0.5625 -0.578125l0 -1.109375q0 -0.5625 -0.5625 -0.5625l-2.046875 0q-0.578125 0 -0.5625 0.5625l0 1.109375q-0.015625 0.578125 0.5625 0.578125l2.046875 0zm-2.53125 6.28125l2.921875 0q1.828125 -0.109375 1.6875 1.6875l0 2.15625q0.140625 1.828125 -1.6875 1.6875l-2.921875 0q-1.78125 0.125 -1.671875 -1.6875l0 -2.15625q-0.109375 -1.828125 1.671875 -1.6875zm3.09375 2.0q0 -0.5625 -0.5625 -0.5625l-2.046875 0q-0.578125 0 -0.5625 0.5625l0 1.546875q-0.015625 0.5625 0.5625 0.5625l2.046875 0q0.5625 0 0.5625 -0.5625l0 -1.546875zm25.171875 -11.53125l0 -3.0q0 -1.171875 0.984375 -1.171875q0.984375 0 0.984375 1.171875l0 3.0l3.953125 0l0 -3.0q0 -1.171875 0.984375 -1.171875q0.984375 0 0.984375 1.171875l0 3.0l3.59375 0q1.28125 -0.046875 1.984375 0.625q0.6875 0.703125 0.640625 2.0l0 11.828125q0.046875 1.296875 -0.640625 2.0q-0.71875 0.6875 -1.984375 0.640625l-14.703125 0q-1.28125 0.046875 -1.984375 -0.640625q-0.6875 -0.734375 -0.640625 -2.0l0 -11.828125q-0.046875 -1.296875 0.640625 -2.0q0.71875 -0.671875 1.984375 -0.625l3.21875 0zm-3.78125 9.390625l0 4.546875q0 1.171875 1.15625 1.15625l2.625 0l0 -5.703125l-3.78125 0zm5.75 5.703125l3.953125 0l0 -5.703125l-3.953125 0l0 5.703125zm5.921875 0l3.0 0q1.15625 0 1.15625 -1.15625l0 -4.546875l-4.15625 0l0 5.703125zm-11.671875 -7.671875l3.78125 0l0 -5.4375l-2.625 0q-1.15625 -0.015625 -1.15625 1.15625l0 4.28125zm5.75 0l3.953125 0l0 -5.4375l-3.953125 0l0 5.4375zm5.921875 0l4.15625 0l0 -4.28125q0.015625 -1.15625 -1.109375 -1.15625l-3.046875 0l0 5.4375z" fill-rule="nonzero"/><path fill="#000000" fill-opacity="0.0" d="m79.36483 637.6562l288.28345 0l0 95.1181l-288.28345 0z" fill-rule="evenodd"/><path fill="#49352a" d="m105.61483 648.9043q0.65625 0 0.65625 0.640625q0 0.328125 -0.578125 0.78125q-1.5 1.171875 -2.4375 3.109375q-0.921875 1.921875 -0.921875 4.09375q0 4.375 3.484375 7.234375q0.453125 0.375 0.453125 0.65625q0 0.65625 -0.640625 0.65625q-0.953125 0 -2.78125 -2.625q-1.828125 -2.640625 -1.828125 -5.984375q0 -3.515625 2.125 -6.359375q1.640625 -2.203125 2.46875 -2.203125zm6.25 0.640625l9.046875 0q1.046875 -0.03125 1.65625 0.53125q0.5625 0.578125 0.515625 1.65625l0 11.5q0.046875 1.078125 -0.515625 1.65625q-0.609375 0.5625 -1.65625 0.53125l-9.046875 0q-1.078125 0.03125 -1.65625 -0.53125q-0.5625 -0.578125 -0.53125 -1.65625l0 -11.5q-0.03125 -1.078125 0.53125 -1.65625q0.609375 -0.5625 1.65625 -0.53125zm-0.484375 10.84375l0 2.5q-0.015625 0.953125 0.921875 0.953125l8.125 0q0.96875 0.03125 0.96875 -0.921875l0 -2.53125l-10.015625 0zm0 -1.546875l10.015625 0l0 -3.125l-10.015625 0l0 3.125zm0 -4.671875l10.015625 0l0 -2.09375q0.015625 -0.96875 -0.921875 -0.96875l-8.140625 0q-0.953125 -0.015625 -0.953125 0.9375l0 2.125z" fill-rule="nonzero"/><path fill="#49352a" d="m129.39607 651.74805q0 -1.171875 -0.078125 -2.25l1.453125 0q-0.0625 1.015625 -0.0625 2.25l0 1.75q1.15625 0 2.46875 -0.078125l0 1.390625q-1.3125 -0.078125 -2.46875 -0.078125l0 2.484375q0.5 -0.359375 1.015625 -0.796875q0.953125 1.53125 1.671875 2.984375q-0.796875 0.359375 -1.375 0.796875q-0.4375 -1.453125 -1.3125 -2.6875l0 5.671875q0 1.53125 0.0625 3.0625l-1.453125 0q0.078125 -1.59375 0.078125 -3.0625l0 -4.734375q-0.734375 2.046875 -2.2656174 3.9375q-0.4375 -0.578125 -1.09375 -1.09375q1.25 -1.234375 2.0156174 -3.09375q0.765625 -1.859375 0.984375 -3.46875q-1.3906174 0 -2.4062424 0.15625l0 -1.46875q1.3749924 0.078125 2.7656174 0.078125l0 -1.75zm11.359375 3.71875q1.46875 0 2.5625 -0.078125l0 1.390625q-1.09375 -0.078125 -2.265625 -0.078125l-2.25 0l0 7.359375q0 1.171875 -0.65625 1.53125q-0.65625 0.375 -2.34375 0.59375q-0.140625 -0.875 -0.578125 -1.6875q1.453125 0 1.8125 -0.109375q0.375 -0.109375 0.375 -0.828125l0 -6.859375l-1.828125 0q-1.8125 0 -2.625 0.15625l0 -1.46875q0.953125 0.078125 2.625 0.078125l5.171875 0zm-0.796875 -4.8125q1.53125 0 2.484375 -0.078125l0 1.46875q-1.390625 -0.15625 -2.921875 -0.15625l-3.5625 0q-1.171875 0 -2.265625 0.15625l0 -1.46875q1.015625 0.078125 2.265625 0.078125l4.0 0zm1.09375 8.015625q1.609375 2.484375 2.703125 4.453125q-0.8125 0.359375 -1.609375 0.875q-0.796875 -2.125 -2.40625 -4.453125q0.734375 -0.359375 1.3125 -0.875zm-4.875 0.734375q-0.296875 0.4375 -1.109375 2.328125q-0.796875 1.890625 -1.234375 2.703125q-0.65625 -0.375 -1.453125 -0.65625q0.953125 -1.46875 1.421875 -2.671875q0.46875 -1.203125 0.765625 -2.359375q0.796875 0.359375 1.609375 0.65625z" fill-rule="nonzero"/><path fill="#49352a" d="m153.69295 660.43555q0.53125 0 0.90625 0.40625q0.390625 0.40625 0.390625 0.90625q0 0.5625 -0.40625 0.953125q-0.390625 0.375 -0.921875 0.375q-0.546875 0 -0.9375 -0.390625q-0.375 -0.40625 -0.375 -0.9375q0 -0.53125 0.390625 -0.921875q0.390625 -0.390625 0.953125 -0.390625zm0 -8.578125q0.515625 0 0.90625 0.390625q0.390625 0.390625 0.390625 0.9375q0 0.546875 -0.40625 0.9375q-0.390625 0.375 -0.921875 0.375q-0.546875 0 -0.9375 -0.390625q-0.375 -0.40625 -0.375 -0.9375q0 -0.53125 0.390625 -0.921875q0.390625 -0.390625 0.953125 -0.390625zm20.203125 -0.546875l-2.421875 0q-1.0625 0 -1.0625 -0.875q0 -0.859375 1.0625 -0.859375l2.953125 0q2.015625 -0.078125 1.921875 2.125q0.109375 4.40625 1.015625 7.078125q0.90625 2.65625 2.671875 4.484375q0.8125 0.828125 0.8125 1.28125q0 0.4375 -0.34375 0.734375q-0.28125 0.265625 -0.625 0.265625q-0.765625 0 -1.953125 -1.5625q-3.265625 -4.34375 -3.296875 -11.78125q0.078125 -0.921875 -0.734375 -0.890625zm-5.21875 1.078125q0.90625 0 0.90625 0.84375q0 0.796875 -0.46875 3.546875q-0.59375 3.40625 -2.09375 6.140625q-1.484375 2.71875 -2.3125 2.71875q-0.9375 0 -0.9375 -0.984375q0 -0.40625 0.421875 -0.875q1.34375 -1.546875 2.375 -4.375q1.03125 -2.84375 1.15625 -5.765625q0.0625 -1.25 0.953125 -1.25z" fill-rule="nonzero"/><path fill="#49352a" d="m193.89607 663.99805q-0.15625 -0.875 -0.734375 -1.75q1.453125 0 2.21875 -0.140625q0.765625 -0.15625 0.84375 -0.890625l0.140625 -3.921875l-6.1875 0l0 6.328125q0 1.3125 0.0625 2.703125l-1.671875 0q0.140625 -1.3125 0.140625 -2.703125l0 -6.328125l-1.59375 0q-2.40625 0 -3.859375 0.0625l0 -1.375q1.53125 0.0625 3.125 0.0625l11.65625 0q-0.21875 3.0625 -0.296875 4.96875q-0.0625 1.890625 -1.078125 2.359375q-1.015625 0.46875 -2.765625 0.625zm-5.03125 -10.9375q0 1.3125 0.0625 2.265625l-1.59375 0q0.0625 -1.09375 0.0625 -2.265625l-2.46875 0q-1.015625 0 -2.265625 0.140625l0 -1.453125q1.25 0.078125 2.265625 0.078125l2.46875 0q0 -1.390625 -0.0625 -2.328125l1.59375 0q-0.0625 0.9375 -0.0625 2.328125l3.859375 0q0 -1.453125 -0.078125 -2.328125l1.6875 0q-0.078125 0.875 -0.078125 2.328125l2.328125 0q1.390625 0 2.546875 -0.078125l0 1.390625q-1.15625 -0.078125 -2.546875 -0.078125l-2.328125 0q0 1.171875 0.078125 2.265625l-1.6875 0q0.078125 -1.171875 0.078125 -2.265625l-3.859375 0zm27.546875 -3.421875q-0.078125 1.3125 -0.078125 3.78125q0 2.484375 0.078125 3.5l-3.9375 0l0 1.46875q4.4375 0 5.3125 -0.078125l0 1.3125q-0.9375 -0.078125 -4.796875 -0.078125q1.15625 1.609375 2.53125 2.625q1.390625 1.015625 2.859375 1.53125q-0.515625 0.65625 -0.8125 1.53125q-1.890625 -0.796875 -3.125 -1.96875q-1.234375 -1.171875 -1.96875 -2.328125q0 4.078125 0.078125 5.6875l-1.46875 0q0.078125 -1.6875 0.078125 -5.46875q-0.734375 1.09375 -1.640625 2.078125q-0.90625 0.984375 -2.8125 2.21875q-0.359375 -0.65625 -1.015625 -1.234375q1.96875 -1.03125 2.984375 -2.15625q1.03125 -1.125 1.75 -2.515625q-3.421875 0 -4.375 0.078125l0 -1.3125q0.875 0.078125 5.109375 0.078125l0 -1.46875l-3.9375 0q0.078125 -1.59375 0.078125 -3.71875q0 -2.1875 -0.078125 -3.5625l9.1875 0zm-9.625 12.234375q-0.796875 0.953125 -1.390625 1.796875q-0.578125 0.828125 -1.234375 1.859375q-0.578125 -0.4375 -1.3125 -0.875q0.65625 -0.65625 0.65625 -1.3125l0 -7.0l-0.578125 0q-0.953125 0 -2.046875 0.078125l0 -1.390625q1.03125 0.078125 2.046875 0.078125l1.96875 0q-0.078125 1.453125 -0.078125 2.90625l0 4.078125q0.4375 -0.65625 0.953125 -1.375q0.4375 0.71875 1.015625 1.15625zm-2.984375 -12.234375q1.234375 1.75 1.8125 2.765625q-0.640625 0.296875 -1.375 0.875q-0.953125 -1.96875 -1.75 -2.765625q0.796875 -0.515625 1.3125 -0.875zm7.359375 6.046875l0 -1.890625l-2.484375 0l0 1.890625l2.484375 0zm3.78125 0l0 -1.890625l-2.46875 0l0 1.890625l2.46875 0zm-3.78125 -3.0625l0 -1.828125l-2.484375 0l0 1.828125l2.484375 0zm3.78125 0l0 -1.828125l-2.46875 0l0 1.828125l2.46875 0z" fill-rule="nonzero"/><path fill="#49352a" d="m230.9117 651.74805l1.359375 -0.46875l2.234375 -0.90625q0.296875 -0.15625 0.59375 -0.15625q0.78125 0 0.78125 0.765625q0 0.46875 -0.46875 0.71875q-0.46875 0.234375 -1.65625 0.59375q-1.171875 0.34375 -2.84375 0.75l0 1.609375q0.015625 0.609375 0.8125 0.671875l0.484375 0.03125l0.765625 0.015625q1.0625 0 1.59375 -0.109375q0.546875 -0.125 0.65625 -0.8125q0.09375 -0.71875 0.78125 -0.71875q0.859375 0 0.859375 0.75q0 1.671875 -1.140625 2.09375q-0.640625 0.234375 -3.046875 0.234375q-2.296875 0 -2.78125 -0.34375q-0.484375 -0.34375 -0.515625 -1.140625l0 -5.484375q0 -0.9375 0.765625 -0.9375q0.765625 0 0.765625 0.9375l0 1.90625zm-3.546875 2.203125l-5.15625 0.4375l-1.484375 0.109375q-0.96875 0 -0.96875 -0.765625q0 -0.75 1.578125 -0.75l0.296875 0l0.84375 -2.5625q0.3125 -1.140625 0.53125 -1.328125q0.234375 -0.1875 0.59375 -0.1875q0.8125 0 0.8125 0.703125q0 0.6875 -1.4375 3.34375l3.671875 -0.15625l-0.625 -0.90625q-0.390625 -0.5 -0.390625 -0.671875q0 -0.59375 0.703125 -0.59375q0.4375 0 1.5625 1.59375q1.140625 1.578125 1.140625 2.0625q0 0.703125 -0.734375 0.703125q-0.4375 0 -0.9375 -1.03125zm3.546875 6.109375q1.9375 -0.640625 3.609375 -1.390625q0.328125 -0.140625 0.59375 -0.140625q0.828125 0 0.828125 0.8125q0 0.484375 -0.4375 0.6875q-0.4375 0.203125 -1.765625 0.609375q-1.328125 0.40625 -2.828125 0.75l0 1.953125q0.015625 0.59375 0.8125 0.65625l0.484375 0.03125l0.765625 0.015625q1.0625 0 1.59375 -0.109375q0.546875 -0.125 0.65625 -0.796875q0.09375 -0.71875 0.78125 -0.71875q0.859375 0 0.859375 0.75q0 1.671875 -1.140625 2.09375q-0.640625 0.234375 -3.046875 0.234375q-2.296875 0 -2.78125 -0.34375q-0.484375 -0.34375 -0.515625 -1.140625l0 -5.84375q0 -0.9375 0.765625 -0.9375q0.765625 0 0.765625 0.9375l0 1.890625zm-8.515625 1.953125l0 3.265625q0 0.765625 -0.703125 0.765625q-0.734375 0 -0.734375 -0.765625l0 -8.5q-0.09375 -1.578125 1.5 -1.5l3.984375 0q1.609375 -0.078125 1.5 1.5l0 7.453125q0.109375 1.890625 -1.78125 1.765625l-0.828125 0q-0.796875 0 -0.796875 -0.734375q0 -0.734375 0.796875 -0.734375l0.5 0q0.65625 -0.03125 0.671875 -0.6875l0 -1.828125l-4.109375 0zm0 -1.203125l4.109375 0l0 -1.515625l-4.109375 0l0 1.515625zm0 -2.71875l4.109375 0l0 -0.9375q-0.015625 -0.578125 -0.59375 -0.59375l-2.921875 0q-0.5625 0.015625 -0.59375 0.59375l0 0.9375zm28.203125 -6.0625q0.796875 -1.28125 1.3125 -2.46875q0.296875 -0.640625 0.890625 -0.640625q0.859375 0 0.859375 0.71875q0 0.421875 -1.4375 2.390625l1.09375 0q2.171875 -0.171875 2.0 2.0l0 1.515625q0 0.890625 -0.796875 0.890625q-0.796875 0 -0.796875 -0.890625l0 -1.1875q0.015625 -0.890625 -0.875 -0.875l-11.5 0q-0.890625 -0.015625 -0.875 0.875l0 1.1875q0 0.890625 -0.8125 0.890625q-0.796875 0 -0.796875 -0.890625l0 -1.515625q-0.140625 -2.171875 2.015625 -2.0l9.71875 0zm-2.765625 7.734375l6.421875 0q0.921875 0 0.921875 0.765625q0 0.765625 -0.921875 0.765625l-6.421875 0l0 2.65625q0.03125 1.046875 -0.515625 1.609375q-0.578125 0.546875 -1.59375 0.515625l-1.234375 0q-0.984375 0 -0.984375 -0.828125q0 -0.8125 1.09375 -0.8125l0.890625 0q0.75 0.015625 0.71875 -0.734375l0 -2.40625l-6.296875 0q-0.9375 0 -0.9375 -0.765625q0 -0.765625 0.9375 -0.765625l6.296875 0l0 -0.59375q0 -1.046875 1.25 -1.484375q2.421875 -0.90625 2.421875 -1.140625q0 -0.078125 -0.109375 -0.078125l-7.796875 0q-0.859375 0 -0.859375 -0.6875q0 -0.71875 0.859375 -0.71875l9.90625 0q1.078125 0 1.078125 0.84375q0 0.703125 -4.0 2.40625q-0.90625 0.375 -1.015625 0.53125q-0.109375 0.140625 -0.109375 0.921875zm-6.53125 -10.796875q0.484375 0 0.875 0.59375l0.375 0.625q0.40625 0.59375 0.40625 0.890625q0 0.734375 -0.78125 0.734375q-0.53125 0 -0.84375 -0.609375l-0.640625 -1.09375q-0.1875 -0.265625 -0.1875 -0.453125q0 -0.6875 0.796875 -0.6875zm5.15625 -0.0625q0.484375 0 1.03125 0.921875q0.5625 0.90625 0.5625 1.25q0 0.6875 -0.8125 0.6875q-0.546875 0 -0.84375 -0.640625l-0.5625 -1.125q-0.140625 -0.234375 -0.140625 -0.453125q0 -0.640625 0.765625 -0.640625zm16.10939 14.890625l3.890625 -0.234375l3.34375 -0.3125l-1.234375 -1.28125q-0.328125 -0.328125 -0.328125 -0.59375q0 -0.640625 0.765625 -0.640625q0.46875 0 1.5 0.984375q3.0 2.90625 3.0 3.5q0 0.78125 -0.90625 0.78125q-0.515625 0 -1.0625 -0.734375l-0.59375 -0.734375l-0.40625 0.03125l-4.640625 0.5l-7.0 0.546875q-0.96875 0 -0.96875 -0.875q0 -0.796875 1.15625 -0.796875l1.5 -0.046875l0.203125 -0.015625l0.15625 -0.25q0.890625 -1.546875 1.59375 -3.296875l0.09375 -0.265625l-4.375 0q-0.921875 0 -0.921875 -0.765625q0 -0.765625 0.921875 -0.765625l14.6875 0q0.921875 0 0.921875 0.765625q0 0.765625 -0.921875 0.765625l-8.375 0q-1.640625 3.125 -2.0 3.734375zm3.796875 -13.859375l0.03125 0.046875q3.46875 3.28125 6.953125 4.5625q0.828125 0.296875 0.828125 0.890625q0 0.34375 -0.28125 0.640625q-0.265625 0.296875 -0.59375 0.296875q-1.0 0 -3.515625 -1.671875q-2.515625 -1.671875 -4.3125 -3.640625q-1.40625 1.734375 -4.0625 3.640625q-2.640625 1.890625 -3.59375 1.890625q-0.796875 0 -0.796875 -0.890625q0 -0.484375 1.25 -1.078125q3.84375 -1.890625 5.984375 -4.6875q0.8125 -1.03125 1.359375 -1.03125q0.875 0 0.875 0.671875q0 0.15625 -0.125 0.359375zm-4.90625 6.53125q-0.921875 0 -0.921875 -0.734375q0 -0.734375 0.875 -0.734375l8.234375 0q0.90625 0 0.90625 0.734375q0 0.734375 -0.90625 0.734375l-8.1875 0zm15.421875 1.75q-1.140625 0 -1.140625 -0.953125q0 -0.921875 1.140625 -0.921875l14.75 0q1.140625 0 1.140625 0.953125q0 0.921875 -1.140625 0.921875l-14.75 0zm24.28125 -3.921875l0.390625 -1.5625l-6.328125 0q-0.890625 0 -0.890625 -0.71875q0 -0.734375 0.890625 -0.734375l3.78125 0l-0.453125 -0.9375q-0.28125 -0.5 -0.28125 -0.78125q0 -0.59375 0.796875 -0.59375q0.546875 0 1.015625 0.9375l0.625 1.265625l0.046875 0.109375l4.0625 0l0.59375 -1.609375q0.25 -0.765625 0.9375 -0.765625q0.8125 0 0.8125 0.671875q0 0.421875 -0.71875 1.703125l4.171875 0q0.890625 0 0.890625 0.734375q0 0.71875 -0.890625 0.71875l-7.296875 0l-0.046875 0.09375l-0.484375 1.421875l-0.03125 0.046875l5.03125 0q1.796875 0 1.71875 1.765625l0 7.609375q0.109375 1.875 -1.75 1.765625l-9.671875 0q-1.859375 0.109375 -1.75 -1.765625l0 -7.609375q-0.078125 -1.765625 1.71875 -1.765625l3.109375 0zm-3.203125 6.40625l9.921875 0l0 -1.859375l-9.921875 0l0 1.859375zm0 1.28125l0 1.265625q0 0.796875 0.796875 0.796875l8.328125 0q0.78125 -0.015625 0.796875 -0.796875l0 -1.265625l-9.921875 0zm0 -4.4375l9.921875 0l0 -1.0625q-0.015625 -0.78125 -0.796875 -0.796875l-8.328125 0q-0.78125 0.015625 -0.796875 0.796875l0 1.0625zm27.890625 -0.203125q0.90625 4.53125 3.71875 6.75q0.578125 0.453125 0.578125 0.90625q0 0.875 -0.78125 0.875q-0.671875 0 -1.96875 -1.65625q-1.296875 -1.65625 -1.953125 -3.953125q-0.46875 2.578125 -1.671875 4.140625q-1.203125 1.5625 -1.90625 1.5625q-0.75 0 -0.75 -0.734375q0 -0.390625 0.4375 -0.734375q1.75 -1.359375 2.40625 -3.765625q0.65625 -2.40625 0.65625 -5.515625l-0.015625 -0.3125l0 -0.21875q0 -0.71875 0.703125 -0.71875q0.6875 0 0.6875 0.703125l-0.015625 0.453125l-0.03125 0.828125l-0.09375 1.390625zm-1.453125 -5.234375l4.171875 0q1.4375 0 1.4375 1.03125q0 0.3125 -0.328125 1.046875l-0.4375 1.015625q-0.953125 2.328125 -1.546875 2.328125q-0.71875 0 -0.71875 -0.625q0 -0.25 0.21875 -0.65625l0.59375 -1.359375l0.171875 -0.453125l0.265625 -0.71875q0 -0.15625 -0.359375 -0.15625l-3.984375 0l-0.765625 1.78125q-0.453125 1.03125 -0.953125 1.03125q-0.703125 0 -0.703125 -0.65625q0 -0.25 0.234375 -0.6875q1.234375 -2.0625 1.859375 -5.203125q0.1875 -0.921875 0.828125 -0.921875q0.765625 0 0.765625 0.640625q0 0.328125 -0.75 2.5625zm-3.296875 -1.046875l0 4.265625q0.0625 1.65625 -1.703125 1.6875l-0.46875 0q-0.671875 0 -0.671875 -0.65625q0 -0.65625 0.59375 -0.65625l0.40625 0q0.453125 -0.015625 0.46875 -0.484375l0 -4.15625l-5.953125 0q-0.75 0 -0.75 -0.65625q0 -0.640625 0.75 -0.640625l8.171875 0q0.703125 0 0.703125 0.65625q0 0.640625 -0.703125 0.640625l-0.84375 0zm0 7.578125l0 5.484375q0.109375 1.890625 -1.796875 1.765625l-0.984375 0q-0.65625 0 -0.65625 -0.6875q0 -0.71875 0.65625 -0.71875l0.734375 0q0.65625 0 0.671875 -0.65625l0 -5.1875l-5.984375 0q-0.75 0 -0.75 -0.65625q0 -0.640625 0.75 -0.640625l8.1875 0q0.703125 0 0.703125 0.65625q0 0.640625 -0.703125 0.640625l-0.828125 0zm-6.03125 -6.765625l2.265625 0q1.421875 -0.09375 1.3125 1.3125l0 1.25q0.109375 1.40625 -1.3125 1.296875l-2.265625 0q-1.390625 0.09375 -1.296875 -1.296875l0 -1.25q-0.09375 -1.421875 1.296875 -1.3125zm1.96875 2.8125q0.4375 0 0.4375 -0.453125l0 -0.859375q0 -0.4375 -0.4375 -0.4375l-1.59375 0q-0.453125 0 -0.4375 0.4375l0 0.859375q-0.015625 0.453125 0.4375 0.453125l1.59375 0zm-1.96875 4.875l2.265625 0q1.421875 -0.078125 1.3125 1.3125l0 1.6875q0.109375 1.421875 -1.3125 1.3125l-2.265625 0q-1.390625 0.078125 -1.296875 -1.3125l0 -1.6875q-0.09375 -1.421875 1.296875 -1.3125zm2.40625 1.546875q0 -0.4375 -0.4375 -0.4375l-1.59375 0q-0.453125 0 -0.4375 0.4375l0 1.203125q-0.015625 0.4375 0.4375 0.4375l1.59375 0q0.4375 0 0.4375 -0.4375l0 -1.203125zm14.828125 -12.203125q0.96875 0 2.78125 2.640625q1.8125 2.640625 1.8125 5.921875q0 3.515625 -2.09375 6.359375q-1.671875 2.25 -2.515625 2.25q-0.640625 0 -0.640625 -0.640625q0 -0.328125 0.578125 -0.78125q1.484375 -1.15625 2.421875 -3.09375q0.9375 -1.953125 0.9375 -4.09375q0 -4.484375 -3.5 -7.265625q-0.4375 -0.34375 -0.4375 -0.65625q0 -0.640625 0.65625 -0.640625z" fill-rule="nonzero"/><path fill="#49352a" d="m97.70858 681.4512q0.828125 0 1.421875 0.609375q0.609375 0.609375 0.609375 1.453125q0 0.90625 -0.6875 1.53125q-0.59375 0.515625 -1.375 0.515625q-0.90625 0 -1.53125 -0.671875q-0.53125 -0.59375 -0.53125 -1.40625q0 -0.8125 0.609375 -1.421875q0.609375 -0.609375 1.484375 -0.609375zm24.53125 1.125l0 8.5625q0 0.9375 -0.828125 0.9375q-0.796875 0 -0.796875 -0.9375l0 -8.5625l-3.9375 0q-0.078125 2.953125 -0.4375 4.828125q-0.359375 1.859375 -1.203125 3.140625q-0.84375 1.265625 -1.46875 1.265625q-0.84375 0 -0.84375 -0.921875q0 -0.28125 0.34375 -0.671875q1.671875 -1.921875 1.890625 -5.109375q0.140625 -1.90625 0.15625 -6.515625q0 -1.203125 0.171875 -1.640625q0.375 -0.625 1.75 -0.75q3.109375 -0.34375 5.984375 -1.0625l0.453125 -0.0625q0.875 0 0.875 1.03125q0 0.546875 -0.890625 0.71875q-3.171875 0.609375 -5.421875 0.796875q-0.875 0.078125 -1.15625 0.328125q-0.171875 0.21875 -0.171875 2.09375l-0.015625 0.765625l0 0.21875l7.40625 0q0.953125 0 0.953125 0.78125q0 0.765625 -0.953125 0.765625l-1.859375 0zm-13.65625 3.921875l0 -8.296875q-0.109375 -1.71875 1.640625 -1.640625l1.84375 0q1.75 -0.078125 1.640625 1.640625l0 8.296875q0.109375 1.734375 -1.640625 1.640625l-1.84375 0q-1.75 0.09375 -1.640625 -1.640625zm3.6875 -0.4375l0 -7.421875q-0.015625 -0.578125 -0.609375 -0.59375l-1.03125 0q-0.578125 0.015625 -0.609375 0.59375l0 7.421875q0.03125 0.578125 0.609375 0.59375l1.03125 0q0.59375 -0.015625 0.609375 -0.59375zm27.015617 -2.71875q0.90625 4.53125 3.71875 6.75q0.578125 0.453125 0.578125 0.90625q0 0.875 -0.78125 0.875q-0.671875 0 -1.96875 -1.65625q-1.296875 -1.65625 -1.953125 -3.953125q-0.46875 2.578125 -1.671875 4.140625q-1.203125 1.5625 -1.90625 1.5625q-0.75 0 -0.75 -0.734375q0 -0.390625 0.4375 -0.734375q1.75 -1.359375 2.40625 -3.765625q0.65625 -2.40625 0.65625 -5.515625l-0.015625 -0.3125l0 -0.21875q0 -0.71875 0.703125 -0.71875q0.6875 0 0.6875 0.703125l-0.015625 0.453125l-0.03125 0.828125l-0.09375 1.390625zm-1.453125 -5.234375l4.171875 0q1.4375 0 1.4375 1.03125q0 0.3125 -0.328125 1.046875l-0.4375 1.015625q-0.953125 2.328125 -1.546875 2.328125q-0.71875 0 -0.71875 -0.625q0 -0.25 0.21875 -0.65625l0.59375 -1.359375l0.171875 -0.453125l0.265625 -0.71875q0 -0.15625 -0.359375 -0.15625l-3.984375 0l-0.765625 1.78125q-0.453125 1.03125 -0.953125 1.03125q-0.703125 0 -0.703125 -0.65625q0 -0.25 0.234375 -0.6875q1.234375 -2.0625 1.859375 -5.203125q0.1875 -0.921875 0.828125 -0.921875q0.765625 0 0.765625 0.640625q0 0.328125 -0.75 2.5625zm-3.296875 -1.046875l0 4.265625q0.0625 1.65625 -1.703125 1.6875l-0.46875 0q-0.671875 0 -0.671875 -0.65625q0 -0.65625 0.59375 -0.65625l0.40625 0q0.453125 -0.015625 0.46875 -0.484375l0 -4.15625l-5.9531174 0q-0.75 0 -0.75 -0.65625q0 -0.640625 0.75 -0.640625l8.171867 0q0.703125 0 0.703125 0.65625q0 0.640625 -0.703125 0.640625l-0.84375 0zm0 7.578125l0 5.484375q0.109375 1.890625 -1.796875 1.765625l-0.984375 0q-0.65625 0 -0.65625 -0.6875q0 -0.71875 0.65625 -0.71875l0.734375 0q0.65625 0 0.671875 -0.65625l0 -5.1875l-5.9843674 0q-0.75 0 -0.75 -0.65625q0 -0.640625 0.75 -0.640625l8.187492 0q0.703125 0 0.703125 0.65625q0 0.640625 -0.703125 0.640625l-0.828125 0zm-6.03125 -6.765625l2.265625 0q1.421875 -0.09375 1.3125 1.3125l0 1.25q0.109375 1.40625 -1.3125 1.296875l-2.265625 0q-1.3906174 0.09375 -1.2968674 -1.296875l0 -1.25q-0.09375 -1.421875 1.2968674 -1.3125zm1.96875 2.8125q0.4375 0 0.4375 -0.453125l0 -0.859375q0 -0.4375 -0.4375 -0.4375l-1.59375 0q-0.453125 0 -0.4375 0.4375l0 0.859375q-0.015625 0.453125 0.4375 0.453125l1.59375 0zm-1.96875 4.875l2.265625 0q1.421875 -0.078125 1.3125 1.3125l0 1.6875q0.109375 1.421875 -1.3125 1.3125l-2.265625 0q-1.3906174 0.078125 -1.2968674 -1.3125l0 -1.6875q-0.09375 -1.421875 1.2968674 -1.3125zm2.40625 1.546875q0 -0.4375 -0.4375 -0.4375l-1.59375 0q-0.453125 0 -0.4375 0.4375l0 1.203125q-0.015625 0.4375 0.4375 0.4375l1.59375 0q0.4375 0 0.4375 -0.4375l0 -1.203125zm15.71875 0.171875q1.40625 0 1.40625 1.65625q0 1.234375 -0.828125 2.1875q-0.828125 0.953125 -1.328125 0.953125q-0.4375 0 -0.4375 -0.46875q0 -0.1875 0.28125 -0.375q1.140625 -0.78125 1.140625 -1.359375q0 -0.140625 -0.09375 -0.140625l-0.109375 0.03125l-0.109375 0.015625q-1.234375 0 -1.234375 -1.25q0 -1.25 1.3125 -1.25z" fill-rule="nonzero"/><path fill="#49352a" d="m172.61482 679.4199q-1.03125 0 -2.625 0.078125l0 -1.3125q1.59375 0.078125 2.6875 0.078125l0.875 0q0.734375 -2.109375 0.8125 -2.765625q0.875 0.4375 1.59375 0.71875q-0.28125 0.296875 -0.546875 0.921875q-0.25 0.609375 -0.46875 1.125l2.6875 0q1.171875 0 2.5625 -0.078125l0 1.3125q-1.03125 -0.078125 -2.5625 -0.078125l-3.046875 0q-0.375 0.875 -0.8125 1.96875l2.84375 0q-0.0625 0.8125 -0.0625 1.96875l0 1.46875l0.9375 0q1.09375 0 2.40625 -0.078125l0 1.3125q-1.3125 -0.078125 -2.40625 -0.078125l-0.9375 0l0 4.234375q0 1.234375 -0.546875 1.59375q-0.546875 0.375 -2.375 0.59375q-0.078125 -0.734375 -0.578125 -1.53125q1.8125 0.0625 2.0 -0.234375q0.1875 -0.28125 0.1875 -1.015625l0 -3.640625l-2.265625 0q-0.515625 0 -0.953125 0.046875q-0.4375 0.03125 -1.015625 0.25q-0.296875 -0.734375 -0.578125 -1.390625q0.71875 -0.21875 1.671875 -2.40625q-0.515625 0 -1.96875 0.078125l0 -1.234375q1.671875 0.0625 2.328125 0.0625q0.4375 -1.09375 0.734375 -1.96875l-0.578125 0zm-4.8125 2.5625q0.65625 -1.03125 1.3125 -2.78125q0.65625 0.515625 1.375 0.875q-0.71875 0.953125 -1.59375 2.484375q-0.875 1.53125 -2.765625 4.078125q0.65625 -0.140625 3.859375 -0.65625q-0.15625 0.796875 -0.078125 1.234375q-1.609375 0.15625 -5.03125 0.953125q-0.359375 -0.734375 -0.71875 -1.3125q0.65625 -0.359375 1.421875 -1.34375q0.765625 -0.984375 1.640625 -2.4375q-0.4375 -0.078125 -1.28125 0.03125q-0.84375 0.109375 -1.640625 0.328125q-0.296875 -0.65625 -0.578125 -1.390625q0.71875 -0.4375 1.625 -2.328125q0.921875 -1.890625 1.5 -3.71875q0.8125 0.515625 1.53125 0.734375q-0.71875 1.09375 -1.34375 2.296875q-0.625 1.203125 -1.71875 3.015625q1.6875 0 2.484375 -0.0625zm2.25 6.546875q-0.0625 0.8125 0 1.3125q-1.234375 0.296875 -2.796875 0.796875q-1.5625 0.515625 -2.875 1.171875q-0.21875 -0.796875 -0.515625 -1.59375q1.890625 -0.4375 2.578125 -0.625q0.703125 -0.1875 3.609375 -1.0625zm3.796875 -0.5q-0.21875 0.21875 -1.28125 1.390625q-1.046875 1.15625 -2.359375 2.546875q-0.515625 -0.65625 -0.953125 -1.03125q0.796875 -0.65625 1.75 -1.703125q0.953125 -1.0625 1.671875 -2.234375q0.4375 0.515625 1.171875 1.03125zm4.515625 -1.03125q1.890625 2.484375 2.703125 3.875q-0.734375 0.28125 -1.3125 0.796875q-0.8125 -1.609375 -2.484375 -3.859375q0.515625 -0.296875 1.09375 -0.8125zm-3.125 -2.171875l0 -2.34375l-1.828125 0q-0.734375 1.53125 -1.171875 2.34375l3.0 0zm13.6875 -6.859375q-2.109375 0 -4.0 0.078125l0 -1.46875q2.40625 0.078125 3.640625 0.078125l9.109375 0q-0.140625 1.015625 -0.21875 3.140625l-0.296875 9.6875q-0.140625 1.96875 -1.15625 2.328125q-1.015625 0.375 -3.359375 0.515625q-0.21875 -0.875 -0.796875 -1.75q2.109375 0.140625 2.90625 -0.03125q0.8125 -0.1875 0.953125 -1.359375l0.296875 -11.21875l-7.078125 0zm4.96875 6.5625q0 0.796875 0.140625 1.53125q-4.15625 1.53125 -8.671875 3.78125q-0.359375 -0.875 -1.015625 -1.671875q0.9375 -0.21875 3.734375 -1.234375q2.8125 -1.03125 5.8125 -2.40625zm-7.0 -5.109375q3.125 1.828125 4.65625 3.0q-0.28125 0.4375 -1.015625 1.375q-1.3125 -1.234375 -4.515625 -3.125q0.5 -0.65625 0.875 -1.25z" fill-rule="nonzero"/><path fill="#49352a" d="m213.9117 683.3418q0.90625 4.53125 3.71875 6.75q0.578125 0.453125 0.578125 0.90625q0 0.875 -0.78125 0.875q-0.671875 0 -1.96875 -1.65625q-1.296875 -1.65625 -1.953125 -3.953125q-0.46875 2.578125 -1.671875 4.140625q-1.203125 1.5625 -1.90625 1.5625q-0.75 0 -0.75 -0.734375q0 -0.390625 0.4375 -0.734375q1.75 -1.359375 2.40625 -3.765625q0.65625 -2.40625 0.65625 -5.515625l-0.015625 -0.3125l0 -0.21875q0 -0.71875 0.703125 -0.71875q0.6875 0 0.6875 0.703125l-0.015625 0.453125l-0.03125 0.828125l-0.09375 1.390625zm-1.453125 -5.234375l4.171875 0q1.4375 0 1.4375 1.03125q0 0.3125 -0.328125 1.046875l-0.4375 1.015625q-0.953125 2.328125 -1.546875 2.328125q-0.71875 0 -0.71875 -0.625q0 -0.25 0.21875 -0.65625l0.59375 -1.359375l0.171875 -0.453125l0.265625 -0.71875q0 -0.15625 -0.359375 -0.15625l-3.984375 0l-0.765625 1.78125q-0.453125 1.03125 -0.953125 1.03125q-0.703125 0 -0.703125 -0.65625q0 -0.25 0.234375 -0.6875q1.234375 -2.0625 1.859375 -5.203125q0.1875 -0.921875 0.828125 -0.921875q0.765625 0 0.765625 0.640625q0 0.328125 -0.75 2.5625zm-3.296875 -1.046875l0 4.265625q0.0625 1.65625 -1.703125 1.6875l-0.46875 0q-0.671875 0 -0.671875 -0.65625q0 -0.65625 0.59375 -0.65625l0.40625 0q0.453125 -0.015625 0.46875 -0.484375l0 -4.15625l-5.953125 0q-0.75 0 -0.75 -0.65625q0 -0.640625 0.75 -0.640625l8.171875 0q0.703125 0 0.703125 0.65625q0 0.640625 -0.703125 0.640625l-0.84375 0zm0 7.578125l0 5.484375q0.109375 1.890625 -1.796875 1.765625l-0.984375 0q-0.65625 0 -0.65625 -0.6875q0 -0.71875 0.65625 -0.71875l0.734375 0q0.65625 0 0.671875 -0.65625l0 -5.1875l-5.984375 0q-0.75 0 -0.75 -0.65625q0 -0.640625 0.75 -0.640625l8.1875 0q0.703125 0 0.703125 0.65625q0 0.640625 -0.703125 0.640625l-0.828125 0zm-6.03125 -6.765625l2.265625 0q1.421875 -0.09375 1.3125 1.3125l0 1.25q0.109375 1.40625 -1.3125 1.296875l-2.265625 0q-1.390625 0.09375 -1.296875 -1.296875l0 -1.25q-0.09375 -1.421875 1.296875 -1.3125zm1.96875 2.8125q0.4375 0 0.4375 -0.453125l0 -0.859375q0 -0.4375 -0.4375 -0.4375l-1.59375 0q-0.453125 0 -0.4375 0.4375l0 0.859375q-0.015625 0.453125 0.4375 0.453125l1.59375 0zm-1.96875 4.875l2.265625 0q1.421875 -0.078125 1.3125 1.3125l0 1.6875q0.109375 1.421875 -1.3125 1.3125l-2.265625 0q-1.390625 0.078125 -1.296875 -1.3125l0 -1.6875q-0.09375 -1.421875 1.296875 -1.3125zm2.40625 1.546875q0 -0.4375 -0.4375 -0.4375l-1.59375 0q-0.453125 0 -0.4375 0.4375l0 1.203125q-0.015625 0.4375 0.4375 0.4375l1.59375 0q0.4375 0 0.4375 -0.4375l0 -1.203125z" fill-rule="nonzero"/><path fill="#49352a" d="m236.38045 676.37305q-0.078125 0.9375 -0.078125 2.765625l0 11.140625q0 1.171875 -0.921875 1.5625q-0.90625 0.40625 -2.21875 0.5625q-0.140625 -0.65625 -0.71875 -1.53125q1.53125 0 2.0 -0.21875q0.46875 -0.21875 0.46875 -1.171875l0 -11.953125l-6.046875 0q-1.671875 0 -2.765625 0.078125l0 -1.3125q0.953125 0.078125 2.84375 0.078125l7.4375 0zm-3.9375 6.1875q-0.078125 0.578125 -0.078125 1.96875l0 1.375q0 1.75 0.078125 3.28125l-1.3125 0l0 -1.015625l-2.921875 0l0 1.3125l-1.3125 0q0.078125 -1.234375 0.078125 -3.140625l0 -1.734375q0 -1.09375 -0.078125 -2.046875l5.546875 0zm-8.671875 -1.75q-0.078125 1.453125 -0.078125 3.0625l0 4.953125q0.734375 -0.578125 1.828125 -1.671875q0.21875 0.578125 0.71875 1.15625q-1.15625 0.953125 -1.96875 1.765625q-0.796875 0.796875 -1.671875 1.734375q-0.5 -0.71875 -0.9375 -1.234375q0.359375 -0.4375 0.5 -0.796875q0.15625 -0.375 0.15625 -1.03125l0 -6.765625l-0.734375 0q-0.21875 0 -1.671875 0.0625l0 -1.3125q1.015625 0.078125 1.671875 0.078125l2.1875 0zm7.359375 6.1875l0 -3.34375l-2.921875 0l0 3.34375l2.921875 0zm0.796875 -7.5q0.734375 0 1.671875 -0.078125l0 1.3125q-0.796875 -0.0625 -2.109375 -0.0625l-3.203125 0q-0.796875 0 -2.1875 0.0625l0 -1.3125q1.390625 0.078125 2.328125 0.078125l3.5 0zm-9.328125 -4.21875q1.3125 2.03125 1.75 2.828125q-0.65625 0.375 -1.234375 0.875q-1.09375 -2.1875 -1.671875 -2.90625q0.65625 -0.359375 1.15625 -0.796875z" fill-rule="nonzero"/><path fill="#49352a" d="m97.70858 707.4512q0.828125 0 1.421875 0.609375q0.609375 0.609375 0.609375 1.453125q0 0.90625 -0.6875 1.53125q-0.59375 0.515625 -1.375 0.515625q-0.90625 0 -1.53125 -0.671875q-0.53125 -0.59375 -0.53125 -1.40625q0 -0.8125 0.609375 -1.421875q0.609375 -0.609375 1.484375 -0.609375zm18.90625 -5.734375l5.484375 0q1.828125 -0.09375 1.71875 1.703125l0 3.515625q0.109375 1.78125 -1.71875 1.703125l-5.484375 0q-1.8125 0.078125 -1.703125 -1.703125l0 -3.515625q-0.109375 -1.796875 1.703125 -1.703125zm-0.3125 4.0625l0 0.984375q-0.03125 0.640625 0.640625 0.625l4.75 0q0.671875 0.015625 0.65625 -0.625l0 -0.984375l-6.046875 0zm0 -1.203125l6.046875 0l0 -0.9375q0.015625 -0.671875 -0.65625 -0.65625l-4.75 0q-0.671875 -0.015625 -0.640625 0.65625l0 0.9375zm-0.359375 5.328125l6.875 0q1.828125 -0.09375 1.71875 1.71875l0 4.03125q0.109375 1.796875 -1.71875 1.703125l-6.875 0q-1.796875 0.09375 -1.6875 -1.703125l0 -4.03125q-0.109375 -1.8125 1.6875 -1.71875zm-0.296875 4.296875l0 1.234375q-0.03125 0.671875 0.65625 0.65625l6.09375 0q0.671875 0.015625 0.65625 -0.65625l0 -1.234375l-7.40625 0zm0 -1.234375l7.40625 0l0 -1.125q0.015625 -0.671875 -0.65625 -0.65625l-6.09375 0q-0.6875 -0.015625 -0.65625 0.65625l0 1.125zm-7.109375 -0.421875l0 -8.40625q-0.109375 -1.640625 1.5625 -1.578125l1.6875 0q1.703125 -0.0625 1.59375 1.578125l0 8.40625q0.109375 1.65625 -1.59375 1.578125l-1.6875 0q-1.671875 0.0625 -1.5625 -1.578125zm3.46875 -0.484375l0 -7.4375q-0.015625 -0.578125 -0.59375 -0.59375l-0.90625 0q-0.59375 0.015625 -0.609375 0.59375l0 7.4375q0.015625 0.59375 0.609375 0.59375l0.90625 0q0.578125 -0.015625 0.59375 -0.59375zm27.281242 -2.71875q0.90625 4.53125 3.71875 6.75q0.578125 0.453125 0.578125 0.90625q0 0.875 -0.78125 0.875q-0.671875 0 -1.96875 -1.65625q-1.296875 -1.65625 -1.953125 -3.953125q-0.46875 2.578125 -1.671875 4.140625q-1.203125 1.5625 -1.90625 1.5625q-0.75 0 -0.75 -0.734375q0 -0.390625 0.4375 -0.734375q1.75 -1.359375 2.40625 -3.765625q0.65625 -2.40625 0.65625 -5.515625l-0.015625 -0.3125l0 -0.21875q0 -0.71875 0.703125 -0.71875q0.6875 0 0.6875 0.703125l-0.015625 0.453125l-0.03125 0.828125l-0.09375 1.390625zm-1.453125 -5.234375l4.171875 0q1.4375 0 1.4375 1.03125q0 0.3125 -0.328125 1.046875l-0.4375 1.015625q-0.953125 2.328125 -1.546875 2.328125q-0.71875 0 -0.71875 -0.625q0 -0.25 0.21875 -0.65625l0.59375 -1.359375l0.171875 -0.453125l0.265625 -0.71875q0 -0.15625 -0.359375 -0.15625l-3.984375 0l-0.765625 1.78125q-0.453125 1.03125 -0.953125 1.03125q-0.703125 0 -0.703125 -0.65625q0 -0.25 0.234375 -0.6875q1.234375 -2.0625 1.859375 -5.203125q0.1875 -0.921875 0.828125 -0.921875q0.765625 0 0.765625 0.640625q0 0.328125 -0.75 2.5625zm-3.296875 -1.046875l0 4.265625q0.0625 1.65625 -1.703125 1.6875l-0.46875 0q-0.671875 0 -0.671875 -0.65625q0 -0.65625 0.59375 -0.65625l0.40625 0q0.453125 -0.015625 0.46875 -0.484375l0 -4.15625l-5.9531174 0q-0.75 0 -0.75 -0.65625q0 -0.640625 0.75 -0.640625l8.171867 0q0.703125 0 0.703125 0.65625q0 0.640625 -0.703125 0.640625l-0.84375 0zm0 7.578125l0 5.484375q0.109375 1.890625 -1.796875 1.765625l-0.984375 0q-0.65625 0 -0.65625 -0.6875q0 -0.71875 0.65625 -0.71875l0.734375 0q0.65625 0 0.671875 -0.65625l0 -5.1875l-5.9843674 0q-0.75 0 -0.75 -0.65625q0 -0.640625 0.75 -0.640625l8.187492 0q0.703125 0 0.703125 0.65625q0 0.640625 -0.703125 0.640625l-0.828125 0zm-6.03125 -6.765625l2.265625 0q1.421875 -0.09375 1.3125 1.3125l0 1.25q0.109375 1.40625 -1.3125 1.296875l-2.265625 0q-1.3906174 0.09375 -1.2968674 -1.296875l0 -1.25q-0.09375 -1.421875 1.2968674 -1.3125zm1.96875 2.8125q0.4375 0 0.4375 -0.453125l0 -0.859375q0 -0.4375 -0.4375 -0.4375l-1.59375 0q-0.453125 0 -0.4375 0.4375l0 0.859375q-0.015625 0.453125 0.4375 0.453125l1.59375 0zm-1.96875 4.875l2.265625 0q1.421875 -0.078125 1.3125 1.3125l0 1.6875q0.109375 1.421875 -1.3125 1.3125l-2.265625 0q-1.3906174 0.078125 -1.2968674 -1.3125l0 -1.6875q-0.09375 -1.421875 1.2968674 -1.3125zm2.40625 1.546875q0 -0.4375 -0.4375 -0.4375l-1.59375 0q-0.453125 0 -0.4375 0.4375l0 1.203125q-0.015625 0.4375 0.4375 0.4375l1.59375 0q0.4375 0 0.4375 -0.4375l0 -1.203125z" fill-rule="nonzero"/><path fill="#49352a" d="m153.95857 705.4199q-1.03125 0 -2.625 0.078125l0 -1.3125q1.59375 0.078125 2.6875 0.078125l0.875 0q0.734375 -2.109375 0.8125 -2.765625q0.875 0.4375 1.59375 0.71875q-0.28125 0.296875 -0.546875 0.921875q-0.25 0.609375 -0.46875 1.125l2.6875 0q1.171875 0 2.5625 -0.078125l0 1.3125q-1.03125 -0.078125 -2.5625 -0.078125l-3.046875 0q-0.375 0.875 -0.8125 1.96875l2.84375 0q-0.0625 0.8125 -0.0625 1.96875l0 1.46875l0.9375 0q1.09375 0 2.40625 -0.078125l0 1.3125q-1.3125 -0.078125 -2.40625 -0.078125l-0.9375 0l0 4.234375q0 1.234375 -0.546875 1.59375q-0.546875 0.375 -2.375 0.59375q-0.078125 -0.734375 -0.578125 -1.53125q1.8125 0.0625 2.0 -0.234375q0.1875 -0.28125 0.1875 -1.015625l0 -3.640625l-2.265625 0q-0.515625 0 -0.953125 0.046875q-0.4375 0.03125 -1.015625 0.25q-0.296875 -0.734375 -0.578125 -1.390625q0.71875 -0.21875 1.671875 -2.40625q-0.515625 0 -1.96875 0.078125l0 -1.234375q1.671875 0.0625 2.328125 0.0625q0.4375 -1.09375 0.734375 -1.96875l-0.578125 0zm-4.8125 2.5625q0.65625 -1.03125 1.3125 -2.78125q0.65625 0.515625 1.375 0.875q-0.71875 0.953125 -1.59375 2.484375q-0.875 1.53125 -2.765625 4.078125q0.65625 -0.140625 3.859375 -0.65625q-0.15625 0.796875 -0.078125 1.234375q-1.609375 0.15625 -5.03125 0.953125q-0.359375 -0.734375 -0.71875 -1.3125q0.65625 -0.359375 1.421875 -1.34375q0.765625 -0.984375 1.640625 -2.4375q-0.4375 -0.078125 -1.28125 0.03125q-0.84375 0.109375 -1.640625 0.328125q-0.296875 -0.65625 -0.578125 -1.390625q0.71875 -0.4375 1.625 -2.328125q0.921875 -1.890625 1.5 -3.71875q0.8125 0.515625 1.53125 0.734375q-0.71875 1.09375 -1.34375 2.296875q-0.625 1.203125 -1.71875 3.015625q1.6875 0 2.484375 -0.0625zm2.25 6.546875q-0.0625 0.8125 0 1.3125q-1.234375 0.296875 -2.796875 0.796875q-1.5625 0.515625 -2.875 1.171875q-0.21875 -0.796875 -0.515625 -1.59375q1.890625 -0.4375 2.578125 -0.625q0.703125 -0.1875 3.609375 -1.0625zm3.796875 -0.5q-0.21875 0.21875 -1.28125 1.390625q-1.046875 1.15625 -2.359375 2.546875q-0.515625 -0.65625 -0.953125 -1.03125q0.796875 -0.65625 1.75 -1.703125q0.953125 -1.0625 1.671875 -2.234375q0.4375 0.515625 1.171875 1.03125zm4.515625 -1.03125q1.890625 2.484375 2.703125 3.875q-0.734375 0.28125 -1.3125 0.796875q-0.8125 -1.609375 -2.484375 -3.859375q0.515625 -0.296875 1.09375 -0.8125zm-3.125 -2.171875l0 -2.34375l-1.828125 0q-0.734375 1.53125 -1.171875 2.34375l3.0 0zm13.6875 -6.859375q-2.109375 0 -4.0 0.078125l0 -1.46875q2.40625 0.078125 3.640625 0.078125l9.109375 0q-0.140625 1.015625 -0.21875 3.140625l-0.296875 9.6875q-0.140625 1.96875 -1.15625 2.328125q-1.015625 0.375 -3.359375 0.515625q-0.21875 -0.875 -0.796875 -1.75q2.109375 0.140625 2.90625 -0.03125q0.8125 -0.1875 0.953125 -1.359375l0.296875 -11.21875l-7.078125 0zm4.96875 6.5625q0 0.796875 0.140625 1.53125q-4.15625 1.53125 -8.671875 3.78125q-0.359375 -0.875 -1.015625 -1.671875q0.9375 -0.21875 3.734375 -1.234375q2.8125 -1.03125 5.8125 -2.40625zm-7.0 -5.109375q3.125 1.828125 4.65625 3.0q-0.28125 0.4375 -1.015625 1.375q-1.3125 -1.234375 -4.515625 -3.125q0.5 -0.65625 0.875 -1.25z" fill-rule="nonzero"/><path fill="#c97e83" d="m357.24146 275.33295l-19.055115 -5.6062927l24.0 -12.0z" fill-rule="evenodd"/><path stroke="#c97e83" stroke-width="1.0" stroke-linejoin="round" stroke-linecap="butt" d="m357.24146 275.33295l-19.055115 -5.6062927l24.0 -12.0z" fill-rule="evenodd"/><path fill="#c97e83" d="m174.8849 569.569l-7.433075 -17.448853l24.913376 10.078796z" fill-rule="evenodd"/><path stroke="#c97e83" stroke-width="1.0" stroke-linejoin="round" stroke-linecap="butt" d="m174.8849 569.569l-7.433075 -17.448853l24.913376 10.078796z" fill-rule="evenodd"/></g></svg>