<svg version="1.1" viewBox="0.0 0.0 539.5196850393701 768.0" fill="none" stroke="none" stroke-linecap="square" stroke-miterlimit="10" xmlns:xlink="http://www.w3.org/1999/xlink" xmlns="http://www.w3.org/2000/svg"><clipPath id="g45535f87d1_0_508.0"><path d="m0 0l539.5197 0l0 768.0l-539.5197 0l0 -768.0z" clip-rule="nonzero"/></clipPath><g clip-path="url(#g45535f87d1_0_508.0)"><path fill="#ffffff" d="m0 0l539.5197 0l0 768.0l-539.5197 0z" fill-rule="evenodd"/><path fill="#ffe599" d="m32.760185 94.25984l0 0c0 -42.565063 67.58738 -77.07086 150.96063 -77.07086l0 0c83.373245 0 150.96065 34.505802 150.96065 77.07086l0 0c0 42.565063 -67.5874 77.07086 -150.96065 77.07086l0 0c-83.373245 0 -150.96063 -34.5058 -150.96063 -77.07086z" fill-rule="evenodd"/><path stroke="#ffe599" stroke-width="1.0" stroke-linejoin="round" stroke-linecap="butt" d="m32.760185 94.25984l0 0c0 -42.565063 67.58738 -77.07086 150.96063 -77.07086l0 0c83.373245 0 150.96065 34.505802 150.96065 77.07086l0 0c0 42.565063 -67.5874 77.07086 -150.96065 77.07086l0 0c-83.373245 0 -150.96063 -34.5058 -150.96063 -77.07086z" fill-rule="evenodd"/><path fill="#000000" fill-opacity="0.0" d="m192.20616 176.84651c4.649048 3.4468384 6.921036 12.393372 27.894302 20.681c20.973251 8.287613 74.59085 16.134933 97.94528 29.044754c23.3544 12.909805 35.151 40.345093 42.181183 48.414093" fill-rule="evenodd"/><path stroke="#942a2a" stroke-width="1.0" stroke-linejoin="round" stroke-linecap="butt" stroke-dasharray="4.0,3.0" d="m192.20616 176.84651c4.649048 3.4468384 6.921036 12.393372 27.894302 20.681c20.973251 8.287613 74.59085 16.134933 97.94528 29.044754c23.3544 12.909805 35.151 40.345093 42.181183 48.414093" fill-rule="evenodd"/><path fill="#000000" fill-opacity="0.0" d="m-15.821523 13.143159l298.80316 0l0 39.14961l-298.80316 0z" fill-rule="evenodd"/><path fill="#49352a" d="m70.923805 41.25878l1.6875 -12.828123q0.140625 -1.015625 1.0 -1.015625q0.828125 0 0.953125 1.015625l1.6875 12.828123l1.46875 -12.749998q0.125 -1.09375 1.015625 -1.09375q0.984375 0 0.984375 0.984375l-0.03125 0.34375l-2.046875 17.937498q-0.140625 1.140625 -1.078125 1.140625q-0.9375 0 -1.09375 -1.140625l-1.859375 -13.703125l-1.90625 13.703125q-0.15625 1.140625 -1.09375 1.140625q-0.9375 0 -1.0625 -1.140625l-2.0625 -17.937498l-0.03125 -0.34375q0 -0.984375 1.0 -0.984375q0.875 0 1.015625 1.09375l1.453125 12.749998zm19.15625 4.40625q-2.0 2.15625 -4.5 2.15625q-2.078125 0 -3.21875 -1.109375q-1.125 -1.109375 -1.125 -2.796875q0 -4.53125 6.6875 -4.921875l2.15625 -0.046875l0 -0.890625q0 -2.421875 -2.8125 -2.421875q-1.8125 0 -2.75 1.625q-0.46875 0.796875 -1.390625 0.796875q-1.21875 0 -1.21875 -1.0625q0 -0.75 0.671875 -1.59375q1.46875 -1.875 4.53125 -1.875q5.203125 0 5.28125 4.59375l0 8.53125q0 1.171875 -1.171875 1.171875q-1.140625 0 -1.140625 -1.09375l0 -1.0625zm0 -4.953125q-3.984375 0.109375 -5.234375 0.921875q-1.25 0.796875 -1.25 2.203125q0 1.984375 2.140625 1.984375q1.640625 0 2.96875 -1.125q1.34375 -1.125 1.375 -1.984375l0 -2.0zm9.109375 -4.84375q1.796875 -2.34375 3.984375 -2.34375q1.21875 0 1.21875 1.125q0 1.125 -1.609375 1.328125q-1.609375 0.1875 -2.59375 1.171875q-0.96875 0.96875 -1.0 1.984375l0 7.25q0 1.4375 -1.1875 1.4375q-1.171875 0 -1.171875 -1.4375l0 -11.421875q0 -1.4375 1.1875 -1.4375q1.171875 0 1.171875 1.390625l0 0.953125zm15.25 -0.625q1.015625 -1.71875 2.453125 -1.71875q2.390625 0 2.421875 3.59375l0 9.40625q0 1.296875 -1.125 1.296875q-1.09375 0 -1.09375 -1.296875l0 -9.25q0 -1.875 -0.78125 -1.875q-0.671875 0 -1.140625 0.890625q-0.46875 0.890625 -0.46875 1.40625l0 8.828125q0 1.296875 -1.109375 1.296875q-1.09375 0 -1.09375 -1.296875l0 -9.0625q0 -2.0625 -0.734375 -2.0625q-0.515625 0 -1.109375 0.84375q-0.578125 0.828125 -0.578125 1.53125l0 8.75q0 1.296875 -1.125 1.296875q-1.09375 0 -1.09375 -1.296875l0 -11.921875q0 -1.078125 1.125 -1.078125q1.09375 0 1.09375 0.9375l0 0.734375q1.09375 -1.671875 2.390625 -1.671875q1.484375 0 1.96875 1.71875zm11.234375 -0.09375q0 -1.484375 1.21875 -1.484375q1.2187576 0 1.2187576 1.484375l0 11.21875q0 1.453125 -1.2187576 1.453125q-1.21875 0 -1.21875 -1.453125l0 -11.21875zm1.265625 -7.765623q0.734375 0 1.2187576 0.578125q0.453125 0.46875 0.453125 1.109375q0 1.703125 -1.7031326 1.703125q-1.6875 0 -1.6875 -1.6875q0 -1.703125 1.71875 -1.703125zm10.203133 8.671873q1.90625 -2.53125 4.484375 -2.53125q4.0 0 4.078125 4.6875l0 8.171875q0 1.4375 -1.1875 1.4375q-1.171875 0 -1.171875 -1.4375l0 -7.75q0 -3.0 -2.21875 -3.0q-1.65625 0 -2.828125 1.28125q-1.15625 1.28125 -1.15625 2.421875l0 7.046875q0 1.4375 -1.1875 1.4375q-1.171875 0 -1.171875 -1.4375l0 -11.53125q0 -1.328125 1.171875 -1.328125q1.1875 0 1.1875 1.3125l0 1.21875zm19.5 -1.359375q1.140625 -1.171875 2.15625 -1.171875q0.921875 0 0.921875 1.078125q0 0.796875 -0.890625 1.078125q-0.890625 0.265625 -1.140625 0.421875q0.515625 1.0 0.515625 2.09375q0 1.65625 -1.328125 2.796875q-1.328125 1.125 -3.359375 1.125q-0.71875 0 -1.453125 -0.1875q-0.890625 0.34375 -0.890625 0.78125q0 0.609375 1.78125 0.890625q3.453125 0.546875 4.8125 1.46875q1.375 0.921875 1.375 2.5625q0 3.3125 -5.796875 3.3125q-5.625 0 -5.625 -3.15625q0 -2.125 2.859375 -3.015625q-1.71875 -0.65625 -1.71875 -1.609375q0 -1.015625 1.71875 -1.828125q-2.0625 -1.1875 -2.0625 -3.40625q0 -1.828125 1.359375 -3.109375q1.359375 -1.296875 3.515625 -1.296875q2.0 0 3.25 1.171875zm-3.25 0.6875q-1.21875 0 -2.0 0.859375q-0.65625 0.75 -0.65625 1.71875q0 1.03125 0.734375 1.71875q0.78125 0.671875 1.921875 0.671875q2.59375 0 2.59375 -2.421875q0 -2.546875 -2.59375 -2.546875zm-0.671875 9.984375q-2.765625 0.546875 -2.765625 2.015625q0 1.6875 3.234375 1.6875q3.71875 0 3.71875 -1.59375q0 -0.953125 -1.75 -1.59375q-1.734375 -0.640625 -2.4375 -0.515625zm31.875 -17.953123q1.234375 0 1.234375 1.484375l0 12.984373q0 5.9375 -5.59375 5.9375q-5.53125 0 -5.609375 -5.78125l0 -13.140623q0 -1.484375 1.21875 -1.484375q1.234375 0 1.234375 1.484375l0 12.859373q0 3.75 3.140625 3.75q3.15625 0 3.15625 -3.75l0 -12.859373q0 -1.484375 1.21875 -1.484375zm5.890625 8.218748q1.453125 -2.109375 3.71875 -2.109375q2.3125 0 3.6875 1.875q1.390625 1.859375 1.390625 4.828125q0 3.140625 -1.3125 5.046875q-1.296875 1.890625 -3.734375 1.890625q-2.3125 0 -3.75 -2.03125l0 4.359375q0 1.453125 -1.203125 1.453125q-1.171875 0 -1.171875 -1.453125l0 -14.765625q0 -1.203125 1.203125 -1.203125q1.171875 0 1.171875 1.09375l0 1.015625zm0 6.09375q0 1.125 0.953125 2.234375q0.953125 1.09375 2.453125 1.09375q2.9375 0 2.9375 -4.78125q0 -4.640625 -2.984375 -4.640625q-1.4375 0 -2.390625 1.15625q-0.9375 1.140625 -0.96875 2.34375l0 2.59375z" fill-rule="nonzero"/><path fill="#000000" fill-opacity="0.0" d="m74.68504 58.097115l376.0315 0l0 95.11811l-376.0315 0z" fill-rule="evenodd"/><path fill="#49352a" d="m93.70067 76.51586q0.890625 0 1.53125 0.65625q0.640625 0.640625 0.640625 1.546875q0 0.96875 -0.71875 1.640625q-0.640625 0.5625 -1.484375 0.5625q-0.984375 0 -1.640625 -0.71875q-0.5625 -0.640625 -0.5625 -1.5q0 -0.890625 0.640625 -1.53125q0.65625 -0.65625 1.59375 -0.65625zm17.46875 3.90625q-0.015625 -0.546875 -0.546875 -0.578125l-1.03125 0q-0.921875 0 -0.921875 -0.828125q0 -0.84375 1.015625 -0.84375l1.59375 0q1.640625 -0.015625 1.71875 1.46875l0 2.8125q0 1.203125 -0.328125 1.84375q-1.109375 2.0625 -3.609375 2.0625q-4.734375 0 -4.734375 -7.8125q0 -3.3125 1.1875 -5.40625q1.1875 -2.09375 3.65625 -2.09375q2.25 0 3.25 1.734375q0.609375 1.046875 0.609375 1.828125q0 0.828125 -0.890625 0.828125q-0.828125 0 -1.0625 -0.984375q-0.421875 -1.671875 -1.984375 -1.671875q-2.859375 0 -2.859375 5.640625q0 6.25 2.828125 6.25q2.09375 0 2.109375 -2.171875l0 -2.078125zm6.71875 -3.03125q1.34375 -1.765625 2.984375 -1.765625q0.921875 0 0.921875 0.84375q0 0.84375 -1.21875 1.0q-1.203125 0.140625 -1.9375 0.875q-0.734375 0.71875 -0.75 1.484375l0 5.453125q0 1.078125 -0.90625 1.078125q-0.875 0 -0.875 -1.078125l0 -8.578125q0 -1.078125 0.90625 -1.078125q0.875 0 0.875 1.046875l0 0.71875zm8.421875 4.015625l0 0.1875q0.015625 3.28125 2.53125 3.28125q1.6875 0 2.1875 -1.546875q0.28125 -0.84375 0.984375 -0.84375q0.859375 0 0.859375 0.796875q0 1.046875 -1.09375 2.078125q-1.078125 1.015625 -2.875 1.015625q-2.09375 0 -3.265625 -1.453125q-1.15625 -1.453125 -1.15625 -3.921875q0 -2.421875 1.09375 -3.890625q1.09375 -1.484375 3.125 -1.484375q2.015625 0 3.09375 1.28125q1.09375 1.265625 1.09375 3.28125q0 1.21875 -1.265625 1.21875l-5.3125 0zm0.046875 -1.53125l4.4375 0q0.234375 0 0.234375 -0.21875q0 -0.953125 -0.578125 -1.734375q-0.578125 -0.78125 -1.71875 -0.78125q-2.09375 0 -2.375 2.734375zm9.953125 1.53125l0 0.1875q0.015625 3.28125 2.53125 3.28125q1.6875 0 2.1875 -1.546875q0.28125 -0.84375 0.984375 -0.84375q0.859375 0 0.859375 0.796875q0 1.046875 -1.09375 2.078125q-1.078125 1.015625 -2.875 1.015625q-2.09375 0 -3.265625 -1.453125q-1.15625 -1.453125 -1.15625 -3.921875q0 -2.421875 1.09375 -3.890625q1.09375 -1.484375 3.125 -1.484375q2.015625 0 3.09375 1.28125q1.09375 1.265625 1.09375 3.28125q0 1.21875 -1.265625 1.21875l-5.3125 0zm0.046875 -1.53125l4.4375 0q0.234375 0 0.234375 -0.21875q0 -0.953125 -0.578125 -1.734375q-0.578125 -0.78125 -1.71875 -0.78125q-2.09375 0 -2.375 2.734375zm11.140625 -3.953125l0 -2.640625q0 -1.0625 0.890625 -1.0625q0.890625 0 0.890625 1.0625l0 2.640625l1.6875 0q0.984375 0 0.984375 0.78125q0 0.78125 -0.984375 0.78125l-1.6875 0l0 5.75q0.015625 0.96875 0.359375 1.140625q0.21875 0.125 1.203125 0.125q0.984375 0 0.984375 0.78125q0 0.796875 -0.875 0.796875l-1.046875 0q-1.46875 0 -1.984375 -0.5625q-0.421875 -0.546875 -0.421875 -2.03125l0 -6.0l-1.421875 0q-0.984375 0 -0.984375 -0.78125q0 -0.78125 0.984375 -0.78125l1.421875 0zm10.25 0.921875q0 -1.109375 0.921875 -1.109375q0.921875 0 0.921875 1.109375l0 8.421875q0 1.09375 -0.921875 1.09375q-0.921875 0 -0.921875 -1.09375l0 -8.421875zm0.953125 -5.828125q0.546875 0 0.921875 0.4375q0.328125 0.34375 0.328125 0.84375q0 1.265625 -1.265625 1.265625q-1.265625 0 -1.265625 -1.265625q0 -1.28125 1.28125 -1.28125zm7.65625 6.515625q1.4375 -1.90625 3.359375 -1.90625q3.015625 0 3.078125 3.515625l0 6.140625q0 1.078125 -0.90625 1.078125q-0.875 0 -0.875 -1.078125l0 -5.828125q0 -2.234375 -1.65625 -2.234375q-1.25 0 -2.125 0.953125q-0.875 0.953125 -0.875 1.8125l0 5.296875q0 1.078125 -0.890625 1.078125q-0.875 0 -0.875 -1.078125l0 -8.65625q0 -1.0 0.875 -1.0q0.890625 0 0.890625 0.984375l0 0.921875zm14.640625 -1.015625q0.859375 -0.890625 1.609375 -0.890625q0.6875 0 0.6875 0.8125q0 0.59375 -0.671875 0.8125q-0.65625 0.203125 -0.84375 0.3125q0.390625 0.75 0.390625 1.5625q0 1.25 -1.0 2.109375q-1.0 0.84375 -2.515625 0.84375q-0.546875 0 -1.09375 -0.140625q-0.671875 0.25 -0.671875 0.59375q0 0.4375 1.328125 0.65625q2.59375 0.40625 3.625 1.109375q1.03125 0.6875 1.03125 1.921875q0 2.484375 -4.359375 2.484375q-4.21875 0 -4.21875 -2.359375q0 -1.609375 2.140625 -2.28125q-1.28125 -0.484375 -1.28125 -1.203125q0 -0.765625 1.28125 -1.375q-1.53125 -0.890625 -1.53125 -2.546875q0 -1.375 1.015625 -2.34375q1.015625 -0.96875 2.625 -0.96875q1.515625 0 2.453125 0.890625zm-2.453125 0.5q-0.90625 0 -1.5 0.640625q-0.484375 0.578125 -0.484375 1.296875q0 0.78125 0.546875 1.28125q0.578125 0.515625 1.4375 0.515625q1.953125 0 1.953125 -1.8125q0 -1.921875 -1.953125 -1.921875zm-0.5 7.5q-2.078125 0.40625 -2.078125 1.5q0 1.28125 2.421875 1.28125q2.796875 0 2.796875 -1.203125q0 -0.71875 -1.3125 -1.1875q-1.296875 -0.484375 -1.828125 -0.390625z" fill-rule="nonzero"/><path fill="#49352a" d="m93.70067 104.51586q0.890625 0 1.53125 0.65625q0.640625 0.640625 0.640625 1.546875q0 0.96875 -0.71875 1.640625q-0.640625 0.5625 -1.484375 0.5625q-0.984375 0 -1.640625 -0.71875q-0.5625 -0.640625 -0.5625 -1.5q0 -0.890625 0.640625 -1.53125q0.65625 -0.65625 1.59375 -0.65625zm15.984375 2.34375q1.25 0.328125 1.78125 0.984375q0.65625 0.9375 1.21875 3.953125l0.265625 1.15625l0.078125 0.5q0 0.90625 -0.984375 0.90625q-0.84375 0 -1.046875 -1.125l-0.34375 -2.15625q-0.40625 -2.484375 -1.28125 -3.03125q-0.71875 -0.53125 -1.6875 -0.53125l-1.359375 0l0 5.703125q0 1.140625 -0.921875 1.140625q-0.921875 0 -0.921875 -1.140625l0 -12.28125q0 -0.6875 0.484375 -1.15625q0.5 -0.46875 1.140625 -0.46875l2.4375 0q4.40625 0 4.40625 3.890625q0 2.953125 -3.265625 3.65625zm-3.359375 -1.0l1.515625 0q3.203125 -0.046875 3.203125 -2.640625q0 -2.203125 -2.625 -2.25l-1.28125 0q-0.796875 0.03125 -0.8125 0.828125l0 4.0625zm9.984375 3.546875l0 0.1875q0.015625 3.28125 2.53125 3.28125q1.6875 0 2.1875 -1.546875q0.28125 -0.84375 0.984375 -0.84375q0.859375 0 0.859375 0.796875q0 1.046875 -1.09375 2.078125q-1.078125 1.015625 -2.875 1.015625q-2.09375 0 -3.265625 -1.453125q-1.15625 -1.453125 -1.15625 -3.921875q0 -2.421875 1.09375 -3.890625q1.09375 -1.484375 3.125 -1.484375q2.015625 0 3.09375 1.28125q1.09375 1.265625 1.09375 3.28125q0 1.21875 -1.265625 1.21875l-5.3125 0zm0.046875 -1.53125l4.4375 0q0.234375 0 0.234375 -0.21875q0 -0.953125 -0.578125 -1.734375q-0.578125 -0.78125 -1.71875 -0.78125q-2.09375 0 -2.375 2.734375zm12.328125 4.390625l2.671875 -7.875q0.265625 -0.765625 0.90625 -0.765625q0.859375 0 0.859375 0.765625l-0.046875 0.28125l-3.015625 8.71875q-0.34375 0.96875 -1.375 0.96875q-1.03125 0 -1.359375 -0.96875l-2.9375 -8.484375q-0.109375 -0.3125 -0.109375 -0.515625q0 -0.765625 0.859375 -0.765625q0.640625 0 0.90625 0.828125l2.640625 7.8125zm9.0625 -7.421875q0 -1.109375 0.921875 -1.109375q0.921875 0 0.921875 1.109375l0 8.421875q0 1.09375 -0.921875 1.09375q-0.921875 0 -0.921875 -1.09375l0 -8.421875zm0.953125 -5.828125q0.546875 0 0.921875 0.4375q0.328125 0.34375 0.328125 0.84375q0 1.265625 -1.265625 1.265625q-1.265625 0 -1.265625 -1.265625q0 -1.28125 1.28125 -1.28125zm7.609375 10.390625l0 0.1875q0.015625 3.28125 2.53125 3.28125q1.6875 0 2.1875 -1.546875q0.28125 -0.84375 0.984375 -0.84375q0.859375 0 0.859375 0.796875q0 1.046875 -1.09375 2.078125q-1.078125 1.015625 -2.875 1.015625q-2.09375 0 -3.265625 -1.453125q-1.15625 -1.453125 -1.15625 -3.921875q0 -2.421875 1.09375 -3.890625q1.09375 -1.484375 3.125 -1.484375q2.015625 0 3.09375 1.28125q1.09375 1.265625 1.09375 3.28125q0 1.21875 -1.265625 1.21875l-5.3125 0zm0.046875 -1.53125l4.4375 0q0.234375 0 0.234375 -0.21875q0 -0.953125 -0.578125 -1.734375q-0.578125 -0.78125 -1.71875 -0.78125q-2.09375 0 -2.375 2.734375zm10.296875 3.3125l1.015625 -6.5q0.15625 -1.0625 1.015625 -1.0625q0.859375 0 1.015625 1.0625l1.0 6.5l1.109375 -6.78125q0.125 -0.78125 0.75 -0.78125q0.71875 0 0.71875 0.703125l-0.015625 0.296875l-1.484375 8.765625q-0.15625 0.96875 -0.9375 0.96875q-0.765625 0 -0.9375 -0.96875l-1.21875 -7.46875l-1.203125 7.453125q-0.15625 0.984375 -0.96875 0.984375q-0.78125 0 -0.9375 -0.984375l-1.484375 -8.75l-0.015625 -0.3125q0 -0.6875 0.71875 -0.6875q0.625 0 0.75 0.765625l1.109375 6.796875zm24.390625 1.546875q-1.5 1.625 -3.375 1.625q-1.5625 0 -2.421875 -0.828125q-0.84375 -0.84375 -0.84375 -2.109375q0 -3.390625 5.03125 -3.6875l1.609375 -0.046875l0 -0.65625q0 -1.8125 -2.109375 -1.8125q-1.359375 0 -2.0625 1.203125q-0.359375 0.609375 -1.03125 0.609375q-0.921875 0 -0.921875 -0.796875q0 -0.578125 0.5 -1.203125q1.09375 -1.40625 3.40625 -1.40625q3.90625 0 3.96875 3.4375l0 6.40625q0 0.890625 -0.890625 0.890625q-0.859375 0 -0.859375 -0.828125l0 -0.796875zm0 -3.71875q-2.984375 0.078125 -3.921875 0.6875q-0.9375 0.609375 -0.9375 1.65625q0 1.484375 1.609375 1.484375q1.21875 0 2.21875 -0.828125q1.015625 -0.84375 1.03125 -1.484375l0 -1.515625zm15.34375 -3.796875q1.09375 -1.59375 2.78125 -1.59375q1.75 0 2.78125 1.40625q1.03125 1.390625 1.03125 3.625q0 2.359375 -0.984375 3.78125q-0.96875 1.421875 -2.796875 1.421875q-1.75 0 -2.8125 -1.515625l0 3.265625q0 1.09375 -0.90625 1.09375q-0.875 0 -0.875 -1.09375l0 -11.078125q0 -0.90625 0.890625 -0.90625q0.890625 0 0.890625 0.828125l0 0.765625zm0 4.5625q0 0.84375 0.703125 1.671875q0.71875 0.828125 1.84375 0.828125q2.21875 0 2.21875 -3.59375q0 -3.46875 -2.25 -3.46875q-1.078125 0 -1.796875 0.859375q-0.703125 0.859375 -0.71875 1.75l0 1.953125zm11.5 -4.390625q1.34375 -1.765625 2.984375 -1.765625q0.921875 0 0.921875 0.84375q0 0.84375 -1.21875 1.0q-1.203125 0.140625 -1.9375 0.875q-0.734375 0.71875 -0.75 1.484375l0 5.453125q0 1.078125 -0.90625 1.078125q-0.875 0 -0.875 -1.078125l0 -8.578125q0 -1.078125 0.90625 -1.078125q0.875 0 0.875 1.046875l0 0.71875zm8.421875 4.015625l0 0.1875q0.015625 3.28125 2.53125 3.28125q1.6875 0 2.1875 -1.546875q0.28125 -0.84375 0.984375 -0.84375q0.859375 0 0.859375 0.796875q0 1.046875 -1.09375 2.078125q-1.078125 1.015625 -2.875 1.015625q-2.09375 0 -3.265625 -1.453125q-1.15625 -1.453125 -1.15625 -3.921875q0 -2.421875 1.09375 -3.890625q1.09375 -1.484375 3.125 -1.484375q2.015625 0 3.09375 1.28125q1.09375 1.265625 1.09375 3.28125q0 1.21875 -1.265625 1.21875l-5.3125 0zm0.046875 -1.53125l4.4375 0q0.234375 0 0.234375 -0.21875q0 -0.953125 -0.578125 -1.734375q-0.578125 -0.78125 -1.71875 -0.78125q-2.09375 0 -2.375 2.734375zm12.328125 4.390625l2.671875 -7.875q0.265625 -0.765625 0.90625 -0.765625q0.859375 0 0.859375 0.765625l-0.046875 0.28125l-3.015625 8.71875q-0.34375 0.96875 -1.375 0.96875q-1.03125 0 -1.359375 -0.96875l-2.9375 -8.484375q-0.109375 -0.3125 -0.109375 -0.515625q0 -0.765625 0.859375 -0.765625q0.640625 0 0.90625 0.828125l2.640625 7.8125zm9.0625 -7.421875q0 -1.109375 0.921875 -1.109375q0.921875 0 0.921875 1.109375l0 8.421875q0 1.09375 -0.921875 1.09375q-0.921875 0 -0.921875 -1.09375l0 -8.421875zm0.953125 -5.828125q0.546875 0 0.921875 0.4375q0.328125 0.34375 0.328125 0.84375q0 1.265625 -1.265625 1.265625q-1.265625 0 -1.265625 -1.265625q0 -1.28125 1.28125 -1.28125zm10.0625 4.609375q1.890625 0 3.046875 1.359375q1.15625 1.359375 1.15625 4.03125q0 5.34375 -4.28125 5.34375q-4.28125 0 -4.28125 -5.359375q0 -5.375 4.359375 -5.375zm-0.09375 1.609375q-2.4375 0 -2.4375 4.0625q0 3.453125 2.453125 3.453125q2.4375 0 2.4375 -3.703125q0 -3.8125 -2.453125 -3.8125zm12.343735 7.21875q-1.421875 1.90625 -3.359375 1.90625q-3.0156097 0 -3.0624847 -3.515625l0 -6.140625q0 -1.078125 0.890625 -1.078125q0.87498474 0 0.87498474 1.078125l0 5.84375q0 2.21875 1.671875 2.21875q1.25 0 2.109375 -0.953125q0.875 -0.953125 0.875 -1.8125l0 -5.296875q0 -1.078125 0.890625 -1.078125q0.890625 0 0.890625 1.078125l0 8.671875q0 0.984375 -0.90625 0.984375q-0.875 0 -0.875 -0.96875l0 -0.9375zm11.703125 -1.0625q0 1.296875 -0.984375 2.140625q-0.96875 0.828125 -2.875 0.828125q-1.96875 0 -3.078125 -0.875q-1.109375 -0.875 -1.109375 -1.84375q0 -0.78125 0.875 -0.78125q0.546875 0 1.203125 0.984375q0.671875 0.96875 2.078125 0.96875q1.984375 0 1.984375 -1.40625q0 -0.875 -1.359375 -1.421875l-2.09375 -0.828125q-2.484375 -0.953125 -2.484375 -2.6875q0 -1.28125 1.03125 -2.0625q1.046875 -0.78125 2.640625 -0.78125q1.71875 0 2.765625 0.84375q1.0625 0.84375 1.0625 1.65625q0 0.765625 -0.859375 0.765625q-0.625 0 -1.15625 -0.859375q-0.53125 -0.859375 -1.78125 -0.859375q-1.796875 0 -1.796875 1.265625q0 0.828125 1.453125 1.390625l2.171875 0.828125q2.3125 0.875 2.3125 2.734375zm16.21875 -7.765625q1.671875 0 2.734375 1.0q1.078125 1.0 1.078125 1.96875q0 0.859375 -0.890625 0.859375q-0.703125 0 -1.09375 -0.96875q-0.5 -1.25 -1.921875 -1.25q-2.515625 0 -2.515625 3.734375q0 3.78125 2.59375 3.78125q1.546875 0 2.078125 -1.734375q0.25 -0.859375 1.015625 -0.859375q0.890625 0 0.890625 0.84375q0 1.140625 -1.0625 2.25q-1.0625 1.109375 -2.921875 1.109375q-2.171875 0 -3.3125 -1.46875q-1.125 -1.484375 -1.125 -3.96875q0 -2.484375 1.1875 -3.890625q1.203125 -1.40625 3.265625 -1.40625zm9.828125 0q1.890625 0 3.046875 1.359375q1.15625 1.359375 1.15625 4.03125q0 5.34375 -4.28125 5.34375q-4.28125 0 -4.28125 -5.359375q0 -5.375 4.359375 -5.375zm-0.09375 1.609375q-2.4375 0 -2.4375 4.0625q0 3.453125 2.453125 3.453125q2.4375 0 2.4375 -3.703125q0 -3.8125 -2.453125 -3.8125zm7.6875 0.296875q1.4375 -1.90625 3.359375 -1.90625q3.015625 0 3.078125 3.515625l0 6.140625q0 1.078125 -0.90625 1.078125q-0.875 0 -0.875 -1.078125l0 -5.828125q0 -2.234375 -1.65625 -2.234375q-1.25 0 -2.125 0.953125q-0.875 0.953125 -0.875 1.8125l0 5.296875q0 1.078125 -0.890625 1.078125q-0.875 0 -0.875 -1.078125l0 -8.65625q0 -1.0 0.875 -1.0q0.890625 0 0.890625 0.984375l0 0.921875zm11.140625 -1.609375l0 -2.640625q0 -1.0625 0.890625 -1.0625q0.890625 0 0.890625 1.0625l0 2.640625l1.6875 0q0.984375 0 0.984375 0.78125q0 0.78125 -0.984375 0.78125l-1.6875 0l0 5.75q0.015625 0.96875 0.359375 1.140625q0.21875 0.125 1.203125 0.125q0.984375 0 0.984375 0.78125q0 0.796875 -0.875 0.796875l-1.046875 0q-1.46875 0 -1.984375 -0.5625q-0.421875 -0.546875 -0.421875 -2.03125l0 -6.0l-1.421875 0q-0.984375 0 -0.984375 -0.78125q0 -0.78125 0.984375 -0.78125l1.421875 0zm8.8125 5.484375l0 0.1875q0.015625 3.28125 2.53125 3.28125q1.6875 0 2.1875 -1.546875q0.28125 -0.84375 0.984375 -0.84375q0.859375 0 0.859375 0.796875q0 1.046875 -1.09375 2.078125q-1.078125 1.015625 -2.875 1.015625q-2.09375 0 -3.265625 -1.453125q-1.15625 -1.453125 -1.15625 -3.921875q0 -2.421875 1.09375 -3.890625q1.09375 -1.484375 3.125 -1.484375q2.015625 0 3.09375 1.28125q1.09375 1.265625 1.09375 3.28125q0 1.21875 -1.265625 1.21875l-5.3125 0zm0.046875 -1.53125l4.4375 0q0.234375 0 0.234375 -0.21875q0 -0.953125 -0.578125 -1.734375q-0.578125 -0.78125 -1.71875 -0.78125q-2.09375 0 -2.375 2.734375zm10.0 -2.34375q1.4375 -1.90625 3.359375 -1.90625q3.015625 0 3.078125 3.515625l0 6.140625q0 1.078125 -0.90625 1.078125q-0.875 0 -0.875 -1.078125l0 -5.828125q0 -2.234375 -1.65625 -2.234375q-1.25 0 -2.125 0.953125q-0.875 0.953125 -0.875 1.8125l0 5.296875q0 1.078125 -0.890625 1.078125q-0.875 0 -0.875 -1.078125l0 -8.65625q0 -1.0 0.875 -1.0q0.890625 0 0.890625 0.984375l0 0.921875zm11.140625 -1.609375l0 -2.640625q0 -1.0625 0.890625 -1.0625q0.890625 0 0.890625 1.0625l0 2.640625l1.6875 0q0.984375 0 0.984375 0.78125q0 0.78125 -0.984375 0.78125l-1.6875 0l0 5.75q0.015625 0.96875 0.359375 1.140625q0.21875 0.125 1.203125 0.125q0.984375 0 0.984375 0.78125q0 0.796875 -0.875 0.796875l-1.046875 0q-1.46875 0 -1.984375 -0.5625q-0.421875 -0.546875 -0.421875 -2.03125l0 -6.0l-1.421875 0q-0.984375 0 -0.984375 -0.78125q0 -0.78125 0.984375 -0.78125l1.421875 0z" fill-rule="nonzero"/><path fill="#49352a" d="m93.70067 132.51585q0.890625 0 1.53125 0.65625q0.640625 0.640625 0.640625 1.546875q0 0.96875 -0.71875 1.640625q-0.640625 0.5625 -1.484375 0.5625q-0.984375 0 -1.640625 -0.71875q-0.5625 -0.640625 -0.5625 -1.5q0 -0.890625 0.640625 -1.53125q0.65625 -0.65625 1.59375 -0.65625zm15.984375 2.34375q1.25 0.328125 1.78125 0.984375q0.65625 0.9375 1.21875 3.953125l0.265625 1.15625l0.078125 0.5q0 0.90625 -0.984375 0.90625q-0.84375 0 -1.046875 -1.125l-0.34375 -2.15625q-0.40625 -2.484375 -1.28125 -3.03125q-0.71875 -0.53125 -1.6875 -0.53125l-1.359375 0l0 5.703125q0 1.140625 -0.921875 1.140625q-0.921875 0 -0.921875 -1.140625l0 -12.28125q0 -0.6875 0.484375 -1.1562424q0.5 -0.46875 1.140625 -0.46875l2.4375 0q4.40625 0 4.40625 3.8906174q0 2.953125 -3.265625 3.65625zm-3.359375 -1.0l1.515625 0q3.203125 -0.046875 3.203125 -2.640625q0 -2.203125 -2.625 -2.25l-1.28125 0q-0.796875 0.03125 -0.8125 0.828125l0 4.0625zm9.984375 3.546875l0 0.1875q0.015625 3.28125 2.53125 3.28125q1.6875 0 2.1875 -1.546875q0.28125 -0.84375 0.984375 -0.84375q0.859375 0 0.859375 0.796875q0 1.046875 -1.09375 2.078125q-1.078125 1.015625 -2.875 1.015625q-2.09375 0 -3.265625 -1.453125q-1.15625 -1.453125 -1.15625 -3.921875q0 -2.421875 1.09375 -3.890625q1.09375 -1.484375 3.125 -1.484375q2.015625 0 3.09375 1.28125q1.09375 1.265625 1.09375 3.28125q0 1.21875 -1.265625 1.21875l-5.3125 0zm0.046875 -1.53125l4.4375 0q0.234375 0 0.234375 -0.21875q0 -0.953125 -0.578125 -1.734375q-0.578125 -0.78125 -1.71875 -0.78125q-2.09375 0 -2.375 2.734375zm12.328125 4.390625l2.671875 -7.875q0.265625 -0.765625 0.90625 -0.765625q0.859375 0 0.859375 0.765625l-0.046875 0.28125l-3.015625 8.71875q-0.34375 0.96875 -1.375 0.96875q-1.03125 0 -1.359375 -0.96875l-2.9375 -8.484375q-0.109375 -0.3125 -0.109375 -0.515625q0 -0.765625 0.859375 -0.765625q0.640625 0 0.90625 0.828125l2.640625 7.8125zm9.0625 -7.421875q0 -1.109375 0.921875 -1.109375q0.921875 0 0.921875 1.109375l0 8.421875q0 1.09375 -0.921875 1.09375q-0.921875 0 -0.921875 -1.09375l0 -8.421875zm0.953125 -5.8281174q0.546875 0 0.921875 0.4375q0.328125 0.34375 0.328125 0.8437424q0 1.265625 -1.265625 1.265625q-1.265625 0 -1.265625 -1.265625q0 -1.2812424 1.28125 -1.2812424zm7.609375 10.390617l0 0.1875q0.015625 3.28125 2.53125 3.28125q1.6875 0 2.1875 -1.546875q0.28125 -0.84375 0.984375 -0.84375q0.859375 0 0.859375 0.796875q0 1.046875 -1.09375 2.078125q-1.078125 1.015625 -2.875 1.015625q-2.09375 0 -3.265625 -1.453125q-1.15625 -1.453125 -1.15625 -3.921875q0 -2.421875 1.09375 -3.890625q1.09375 -1.484375 3.125 -1.484375q2.015625 0 3.09375 1.28125q1.09375 1.265625 1.09375 3.28125q0 1.21875 -1.265625 1.21875l-5.3125 0zm0.046875 -1.53125l4.4375 0q0.234375 0 0.234375 -0.21875q0 -0.953125 -0.578125 -1.734375q-0.578125 -0.78125 -1.71875 -0.78125q-2.09375 0 -2.375 2.734375zm10.296875 3.3125l1.015625 -6.5q0.15625 -1.0625 1.015625 -1.0625q0.859375 0 1.015625 1.0625l1.0 6.5l1.109375 -6.78125q0.125 -0.78125 0.75 -0.78125q0.71875 0 0.71875 0.703125l-0.015625 0.296875l-1.484375 8.765625q-0.15625 0.96875 -0.9375 0.96875q-0.765625 0 -0.9375 -0.96875l-1.21875 -7.46875l-1.203125 7.453125q-0.15625 0.984375 -0.96875 0.984375q-0.78125 0 -0.9375 -0.984375l-1.484375 -8.75l-0.015625 -0.3125q0 -0.6875 0.71875 -0.6875q0.625 0 0.75 0.765625l1.109375 6.796875zm20.0 0l1.015625 -6.5q0.15625 -1.0625 1.015625 -1.0625q0.859375 0 1.015625 1.0625l1.0 6.5l1.109375 -6.78125q0.125 -0.78125 0.75 -0.78125q0.71875 0 0.71875 0.703125l-0.015625 0.296875l-1.484375 8.765625q-0.15625 0.96875 -0.9375 0.96875q-0.765625 0 -0.9375 -0.96875l-1.21875 -7.46875l-1.203125 7.453125q-0.15625 0.984375 -0.96875 0.984375q-0.78125 0 -0.9375 -0.984375l-1.484375 -8.75l-0.015625 -0.3125q0 -0.6875 0.71875 -0.6875q0.625 0 0.75 0.765625l1.109375 6.796875zm9.703125 -5.640625q1.4375 -1.921875 3.359375 -1.921875q3.015625 0 3.078125 3.515625l0 6.140625q0 1.078125 -0.90625 1.078125q-0.875 0 -0.875 -1.078125l0 -5.828125q0 -2.234375 -1.65625 -2.234375q-1.25 0 -2.125 0.953125q-0.875 0.953125 -0.875 1.828125l0 5.28125q0 1.078125 -0.890625 1.078125q-0.875 0 -0.875 -1.078125l0 -13.171875q0 -1.0624924 0.890625 -1.0624924q0.875 0 0.875 1.0624924l0 5.4375zm14.6875 7.1875q-1.5 1.625 -3.375 1.625q-1.5625 0 -2.421875 -0.828125q-0.84375 -0.84375 -0.84375 -2.109375q0 -3.390625 5.03125 -3.6875l1.609375 -0.046875l0 -0.65625q0 -1.8125 -2.109375 -1.8125q-1.359375 0 -2.0625 1.203125q-0.359375 0.609375 -1.03125 0.609375q-0.921875 0 -0.921875 -0.796875q0 -0.578125 0.5 -1.203125q1.09375 -1.40625 3.40625 -1.40625q3.90625 0 3.96875 3.4375l0 6.40625q0 0.890625 -0.890625 0.890625q-0.859375 0 -0.859375 -0.828125l0 -0.796875zm0 -3.71875q-2.984375 0.078125 -3.921875 0.6875q-0.9375 0.609375 -0.9375 1.65625q0 1.484375 1.609375 1.484375q1.21875 0 2.21875 -0.828125q1.015625 -0.84375 1.03125 -1.484375l0 -1.515625zm6.453125 -5.09375l0 -2.640625q0 -1.0625 0.890625 -1.0625q0.890625 0 0.890625 1.0625l0 2.640625l1.6875 0q0.984375 0 0.984375 0.78125q0 0.78125 -0.984375 0.78125l-1.6875 0l0 5.75q0.015625 0.96875 0.359375 1.140625q0.21875 0.125 1.203125 0.125q0.984375 0 0.984375 0.78125q0 0.796875 -0.875 0.796875l-1.046875 0q-1.46875 0 -1.984375 -0.5625q-0.421875 -0.546875 -0.421875 -2.03125l0 -6.0l-1.421875 0q-0.984375 0 -0.984375 -0.78125q0 -0.78125 0.984375 -0.78125l1.421875 0zm20.265625 -3.765625q0 -1.1093674 0.921875 -1.1093674q0.921875 0 0.921875 1.1093674l0 13.078125q0 1.125 -0.921875 1.125q-0.921875 0 -0.921875 -1.125l0 -13.078125zm8.546875 9.25l0 0.1875q0.015625 3.28125 2.53125 3.28125q1.6875 0 2.1875 -1.546875q0.28125 -0.84375 0.984375 -0.84375q0.859375 0 0.859375 0.796875q0 1.046875 -1.09375 2.078125q-1.078125 1.015625 -2.875 1.015625q-2.09375 0 -3.265625 -1.453125q-1.15625 -1.453125 -1.15625 -3.921875q0 -2.421875 1.09375 -3.890625q1.09375 -1.484375 3.125 -1.484375q2.015625 0 3.09375 1.28125q1.09375 1.265625 1.09375 3.28125q0 1.21875 -1.265625 1.21875l-5.3125 0zm0.046875 -1.53125l4.4375 0q0.234375 0 0.234375 -0.21875q0 -0.953125 -0.578125 -1.734375q-0.578125 -0.78125 -1.71875 -0.78125q-2.09375 0 -2.375 2.734375zm14.6875 4.859375q-1.5 1.625 -3.375 1.625q-1.5625 0 -2.421875 -0.828125q-0.84375 -0.84375 -0.84375 -2.109375q0 -3.390625 5.03125 -3.6875l1.609375 -0.046875l0 -0.65625q0 -1.8125 -2.109375 -1.8125q-1.359375 0 -2.0625 1.203125q-0.359375 0.609375 -1.03125 0.609375q-0.921875 0 -0.921875 -0.796875q0 -0.578125 0.5 -1.203125q1.09375 -1.40625 3.40625 -1.40625q3.90625 0 3.96875 3.4375l0 6.40625q0 0.890625 -0.890625 0.890625q-0.859375 0 -0.859375 -0.828125l0 -0.796875zm0 -3.71875q-2.984375 0.078125 -3.921875 0.6875q-0.9375 0.609375 -0.9375 1.65625q0 1.484375 1.609375 1.484375q1.21875 0 2.21875 -0.828125q1.015625 -0.84375 1.03125 -1.484375l0 -1.515625zm6.8437347 -3.625q1.34375 -1.765625 2.984375 -1.765625q0.921875 0 0.921875 0.84375q0 0.84375 -1.21875 1.0q-1.203125 0.140625 -1.9375 0.875q-0.734375 0.71875 -0.75 1.484375l0 5.453125q0 1.078125 -0.90625 1.078125q-0.875 0 -0.875 -1.078125l0 -8.578125q0 -1.078125 0.90625 -1.078125q0.875 0 0.875 1.046875l0 0.71875zm8.46875 0.140625q1.4375 -1.90625 3.359375 -1.90625q3.015625 0 3.078125 3.515625l0 6.140625q0 1.078125 -0.90625 1.078125q-0.875 0 -0.875 -1.078125l0 -5.828125q0 -2.234375 -1.65625 -2.234375q-1.25 0 -2.125 0.953125q-0.875 0.953125 -0.875 1.8125l0 5.296875q0 1.078125 -0.890625 1.078125q-0.875 0 -0.875 -1.078125l0 -8.65625q0 -1.0 0.875 -1.0q0.890625 0 0.890625 0.984375l0 0.921875zm9.953125 3.875l0 0.1875q0.015625 3.28125 2.53125 3.28125q1.6875 0 2.1875 -1.546875q0.28125 -0.84375 0.984375 -0.84375q0.859375 0 0.859375 0.796875q0 1.046875 -1.09375 2.078125q-1.078125 1.015625 -2.875 1.015625q-2.09375 0 -3.265625 -1.453125q-1.15625 -1.453125 -1.15625 -3.921875q0 -2.421875 1.09375 -3.890625q1.09375 -1.484375 3.125 -1.484375q2.015625 0 3.09375 1.28125q1.09375 1.265625 1.09375 3.28125q0 1.21875 -1.265625 1.21875l-5.3125 0zm0.046875 -1.53125l4.4375 0q0.234375 0 0.234375 -0.21875q0 -0.953125 -0.578125 -1.734375q-0.578125 -0.78125 -1.71875 -0.78125q-2.09375 0 -2.375 2.734375zm14.640625 4.921875q-1.0625 1.5625 -2.8125 1.5625q-1.875 0 -2.84375 -1.515625q-0.953125 -1.53125 -0.953125 -3.953125q0 -2.390625 1.046875 -3.828125q1.046875 -1.4375 2.765625 -1.4375q1.703125 0 2.796875 1.625l0 -5.140625q0 -1.0624924 0.890625 -1.0624924q0.875 0 0.875 1.0624924l0 13.34375q0 0.90625 -0.890625 0.90625q-0.875 0 -0.875 -0.828125l0 -0.734375zm0 -4.890625q0 -0.84375 -0.703125 -1.765625q-0.6875 -0.921875 -1.828125 -0.921875q-2.234375 0 -2.234375 3.703125q0 3.84375 2.203125 3.84375q1.09375 0 1.828125 -0.8125q0.734375 -0.828125 0.734375 -1.765625l0 -2.28125zm21.71875 3.484375q0 1.296875 -0.984375 2.140625q-0.96875 0.828125 -2.875 0.828125q-1.96875 0 -3.078125 -0.875q-1.109375 -0.875 -1.109375 -1.84375q0 -0.78125 0.875 -0.78125q0.546875 0 1.203125 0.984375q0.671875 0.96875 2.078125 0.96875q1.984375 0 1.984375 -1.40625q0 -0.875 -1.359375 -1.421875l-2.09375 -0.828125q-2.484375 -0.953125 -2.484375 -2.6875q0 -1.28125 1.03125 -2.0625q1.046875 -0.78125 2.640625 -0.78125q1.71875 0 2.765625 0.84375q1.0625 0.84375 1.0625 1.65625q0 0.765625 -0.859375 0.765625q-0.625 0 -1.15625 -0.859375q-0.53125 -0.859375 -1.78125 -0.859375q-1.796875 0 -1.796875 1.265625q0 0.828125 1.453125 1.390625l2.171875 0.828125q2.3125 0.875 2.3125 2.734375zm6.046875 -7.765625q1.890625 0 3.046875 1.359375q1.15625 1.359375 1.15625 4.03125q0 5.34375 -4.28125 5.34375q-4.28125 0 -4.28125 -5.359375q0 -5.375 4.359375 -5.375zm-0.09375 1.609375q-2.4375 0 -2.4375 4.0625q0 3.453125 2.453125 3.453125q2.4375 0 2.4375 -3.703125q0 -3.8125 -2.453125 -3.8125zm19.046875 -1.3125l0 -2.453125q0 -2.0937424 2.296875 -2.1562424l1.25 0q0.90625 0 0.90625 0.7968674q0 0.78125 -0.90625 0.78125l-0.6875 0q-1.046875 0 -1.09375 1.046875l0 1.984375l1.796875 0q0.984375 0 0.984375 0.78125q0 0.796875 -0.984375 0.796875l-1.796875 0l0 7.78125q0 1.078125 -0.890625 1.078125q-0.875 0 -0.875 -1.078125l0 -7.78125l-1.59375 0q-0.96875 0 -0.96875 -0.796875q0 -0.78125 0.96875 -0.78125l1.59375 0zm13.328125 8.8125q-1.5 1.625 -3.375 1.625q-1.5625 0 -2.421875 -0.828125q-0.84375 -0.84375 -0.84375 -2.109375q0 -3.390625 5.03125 -3.6875l1.609375 -0.046875l0 -0.65625q0 -1.8125 -2.109375 -1.8125q-1.359375 0 -2.0625 1.203125q-0.359375 0.609375 -1.03125 0.609375q-0.921875 0 -0.921875 -0.796875q0 -0.578125 0.5 -1.203125q1.09375 -1.40625 3.40625 -1.40625q3.90625 0 3.96875 3.4375l0 6.40625q0 0.890625 -0.890625 0.890625q-0.859375 0 -0.859375 -0.828125l0 -0.796875zm0 -3.71875q-2.984375 0.078125 -3.921875 0.6875q-0.9375 0.609375 -0.9375 1.65625q0 1.484375 1.609375 1.484375q1.21875 0 2.21875 -0.828125q1.015625 -0.84375 1.03125 -1.484375l0 -1.515625zm6.84375 -3.625q1.34375 -1.765625 2.984375 -1.765625q0.921875 0 0.921875 0.84375q0 0.84375 -1.21875 1.0q-1.203125 0.140625 -1.9375 0.875q-0.734375 0.71875 -0.75 1.484375l0 5.453125q0 1.078125 -0.90625 1.078125q-0.875 0 -0.875 -1.078125l0 -8.578125q0 -1.078125 0.90625 -1.078125q0.875 0 0.875 1.046875l0 0.71875z" fill-rule="nonzero"/><path fill="#000000" fill-opacity="0.0" d="m359.64096 472.80386c-5.651886 6.0601196 -10.459045 27.869263 -33.911255 36.360596c-23.45221 8.491364 -82.12485 6.1407776 -106.802 14.587494c-24.677155 8.446716 -34.384094 30.077393 -41.26091 36.092834" fill-rule="evenodd"/><path stroke="#942a2a" stroke-width="1.0" stroke-linejoin="round" stroke-linecap="butt" stroke-dasharray="4.0,3.0" d="m359.64096 472.80386c-5.651886 6.0601196 -10.459045 27.869263 -33.911255 36.360596c-23.45221 8.491364 -82.12485 6.1407776 -106.802 14.587494c-24.677155 8.446716 -34.384094 30.077393 -41.26091 36.092834" fill-rule="evenodd"/><path fill="#b6d7a8" d="m209.681 372.50897l0 0c0 -42.565063 67.58737 -77.07086 150.96063 -77.07086l0 0c83.37326 0 150.96063 34.5058 150.96063 77.07086l0 0c0 42.565063 -67.58737 77.07086 -150.96063 77.07086l0 0c-83.37326 0 -150.96063 -34.5058 -150.96063 -77.07086z" fill-rule="evenodd"/><path stroke="#b6d7a8" stroke-width="1.0" stroke-linejoin="round" stroke-linecap="butt" d="m209.681 372.50897l0 0c0 -42.565063 67.58737 -77.07086 150.96063 -77.07086l0 0c83.37326 0 150.96063 34.5058 150.96063 77.07086l0 0c0 42.565063 -67.58737 77.07086 -150.96063 77.07086l0 0c-83.37326 0 -150.96063 -34.5058 -150.96063 -77.07086z" fill-rule="evenodd"/><path fill="#000000" fill-opacity="0.0" d="m221.71683 293.62308l233.7008 0l0 39.149628l-233.7008 0z" fill-rule="evenodd"/><path fill="#49352a" d="m238.65433 310.56683l0 16.203125q0 1.5625 -1.28125 1.5625q-1.265625 0 -1.265625 -1.5625l0 -16.203125l-3.46875 0q-1.265625 0 -1.265625 -1.171875q0 -1.140625 1.265625 -1.140625l9.453125 0q1.296875 0 1.296875 1.171875q0 1.140625 -1.296875 1.140625l-3.4375 0zm12.15625 3.4375q2.53125 0 4.0625 1.8125q1.53125 1.8125 1.53125 5.375q0 7.109375 -5.703125 7.109375q-5.6875 0 -5.6875 -7.125q0 -7.171875 5.796875 -7.171875zm-0.125 2.140625q-3.25 0 -3.25 5.40625q0 4.609375 3.28125 4.609375q3.25 0 3.25 -4.9375q0 -5.078125 -3.28125 -5.078125zm16.421875 10.078125q-1.40625 2.078125 -3.75 2.078125q-2.5 0 -3.78125 -2.03125q-1.265625 -2.03125 -1.265625 -5.25q0 -3.1875 1.390625 -5.09375q1.390625 -1.921875 3.6875 -1.921875q2.265625 0 3.71875 2.171875l0 -6.859375q0 -1.421875 1.203125 -1.421875q1.171875 0 1.171875 1.421875l0 17.78125q0 1.203125 -1.203125 1.203125q-1.171875 0 -1.171875 -1.09375l0 -0.984375zm0 -6.515625q0 -1.109375 -0.921875 -2.34375q-0.921875 -1.25 -2.4375 -1.25q-2.984375 0 -2.984375 4.953125q0 5.125 2.9375 5.125q1.453125 0 2.421875 -1.09375q0.984375 -1.09375 0.984375 -2.34375l0 -3.046875zm13.40625 6.4375q-2.0 2.15625 -4.5 2.15625q-2.078125 0 -3.21875 -1.109375q-1.125 -1.109375 -1.125 -2.796875q0 -4.53125 6.6875 -4.921875l2.15625 -0.046875l0 -0.890625q0 -2.421875 -2.8125 -2.421875q-1.8125 0 -2.75 1.625q-0.46875 0.796875 -1.390625 0.796875q-1.21875 0 -1.21875 -1.0625q0 -0.75 0.671875 -1.59375q1.46875 -1.875 4.53125 -1.875q5.203125 0 5.28125 4.59375l0 8.53125q0 1.171875 -1.171875 1.171875q-1.140625 0 -1.140625 -1.09375l0 -1.0625zm0 -4.953125q-3.984375 0.109375 -5.234375 0.921875q-1.25 0.796875 -1.25 2.203125q0 1.984375 2.140625 1.984375q1.640625 0 2.96875 -1.125q1.34375 -1.125 1.375 -1.984375l0 -2.0zm9.109375 4.328125l-4.53125 -9.6875q-0.203125 -0.4375 -0.203125 -0.75q0 -1.078125 1.171875 -1.078125q0.75 0 1.171875 0.890625l3.609375 7.8125l3.4375 -7.78125q0.421875 -0.921875 1.171875 -0.921875q1.171875 0 1.171875 1.09375q0 0.3125 -0.234375 0.84375l-6.390625 14.515625q-0.421875 0.96875 -1.25 0.96875q-1.171875 0 -1.171875 -1.015625l0.078125 -0.421875l1.96875 -4.46875zm10.90625 -19.6875q1.875 0 1.875 2.265625q0 2.109375 -1.65625 3.5625q-0.8125 0.703125 -1.171875 0.703125q-0.578125 0 -0.578125 -0.59375q0 -0.265625 0.34375 -0.5q1.5 -1.109375 1.5 -1.953125q0 -0.171875 -0.09375 -0.171875l-0.140625 0.015625l-0.15625 0.03125q-1.6875 0 -1.6875 -1.6875q0 -1.671875 1.765625 -1.671875zm35.515625 18.515625q0 1.734375 -1.3125 2.84375q-1.296875 1.109375 -3.828125 1.109375q-2.625 0 -4.109375 -1.15625q-1.484375 -1.15625 -1.484375 -2.46875q0 -1.03125 1.171875 -1.03125q0.734375 0 1.609375 1.296875q0.890625 1.296875 2.765625 1.296875q2.65625 0 2.65625 -1.875q0 -1.171875 -1.828125 -1.890625l-2.78125 -1.09375q-3.296875 -1.28125 -3.296875 -3.59375q0 -1.6875 1.375 -2.734375q1.375 -1.046875 3.515625 -1.046875q2.28125 0 3.6875 1.125q1.40625 1.125 1.40625 2.21875q0 1.015625 -1.140625 1.015625q-0.828125 0 -1.546875 -1.140625q-0.71875 -1.15625 -2.375 -1.15625q-2.40625 0 -2.40625 1.6875q0 1.09375 1.953125 1.859375l2.890625 1.09375q3.078125 1.15625 3.078125 3.640625zm21.78125 -16.453125q2.3125 0 3.640625 1.6875q1.328125 1.6875 1.328125 3.4375q0 1.140625 -1.171875 1.140625q-1.0625 0 -1.34375 -1.34375q-0.546875 -2.578125 -2.578125 -2.578125q-3.59375 0 -3.59375 8.09375q0 7.625 3.53125 7.625q2.015625 0 2.890625 -3.171875q0.34375 -1.234375 1.390625 -1.234375q1.1875 0 1.1875 1.171875q0 1.15625 -1.015625 3.046875q-1.34375 2.53125 -4.375 2.53125q-6.15625 0 -6.15625 -10.09375q0 -10.3125 6.265625 -10.3125zm11.609375 1.484375q0 -1.484375 1.21875 -1.484375q1.234375 0 1.234375 1.484375l0 17.4375q0 1.484375 -1.234375 1.484375q-1.21875 0 -1.21875 -1.484375l0 -17.4375zm17.703125 16.765625q-2.0 2.15625 -4.5 2.15625q-2.078125 0 -3.21875 -1.109375q-1.125 -1.109375 -1.125 -2.796875q0 -4.53125 6.6875 -4.921875l2.15625 -0.046875l0 -0.890625q0 -2.421875 -2.8125 -2.421875q-1.8125 0 -2.75 1.625q-0.46875 0.796875 -1.390625 0.796875q-1.21875 0 -1.21875 -1.0625q0 -0.75 0.671875 -1.59375q1.46875 -1.875 4.53125 -1.875q5.203125 0 5.28125 4.59375l0 8.53125q0 1.171875 -1.171875 1.171875q-1.140625 0 -1.140625 -1.09375l0 -1.0625zm0 -4.953125q-3.984375 0.109375 -5.234375 0.921875q-1.25 0.796875 -1.25 2.203125q0 1.984375 2.140625 1.984375q1.640625 0 2.96875 -1.125q1.34375 -1.125 1.375 -1.984375l0 -2.0zm15.546875 3.15625q0 1.734375 -1.3125 2.84375q-1.296875 1.109375 -3.828125 1.109375q-2.625 0 -4.109375 -1.15625q-1.484375 -1.15625 -1.484375 -2.46875q0 -1.03125 1.171875 -1.03125q0.734375 0 1.609375 1.296875q0.890625 1.296875 2.765625 1.296875q2.65625 0 2.65625 -1.875q0 -1.171875 -1.828125 -1.890625l-2.78125 -1.09375q-3.296875 -1.28125 -3.296875 -3.59375q0 -1.6875 1.375 -2.734375q1.375 -1.046875 3.515625 -1.046875q2.28125 0 3.6875 1.125q1.40625 1.125 1.40625 2.21875q0 1.015625 -1.140625 1.015625q-0.828125 0 -1.546875 -1.140625q-0.71875 -1.15625 -2.375 -1.15625q-2.40625 0 -2.40625 1.6875q0 1.09375 1.953125 1.859375l2.890625 1.09375q3.078125 1.15625 3.078125 3.640625zm13.328125 0q0 1.734375 -1.3125 2.84375q-1.296875 1.109375 -3.828125 1.109375q-2.625 0 -4.109375 -1.15625q-1.484375 -1.15625 -1.484375 -2.46875q0 -1.03125 1.171875 -1.03125q0.734375 0 1.609375 1.296875q0.890625 1.296875 2.765625 1.296875q2.65625 0 2.65625 -1.875q0 -1.171875 -1.828125 -1.890625l-2.78125 -1.09375q-3.296875 -1.28125 -3.296875 -3.59375q0 -1.6875 1.375 -2.734375q1.375 -1.046875 3.515625 -1.046875q2.28125 0 3.6875 1.125q1.40625 1.125 1.40625 2.21875q0 1.015625 -1.140625 1.015625q-0.828125 0 -1.546875 -1.140625q-0.71875 -1.15625 -2.375 -1.15625q-2.40625 0 -2.40625 1.6875q0 1.09375 1.953125 1.859375l2.890625 1.09375q3.078125 1.15625 3.078125 3.640625z" fill-rule="nonzero"/><path fill="#000000" fill-opacity="0.0" d="m246.71127 335.22308l340.7244 0l0 95.11813l-340.7244 0z" fill-rule="evenodd"/><path fill="#49352a" d="m265.7269 353.64185q0.890625 0 1.53125 0.65625q0.640625 0.640625 0.640625 1.546875q0 0.96875 -0.71875 1.640625q-0.640625 0.5625 -1.484375 0.5625q-0.984375 0 -1.640625 -0.71875q-0.5625 -0.640625 -0.5625 -1.5q0 -0.890625 0.640625 -1.53125q0.65625 -0.65625 1.59375 -0.65625zm17.40625 6.25l0 -10.625q0 -1.09375 0.875 -1.09375q0.90625 0 0.90625 1.09375l0 12.828125q0 1.390625 -1.109375 1.390625q-0.765625 0 -1.171875 -1.0l-4.34375 -10.640625l0 10.5625q0 1.078125 -0.890625 1.078125q-0.890625 0 -0.890625 -1.078125l0 -12.875q0 -1.359375 1.09375 -1.359375q0.734375 0 1.140625 0.96875l4.390625 10.75zm5.203125 -1.359375l0 0.1875q0.015625 3.28125 2.53125 3.28125q1.6875 0 2.1875 -1.546875q0.28125 -0.84375 0.984375 -0.84375q0.859375 0 0.859375 0.796875q0 1.046875 -1.09375 2.078125q-1.078125 1.015625 -2.875 1.015625q-2.09375 0 -3.265625 -1.453125q-1.15625 -1.453125 -1.15625 -3.921875q0 -2.421875 1.09375 -3.890625q1.09375 -1.484375 3.125 -1.484375q2.015625 0 3.09375 1.28125q1.09375 1.265625 1.09375 3.28125q0 1.21875 -1.265625 1.21875l-5.3125 0zm0.046875 -1.53125l4.4375 0q0.234375 0 0.234375 -0.21875q0 -0.953125 -0.578125 -1.734375q-0.578125 -0.78125 -1.71875 -0.78125q-2.09375 0 -2.375 2.734375zm10.296875 3.3125l1.015625 -6.5q0.15625 -1.0625 1.015625 -1.0625q0.859375 0 1.015625 1.0625l1.0 6.5l1.109375 -6.78125q0.125 -0.78125 0.75 -0.78125q0.71875 0 0.71875 0.703125l-0.015625 0.296875l-1.484375 8.765625q-0.15625 0.96875 -0.9375 0.96875q-0.765625 0 -0.9375 -0.96875l-1.21875 -7.46875l-1.203125 7.453125q-0.15625 0.984375 -0.96875 0.984375q-0.78125 0 -0.9375 -0.984375l-1.484375 -8.75l-0.015625 -0.3125q0 -0.6875 0.71875 -0.6875q0.625 0 0.75 0.765625l1.109375 6.796875zm22.03125 1.078125l2.671875 -7.875q0.265625 -0.765625 0.90625 -0.765625q0.859375 0 0.859375 0.765625l-0.046875 0.28125l-3.015625 8.71875q-0.34375 0.96875 -1.375 0.96875q-1.03125 0 -1.359375 -0.96875l-2.9375 -8.484375q-0.109375 -0.3125 -0.109375 -0.515625q0 -0.765625 0.859375 -0.765625q0.640625 0 0.90625 0.828125l2.640625 7.8125zm10.078125 -8.640625q1.890625 0 3.046875 1.359375q1.15625 1.359375 1.15625 4.03125q0 5.34375 -4.28125 5.34375q-4.28125 0 -4.28125 -5.359375q0 -5.375 4.359375 -5.375zm-0.09375 1.609375q-2.4375 0 -2.4375 4.0625q0 3.453125 2.453125 3.453125q2.4375 0 2.4375 -3.703125q0 -3.8125 -2.453125 -3.8125zm10.265625 -1.609375q1.671875 0 2.734375 1.0q1.078125 1.0 1.078125 1.96875q0 0.859375 -0.890625 0.859375q-0.703125 0 -1.09375 -0.96875q-0.5 -1.25 -1.921875 -1.25q-2.515625 0 -2.515625 3.734375q0 3.78125 2.59375 3.78125q1.546875 0 2.078125 -1.734375q0.25 -0.859375 1.015625 -0.859375q0.890625 0 0.890625 0.84375q0 1.140625 -1.0625 2.25q-1.0625 1.109375 -2.921875 1.109375q-2.171875 0 -3.3125 -1.46875q-1.125 -1.484375 -1.125 -3.96875q0 -2.484375 1.1875 -3.890625q1.203125 -1.40625 3.265625 -1.40625zm12.109375 9.109375q-1.5 1.625 -3.375 1.625q-1.5625 0 -2.421875 -0.828125q-0.84375 -0.84375 -0.84375 -2.109375q0 -3.390625 5.03125 -3.6875l1.609375 -0.046875l0 -0.65625q0 -1.8125 -2.109375 -1.8125q-1.359375 0 -2.0625 1.203125q-0.359375 0.609375 -1.03125 0.609375q-0.921875 0 -0.921875 -0.796875q0 -0.578125 0.5 -1.203125q1.09375 -1.40625 3.40625 -1.40625q3.90625 0 3.96875 3.4375l0 6.40625q0 0.890625 -0.890625 0.890625q-0.859375 0 -0.859375 -0.828125l0 -0.796875zm0 -3.71875q-2.984375 0.078125 -3.921875 0.6875q-0.9375 0.609375 -0.9375 1.65625q0 1.484375 1.609375 1.484375q1.21875 0 2.21875 -0.828125q1.015625 -0.84375 1.03125 -1.484375l0 -1.515625zm5.34375 -3.765625q1.09375 -1.625 2.78125 -1.625q1.71875 0 2.765625 1.46875q1.046875 1.46875 1.046875 3.796875q0 2.421875 -0.953125 3.953125q-0.953125 1.515625 -2.828125 1.515625q-1.765625 0 -2.8125 -1.5625l0 0.5625q0 1.0 -0.90625 1.0q-0.875 0 -0.875 -1.078125l0 -13.171875q0 -1.0625 0.890625 -1.0625q0.890625 0 0.890625 1.0625l0 5.140625zm0 4.984375q0 0.8125 0.6875 1.671875q0.6875 0.859375 1.890625 0.859375q2.1875 0 2.1875 -3.84375q0 -3.703125 -2.25 -3.703125q-1.078125 0 -1.796875 0.875q-0.703125 0.875 -0.71875 1.78125l0 2.359375zm14.625 2.21875q-1.421875 1.90625 -3.359375 1.90625q-3.015625 0 -3.0625 -3.515625l0 -6.140625q0 -1.078125 0.890625 -1.078125q0.875 0 0.875 1.078125l0 5.84375q0 2.21875 1.671875 2.21875q1.25 0 2.109375 -0.953125q0.875 -0.953125 0.875 -1.8125l0 -5.296875q0 -1.078125 0.890625 -1.078125q0.890625 0 0.890625 1.078125l0 8.671875q0 0.984375 -0.90625 0.984375q-0.875 0 -0.875 -0.96875l0 -0.9375zm6.75 -12.296875q0 -1.109375 0.921875 -1.109375q0.921875 0 0.921875 1.109375l0 13.078125q0 1.125 -0.921875 1.125q-0.921875 0 -0.921875 -1.125l0 -13.078125zm13.28125 12.578125q-1.5 1.625 -3.375 1.625q-1.5625 0 -2.421875 -0.828125q-0.84375 -0.84375 -0.84375 -2.109375q0 -3.390625 5.03125 -3.6875l1.609375 -0.046875l0 -0.65625q0 -1.8125 -2.109375 -1.8125q-1.359375 0 -2.0625 1.203125q-0.359375 0.609375 -1.03125 0.609375q-0.921875 0 -0.921875 -0.796875q0 -0.578125 0.5 -1.203125q1.09375 -1.40625 3.40625 -1.40625q3.90625 0 3.96875 3.4375l0 6.40625q0 0.890625 -0.890625 0.890625q-0.859375 0 -0.859375 -0.828125l0 -0.796875zm0 -3.71875q-2.984375 0.078125 -3.921875 0.6875q-0.9375 0.609375 -0.9375 1.65625q0 1.484375 1.609375 1.484375q1.21875 0 2.21875 -0.828125q1.015625 -0.84375 1.03125 -1.484375l0 -1.515625zm6.84375 -3.625q1.34375 -1.765625 2.984375 -1.765625q0.921875 0 0.921875 0.84375q0 0.84375 -1.21875 1.0q-1.203125 0.140625 -1.9375 0.875q-0.734375 0.71875 -0.75 1.484375l0 5.453125q0 1.078125 -0.90625 1.078125q-0.875 0 -0.875 -1.078125l0 -8.578125q0 -1.078125 0.90625 -1.078125q0.875 0 0.875 1.046875l0 0.71875zm10.0 6.875l-3.40625 -7.265625q-0.15625 -0.328125 -0.15625 -0.5625q0 -0.8125 0.890625 -0.8125q0.5625 0 0.875 0.671875l2.71875 5.859375l2.578125 -5.84375q0.3125 -0.6875 0.875 -0.6875q0.875 0 0.875 0.828125q0 0.234375 -0.171875 0.625l-4.8125 10.90625q-0.3125 0.71875 -0.9375 0.71875q-0.875 0 -0.875 -0.765625l0.0625 -0.3125l1.484375 -3.359375z" fill-rule="nonzero"/><path fill="#49352a" d="m265.7269 381.64185q0.890625 0 1.53125 0.65625q0.640625 0.640625 0.640625 1.546875q0 0.96875 -0.71875 1.640625q-0.640625 0.5625 -1.484375 0.5625q-0.984375 0 -1.640625 -0.71875q-0.5625 -0.640625 -0.5625 -1.5q0 -0.890625 0.640625 -1.53125q0.65625 -0.65625 1.59375 -0.65625zm12.703125 7.234375q0.015625 0.546875 0.5625 0.578125l5.125 0q1.0625 0 1.0625 0.875q0 0.875 -1.0625 0.875l-6.046875 0q-0.65625 0 -1.109375 -0.4375q-0.453125 -0.453125 -0.453125 -1.078125l0 -12.375q0 -1.140625 0.953125 -1.140625q0.96875 0 0.96875 1.140625l0 11.5625zm9.90625 -2.34375l0 0.1875q0.015625 3.28125 2.53125 3.28125q1.6875 0 2.1875 -1.546875q0.28125 -0.84375 0.984375 -0.84375q0.859375 0 0.859375 0.796875q0 1.046875 -1.09375 2.078125q-1.078125 1.015625 -2.875 1.015625q-2.09375 0 -3.265625 -1.453125q-1.15625 -1.453125 -1.15625 -3.921875q0 -2.421875 1.09375 -3.890625q1.09375 -1.484375 3.125 -1.484375q2.015625 0 3.09375 1.28125q1.09375 1.265625 1.09375 3.28125q0 1.21875 -1.265625 1.21875l-5.3125 0zm0.046875 -1.53125l4.4375 0q0.234375 0 0.234375 -0.21875q0 -0.953125 -0.578125 -1.734375q-0.578125 -0.78125 -1.71875 -0.78125q-2.09375 0 -2.375 2.734375zm14.6875 4.859375q-1.5 1.625 -3.375 1.625q-1.5625 0 -2.421875 -0.828125q-0.84375 -0.84375 -0.84375 -2.109375q0 -3.390625 5.03125 -3.6875l1.609375 -0.046875l0 -0.65625q0 -1.8125 -2.109375 -1.8125q-1.359375 0 -2.0625 1.203125q-0.359375 0.609375 -1.03125 0.609375q-0.921875 0 -0.921875 -0.796875q0 -0.578125 0.5 -1.203125q1.09375 -1.40625 3.40625 -1.40625q3.90625 0 3.96875 3.4375l0 6.40625q0 0.890625 -0.890625 0.890625q-0.859375 0 -0.859375 -0.828125l0 -0.796875zm0 -3.71875q-2.984375 0.078125 -3.921875 0.6875q-0.9375 0.609375 -0.9375 1.65625q0 1.484375 1.609375 1.484375q1.21875 0 2.21875 -0.828125q1.015625 -0.84375 1.03125 -1.484375l0 -1.515625zm6.84375 -3.625q1.34375 -1.765625 2.984375 -1.765625q0.921875 0 0.921875 0.84375q0 0.84375 -1.21875 1.0q-1.203125 0.140625 -1.9375 0.875q-0.734375 0.71875 -0.75 1.484375l0 5.453125q0 1.078125 -0.90625 1.078125q-0.875 0 -0.875 -1.078125l0 -8.578125q0 -1.078125 0.90625 -1.078125q0.875 0 0.875 1.046875l0 0.71875zm8.46875 0.140625q1.4375 -1.90625 3.359375 -1.90625q3.015625 0 3.078125 3.515625l0 6.140625q0 1.078125 -0.90625 1.078125q-0.875 0 -0.875 -1.078125l0 -5.828125q0 -2.234375 -1.65625 -2.234375q-1.25 0 -2.125 0.953125q-0.875 0.953125 -0.875 1.8125l0 5.296875q0 1.078125 -0.890625 1.078125q-0.875 0 -0.875 -1.078125l0 -8.65625q0 -1.0 0.875 -1.0q0.890625 0 0.890625 0.984375l0 0.921875zm20.0 0.015625q1.4375 -1.921875 3.359375 -1.921875q3.015625 0 3.078125 3.515625l0 6.140625q0 1.078125 -0.90625 1.078125q-0.875 0 -0.875 -1.078125l0 -5.828125q0 -2.234375 -1.65625 -2.234375q-1.25 0 -2.125 0.953125q-0.875 0.953125 -0.875 1.828125l0 5.28125q0 1.078125 -0.890625 1.078125q-0.875 0 -0.875 -1.078125l0 -13.171875q0 -1.0625 0.890625 -1.0625q0.875 0 0.875 1.0625l0 5.4375zm12.40625 -1.921875q1.890625 0 3.046875 1.359375q1.15625 1.359375 1.15625 4.03125q0 5.34375 -4.28125 5.34375q-4.28125 0 -4.28125 -5.359375q0 -5.375 4.359375 -5.375zm-0.09375 1.609375q-2.4375 0 -2.4375 4.0625q0 3.453125 2.453125 3.453125q2.4375 0 2.4375 -3.703125q0 -3.8125 -2.453125 -3.8125zm7.984375 5.953125l1.015625 -6.5q0.15625 -1.0625 1.015625 -1.0625q0.859375 0 1.015625 1.0625l1.0 6.5l1.109375 -6.78125q0.125 -0.78125 0.75 -0.78125q0.71875 0 0.71875 0.703125l-0.015625 0.296875l-1.484375 8.765625q-0.15625 0.96875 -0.9375 0.96875q-0.765625 0 -0.9375 -0.96875l-1.21875 -7.46875l-1.203125 7.453125q-0.15625 0.984375 -0.96875 0.984375q-0.78125 0 -0.9375 -0.984375l-1.484375 -8.75l-0.015625 -0.3125q0 -0.6875 0.71875 -0.6875q0.625 0 0.75 0.765625l1.109375 6.796875zm20.84375 -7.265625l0 -2.640625q0 -1.0625 0.890625 -1.0625q0.890625 0 0.890625 1.0625l0 2.640625l1.6875 0q0.984375 0 0.984375 0.78125q0 0.78125 -0.984375 0.78125l-1.6875 0l0 5.75q0.015625 0.96875 0.359375 1.140625q0.21875 0.125 1.203125 0.125q0.984375 0 0.984375 0.78125q0 0.796875 -0.875 0.796875l-1.046875 0q-1.46875 0 -1.984375 -0.5625q-0.421875 -0.546875 -0.421875 -2.03125l0 -6.0l-1.421875 0q-0.984375 0 -0.984375 -0.78125q0 -0.78125 0.984375 -0.78125l1.421875 0zm11.265625 -0.296875q1.890625 0 3.046875 1.359375q1.15625 1.359375 1.15625 4.03125q0 5.34375 -4.28125 5.34375q-4.28125 0 -4.28125 -5.359375q0 -5.375 4.359375 -5.375zm-0.09375 1.609375q-2.4375 0 -2.4375 4.0625q0 3.453125 2.453125 3.453125q2.4375 0 2.4375 -3.703125q0 -3.8125 -2.453125 -3.8125zm22.34375 7.21875q-1.421875 1.90625 -3.359375 1.90625q-3.015625 0 -3.0625 -3.515625l0 -6.140625q0 -1.078125 0.890625 -1.078125q0.875 0 0.875 1.078125l0 5.84375q0 2.21875 1.671875 2.21875q1.25 0 2.109375 -0.953125q0.875 -0.953125 0.875 -1.8125l0 -5.296875q0 -1.078125 0.890625 -1.078125q0.890625 0 0.890625 1.078125l0 8.671875q0 0.984375 -0.90625 0.984375q-0.875 0 -0.875 -0.96875l0 -0.9375zm11.703125 -1.0625q0 1.296875 -0.984375 2.140625q-0.96875 0.828125 -2.875 0.828125q-1.96875 0 -3.078125 -0.875q-1.109375 -0.875 -1.109375 -1.84375q0 -0.78125 0.875 -0.78125q0.546875 0 1.203125 0.984375q0.671875 0.96875 2.078125 0.96875q1.984375 0 1.984375 -1.40625q0 -0.875 -1.359375 -1.421875l-2.09375 -0.828125q-2.484375 -0.953125 -2.484375 -2.6875q0 -1.28125 1.03125 -2.0625q1.046875 -0.78125 2.640625 -0.78125q1.71875 0 2.765625 0.84375q1.0625 0.84375 1.0625 1.65625q0 0.765625 -0.859375 0.765625q-0.625 0 -1.15625 -0.859375q-0.53125 -0.859375 -1.78125 -0.859375q-1.796875 0 -1.796875 1.265625q0 0.828125 1.453125 1.390625l2.171875 0.828125q2.3125 0.875 2.3125 2.734375zm3.59375 -1.984375l0 0.1875q0.015625 3.28125 2.53125 3.28125q1.6875 0 2.1875 -1.546875q0.28125 -0.84375 0.984375 -0.84375q0.859375 0 0.859375 0.796875q0 1.046875 -1.09375 2.078125q-1.078125 1.015625 -2.875 1.015625q-2.09375 0 -3.265625 -1.453125q-1.15625 -1.453125 -1.15625 -3.921875q0 -2.421875 1.09375 -3.890625q1.09375 -1.484375 3.125 -1.484375q2.015625 0 3.09375 1.28125q1.09375 1.265625 1.09375 3.28125q0 1.21875 -1.265625 1.21875l-5.3125 0zm0.046875 -1.53125l4.4375 0q0.234375 0 0.234375 -0.21875q0 -0.953125 -0.578125 -1.734375q-0.578125 -0.78125 -1.71875 -0.78125q-2.09375 0 -2.375 2.734375zm20.0 -2.34375q1.4375 -1.90625 3.359375 -1.90625q3.015625 0 3.078125 3.515625l0 6.140625q0 1.078125 -0.90625 1.078125q-0.875 0 -0.875 -1.078125l0 -5.828125q0 -2.234375 -1.65625 -2.234375q-1.25 0 -2.125 0.953125q-0.875 0.953125 -0.875 1.8125l0 5.296875q0 1.078125 -0.890625 1.078125q-0.875 0 -0.875 -1.078125l0 -8.65625q0 -1.0 0.875 -1.0q0.890625 0 0.890625 0.984375l0 0.921875zm9.953125 3.875l0 0.1875q0.015625 3.28125 2.53125 3.28125q1.6875 0 2.1875 -1.546875q0.28125 -0.84375 0.984375 -0.84375q0.859375 0 0.859375 0.796875q0 1.046875 -1.09375 2.078125q-1.078125 1.015625 -2.875 1.015625q-2.09375 0 -3.265625 -1.453125q-1.15625 -1.453125 -1.15625 -3.921875q0 -2.421875 1.09375 -3.890625q1.09375 -1.484375 3.125 -1.484375q2.015625 0 3.09375 1.28125q1.09375 1.265625 1.09375 3.28125q0 1.21875 -1.265625 1.21875l-5.3125 0zm0.046875 -1.53125l4.4375 0q0.234375 0 0.234375 -0.21875q0 -0.953125 -0.578125 -1.734375q-0.578125 -0.78125 -1.71875 -0.78125q-2.09375 0 -2.375 2.734375zm10.296875 3.3125l1.015625 -6.5q0.15625 -1.0625 1.015625 -1.0625q0.859375 0 1.015625 1.0625l1.0 6.5l1.109375 -6.78125q0.125 -0.78125 0.75 -0.78125q0.71875 0 0.71875 0.703125l-0.015625 0.296875l-1.484375 8.765625q-0.15625 0.96875 -0.9375 0.96875q-0.765625 0 -0.9375 -0.96875l-1.21875 -7.46875l-1.203125 7.453125q-0.15625 0.984375 -0.96875 0.984375q-0.78125 0 -0.9375 -0.984375l-1.484375 -8.75l-0.015625 -0.3125q0 -0.6875 0.71875 -0.6875q0.625 0 0.75 0.765625l1.109375 6.796875zm20.0 0l1.015625 -6.5q0.15625 -1.0625 1.015625 -1.0625q0.859375 0 1.015625 1.0625l1.0 6.5l1.109375 -6.78125q0.125 -0.78125 0.75 -0.78125q0.71875 0 0.71875 0.703125l-0.015625 0.296875l-1.484375 8.765625q-0.15625 0.96875 -0.9375 0.96875q-0.765625 0 -0.9375 -0.96875l-1.21875 -7.46875l-1.203125 7.453125q-0.15625 0.984375 -0.96875 0.984375q-0.78125 0 -0.9375 -0.984375l-1.484375 -8.75l-0.015625 -0.3125q0 -0.6875 0.71875 -0.6875q0.625 0 0.75 0.765625l1.109375 6.796875zm12.109375 -7.5625q1.890625 0 3.046875 1.359375q1.15625 1.359375 1.15625 4.03125q0 5.34375 -4.28125 5.34375q-4.28125 0 -4.28125 -5.359375q0 -5.375 4.359375 -5.375zm-0.09375 1.609375q-2.4375 0 -2.4375 4.0625q0 3.453125 2.453125 3.453125q2.4375 0 2.4375 -3.703125q0 -3.8125 -2.453125 -3.8125zm9.21875 0.15625q1.34375 -1.765625 2.9844055 -1.765625q0.921875 0 0.921875 0.84375q0 0.84375 -1.21875 1.0q-1.2031555 0.140625 -1.9375305 0.875q-0.734375 0.71875 -0.75 1.484375l0 5.453125q0 1.078125 -0.90625 1.078125q-0.875 0 -0.875 -1.078125l0 -8.578125q0 -1.078125 0.90625 -1.078125q0.875 0 0.875 1.046875l0 0.71875zm13.1094055 7.40625q-1.0625 1.5625 -2.8125 1.5625q-1.875 0 -2.84375 -1.515625q-0.953125 -1.53125 -0.953125 -3.953125q0 -2.390625 1.046875 -3.828125q1.046875 -1.4375 2.765625 -1.4375q1.703125 0 2.796875 1.625l0 -5.140625q0 -1.0625 0.890625 -1.0625q0.875 0 0.875 1.0625l0 13.34375q0 0.90625 -0.890625 0.90625q-0.875 0 -0.875 -0.828125l0 -0.734375zm0 -4.890625q0 -0.84375 -0.703125 -1.765625q-0.6875 -0.921875 -1.828125 -0.921875q-2.234375 0 -2.234375 3.703125q0 3.84375 2.203125 3.84375q1.09375 0 1.828125 -0.8125q0.734375 -0.828125 0.734375 -1.765625l0 -2.28125zm11.71875 3.484375q0 1.296875 -0.984375 2.140625q-0.96875 0.828125 -2.875 0.828125q-1.96875 0 -3.078125 -0.875q-1.109375 -0.875 -1.109375 -1.84375q0 -0.78125 0.875 -0.78125q0.546875 0 1.203125 0.984375q0.671875 0.96875 2.078125 0.96875q1.984375 0 1.984375 -1.40625q0 -0.875 -1.359375 -1.421875l-2.09375 -0.828125q-2.484375 -0.953125 -2.484375 -2.6875q0 -1.28125 1.03125 -2.0625q1.046875 -0.78125 2.640625 -0.78125q1.71875 0 2.765625 0.84375q1.0625 0.84375 1.0625 1.65625q0 0.765625 -0.859375 0.765625q-0.625 0 -1.15625 -0.859375q-0.53125 -0.859375 -1.78125 -0.859375q-1.796875 0 -1.796875 1.265625q0 0.828125 1.453125 1.390625l2.171875 0.828125q2.3125 0.875 2.3125 2.734375z" fill-rule="nonzero"/><path fill="#49352a" d="m265.7269 409.64185q0.890625 0 1.53125 0.65625q0.640625 0.640625 0.640625 1.546875q0 0.96875 -0.71875 1.640625q-0.640625 0.5625 -1.484375 0.5625q-0.984375 0 -1.640625 -0.71875q-0.5625 -0.640625 -0.5625 -1.5q0 -0.890625 0.640625 -1.53125q0.65625 -0.65625 1.59375 -0.65625zm12.703125 7.234375q0.015625 0.546875 0.5625 0.578125l5.125 0q1.0625 0 1.0625 0.875q0 0.875 -1.0625 0.875l-6.046875 0q-0.65625 0 -1.109375 -0.4375q-0.453125 -0.453125 -0.453125 -1.078125l0 -12.375q0 -1.140625 0.953125 -1.140625q0.96875 0 0.96875 1.140625l0 11.5625zm9.90625 -2.34375l0 0.1875q0.015625 3.28125 2.53125 3.28125q1.6875 0 2.1875 -1.546875q0.28125 -0.84375 0.984375 -0.84375q0.859375 0 0.859375 0.796875q0 1.046875 -1.09375 2.078125q-1.078125 1.015625 -2.875 1.015625q-2.09375 0 -3.265625 -1.453125q-1.15625 -1.453125 -1.15625 -3.921875q0 -2.421875 1.09375 -3.890625q1.09375 -1.484375 3.125 -1.484375q2.015625 0 3.09375 1.28125q1.09375 1.265625 1.09375 3.28125q0 1.21875 -1.265625 1.21875l-5.3125 0zm0.046875 -1.53125l4.4375 0q0.234375 0 0.234375 -0.21875q0 -0.953125 -0.578125 -1.734375q-0.578125 -0.78125 -1.71875 -0.78125q-2.09375 0 -2.375 2.734375zm11.140625 -3.953125l0 -2.640625q0 -1.0625 0.890625 -1.0625q0.890625 0 0.890625 1.0625l0 2.640625l1.6875 0q0.984375 0 0.984375 0.78125q0 0.78125 -0.984375 0.78125l-1.6875 0l0 5.75q0.015625 0.96875 0.359375 1.140625q0.21875 0.125 1.203125 0.125q0.984375 0 0.984375 0.78125q0 0.796875 -0.875 0.796875l-1.046875 0q-1.46875 0 -1.984375 -0.5625q-0.421875 -0.546875 -0.421875 -2.03125l0 -6.0l-1.421875 0q-0.984375 0 -0.984375 -0.78125q0 -0.78125 0.984375 -0.78125l1.421875 0zm8.578125 -6.421875q1.40625 0 1.40625 1.703125q0 1.578125 -1.25 2.671875q-0.609375 0.53125 -0.890625 0.53125q-0.421875 0 -0.421875 -0.453125q0 -0.203125 0.25 -0.375q1.140625 -0.84375 1.140625 -1.46875q0 -0.125 -0.078125 -0.125l-0.109375 0.015625l-0.109375 0.015625q-1.265625 0 -1.265625 -1.265625q0 -1.25 1.328125 -1.25zm26.640625 13.890625q0 1.296875 -0.984375 2.140625q-0.96875 0.828125 -2.875 0.828125q-1.96875 0 -3.078125 -0.875q-1.109375 -0.875 -1.109375 -1.84375q0 -0.78125 0.875 -0.78125q0.546875 0 1.203125 0.984375q0.671875 0.96875 2.078125 0.96875q1.984375 0 1.984375 -1.40625q0 -0.875 -1.359375 -1.421875l-2.09375 -0.828125q-2.484375 -0.953125 -2.484375 -2.6875q0 -1.28125 1.03125 -2.0625q1.046875 -0.78125 2.640625 -0.78125q1.71875 0 2.765625 0.84375q1.0625 0.84375 1.0625 1.65625q0 0.765625 -0.859375 0.765625q-0.625 0 -1.15625 -0.859375q-0.53125 -0.859375 -1.78125 -0.859375q-1.796875 0 -1.796875 1.265625q0 0.828125 1.453125 1.390625l2.171875 0.828125q2.3125 0.875 2.3125 2.734375zm14.78125 -7.46875l0 -2.640625q0 -1.0625 0.890625 -1.0625q0.890625 0 0.890625 1.0625l0 2.640625l1.6875 0q0.984375 0 0.984375 0.78125q0 0.78125 -0.984375 0.78125l-1.6875 0l0 5.75q0.015625 0.96875 0.359375 1.140625q0.21875 0.125 1.203125 0.125q0.984375 0 0.984375 0.78125q0 0.796875 -0.875 0.796875l-1.046875 0q-1.46875 0 -1.984375 -0.5625q-0.421875 -0.546875 -0.421875 -2.03125l0 -6.0l-1.421875 0q-0.984375 0 -0.984375 -0.78125q0 -0.78125 0.984375 -0.78125l1.421875 0zm10.390625 1.46875q1.34375 -1.765625 2.984375 -1.765625q0.921875 0 0.921875 0.84375q0 0.84375 -1.21875 1.0q-1.203125 0.140625 -1.9375 0.875q-0.734375 0.71875 -0.75 1.484375l0 5.453125q0 1.078125 -0.90625 1.078125q-0.875 0 -0.875 -1.078125l0 -8.578125q0 -1.078125 0.90625 -1.078125q0.875 0 0.875 1.046875l0 0.71875zm10.0 6.875l-3.40625 -7.265625q-0.15625 -0.328125 -0.15625 -0.5625q0 -0.8125 0.890625 -0.8125q0.5625 0 0.875 0.671875l2.71875 5.859375l2.578125 -5.84375q0.3125 -0.6875 0.875 -0.6875q0.875 0 0.875 0.828125q0 0.234375 -0.171875 0.625l-4.8125 10.90625q-0.3125 0.71875 -0.9375 0.71875q-0.875 0 -0.875 -0.765625l0.0625 -0.3125l1.484375 -3.359375zm19.609375 -8.34375l0 -2.640625q0 -1.0625 0.890625 -1.0625q0.890625 0 0.890625 1.0625l0 2.640625l1.6875 0q0.984375 0 0.984375 0.78125q0 0.78125 -0.984375 0.78125l-1.6875 0l0 5.75q0.015625 0.96875 0.359375 1.140625q0.21875 0.125 1.203125 0.125q0.984375 0 0.984375 0.78125q0 0.796875 -0.875 0.796875l-1.046875 0q-1.46875 0 -1.984375 -0.5625q-0.421875 -0.546875 -0.421875 -2.03125l0 -6.0l-1.421875 0q-0.984375 0 -0.984375 -0.78125q0 -0.78125 0.984375 -0.78125l1.421875 0zm11.265625 -0.296875q1.890625 0 3.046875 1.359375q1.15625 1.359375 1.15625 4.03125q0 5.34375 -4.28125 5.34375q-4.28125 0 -4.28125 -5.359375q0 -5.375 4.359375 -5.375zm-0.09375 1.609375q-2.4375 0 -2.4375 4.0625q0 3.453125 2.453125 3.453125q2.4375 0 2.4375 -3.703125q0 -3.8125 -2.453125 -3.8125zm22.34375 7.21875q-1.421875 1.90625 -3.359375 1.90625q-3.015625 0 -3.0625 -3.515625l0 -6.140625q0 -1.078125 0.890625 -1.078125q0.875 0 0.875 1.078125l0 5.84375q0 2.21875 1.671875 2.21875q1.25 0 2.109375 -0.953125q0.875 -0.953125 0.875 -1.8125l0 -5.296875q0 -1.078125 0.890625 -1.078125q0.890625 0 0.890625 1.078125l0 8.671875q0 0.984375 -0.90625 0.984375q-0.875 0 -0.875 -0.96875l0 -0.9375zm11.703125 -1.0625q0 1.296875 -0.984375 2.140625q-0.96875 0.828125 -2.875 0.828125q-1.96875 0 -3.078125 -0.875q-1.109375 -0.875 -1.109375 -1.84375q0 -0.78125 0.875 -0.78125q0.546875 0 1.203125 0.984375q0.671875 0.96875 2.078125 0.96875q1.984375 0 1.984375 -1.40625q0 -0.875 -1.359375 -1.421875l-2.09375 -0.828125q-2.484375 -0.953125 -2.484375 -2.6875q0 -1.28125 1.03125 -2.0625q1.046875 -0.78125 2.640625 -0.78125q1.71875 0 2.765625 0.84375q1.0625 0.84375 1.0625 1.65625q0 0.765625 -0.859375 0.765625q-0.625 0 -1.15625 -0.859375q-0.53125 -0.859375 -1.78125 -0.859375q-1.796875 0 -1.796875 1.265625q0 0.828125 1.453125 1.390625l2.171875 0.828125q2.3125 0.875 2.3125 2.734375zm3.59375 -1.984375l0 0.1875q0.015625 3.28125 2.53125 3.28125q1.6875 0 2.1875 -1.546875q0.28125 -0.84375 0.984375 -0.84375q0.859375 0 0.859375 0.796875q0 1.046875 -1.09375 2.078125q-1.078125 1.015625 -2.875 1.015625q-2.09375 0 -3.265625 -1.453125q-1.15625 -1.453125 -1.15625 -3.921875q0 -2.421875 1.09375 -3.890625q1.09375 -1.484375 3.125 -1.484375q2.015625 0 3.09375 1.28125q1.09375 1.265625 1.09375 3.28125q0 1.21875 -1.265625 1.21875l-5.3125 0zm0.046875 -1.53125l4.4375 0q0.234375 0 0.234375 -0.21875q0 -0.953125 -0.578125 -1.734375q-0.578125 -0.78125 -1.71875 -0.78125q-2.09375 0 -2.375 2.734375zm21.390625 -3.03125q0 -1.109375 0.921875 -1.109375q0.921875 0 0.921875 1.109375l0 8.421875q0 1.09375 -0.921875 1.09375q-0.921875 0 -0.921875 -1.09375l0 -8.421875zm0.953125 -5.828125q0.546875 0 0.921875 0.4375q0.328125 0.34375 0.328125 0.84375q0 1.265625 -1.265625 1.265625q-1.265625 0 -1.265625 -1.265625q0 -1.28125 1.28125 -1.28125zm8.796875 4.90625l0 -2.640625q0 -1.0625 0.890625 -1.0625q0.890625 0 0.890625 1.0625l0 2.640625l1.6875 0q0.984375 0 0.984375 0.78125q0 0.78125 -0.984375 0.78125l-1.6875 0l0 5.75q0.015625 0.96875 0.359375 1.140625q0.21875 0.125 1.203125 0.125q0.984375 0 0.984375 0.78125q0 0.796875 -0.875 0.796875l-1.046875 0q-1.46875 0 -1.984375 -0.5625q-0.421875 -0.546875 -0.421875 -2.03125l0 -6.0l-1.421875 0q-0.984375 0 -0.984375 -0.78125q0 -0.78125 0.984375 -0.78125l1.421875 0z" fill-rule="nonzero"/><path fill="#6d9eeb" d="m32.760185 673.7395l0 0c0 -42.565063 67.58738 -77.07086 150.96063 -77.07086l0 0c83.373245 0 150.96065 34.5058 150.96065 77.07086l0 0c0 42.565063 -67.5874 77.07086 -150.96065 77.07086l0 0c-83.373245 0 -150.96063 -34.5058 -150.96063 -77.07086z" fill-rule="evenodd"/><path stroke="#6d9eeb" stroke-width="1.0" stroke-linejoin="round" stroke-linecap="butt" d="m32.760185 673.7395l0 0c0 -42.565063 67.58738 -77.07086 150.96063 -77.07086l0 0c83.373245 0 150.96065 34.5058 150.96065 77.07086l0 0c0 42.565063 -67.5874 77.07086 -150.96065 77.07086l0 0c-83.373245 0 -150.96063 -34.5058 -150.96063 -77.07086z" fill-rule="evenodd"/><path fill="#000000" fill-opacity="0.0" d="m44.522396 598.5066l253.41733 0l0 39.149597l-253.41733 0z" fill-rule="evenodd"/><path fill="#49352a" d="m61.459896 615.4503l0 16.203125q0 1.5625 -1.28125 1.5625q-1.265625 0 -1.265625 -1.5625l0 -16.203125l-3.46875 0q-1.265625 0 -1.265625 -1.171875q0 -1.140625 1.265625 -1.140625l9.453129 0q1.296875 0 1.296875 1.171875q0 1.140625 -1.296875 1.140625l-3.4375038 0zm12.156254 3.4375q2.53125 0 4.0625 1.8125q1.53125 1.8125 1.53125 5.375q0 7.109375 -5.703125 7.109375q-5.6875 0 -5.6875 -7.125q0 -7.171875 5.796875 -7.171875zm-0.125 2.140625q-3.25 0 -3.25 5.40625q0 4.609375 3.28125 4.609375q3.25 0 3.25 -4.9375q0 -5.078125 -3.28125 -5.078125zm16.421875 10.078125q-1.40625 2.078125 -3.75 2.078125q-2.5 0 -3.78125 -2.03125q-1.265625 -2.03125 -1.265625 -5.25q0 -3.1875 1.390625 -5.09375q1.390625 -1.921875 3.6875 -1.921875q2.265625 0 3.71875 2.171875l0 -6.859375q0 -1.421875 1.203125 -1.421875q1.171875 0 1.171875 1.421875l0 17.78125q0 1.203125 -1.203125 1.203125q-1.171875 0 -1.171875 -1.09375l0 -0.984375zm0 -6.515625q0 -1.109375 -0.921875 -2.34375q-0.921875 -1.25 -2.4375 -1.25q-2.984375 0 -2.984375 4.953125q0 5.125 2.9375 5.125q1.453125 0 2.421875 -1.09375q0.984375 -1.09375 0.984375 -2.34375l0 -3.046875zm13.40625 6.4375q-2.0 2.15625 -4.5 2.15625q-2.078125 0 -3.21875 -1.109375q-1.125 -1.109375 -1.125 -2.796875q0 -4.53125 6.6875 -4.921875l2.15625 -0.046875l0 -0.890625q0 -2.421875 -2.8125 -2.421875q-1.8125 0 -2.75 1.625q-0.46875 0.796875 -1.390625 0.796875q-1.21875 0 -1.21875 -1.0625q0 -0.75 0.671875 -1.59375q1.46875 -1.875 4.53125 -1.875q5.203125 0 5.28125 4.59375l0 8.53125q0 1.171875 -1.171875 1.171875q-1.140625 0 -1.140625 -1.09375l0 -1.0625zm0 -4.953125q-3.984375 0.109375 -5.234375 0.921875q-1.25 0.796875 -1.25 2.203125q0 1.984375 2.140625 1.984375q1.640625 0 2.96875 -1.125q1.34375 -1.125 1.375 -1.984375l0 -2.0zm9.109375 4.328125l-4.53125 -9.6875q-0.203125 -0.4375 -0.203125 -0.75q0 -1.078125 1.171875 -1.078125q0.75 0 1.171875 0.890625l3.609375 7.8125l3.4375 -7.78125q0.421875 -0.921875 1.171875 -0.921875q1.171875 0 1.171875 1.09375q0 0.3125 -0.234375 0.84375l-6.390625 14.515625q-0.421875 0.96875 -1.25 0.96875q-1.171875 0 -1.171875 -1.015625l0.078125 -0.421875l1.96875 -4.46875zm10.90625 -19.6875q1.875 0 1.875 2.265625q0 2.109375 -1.65625 3.5625q-0.8125 0.703125 -1.171875 0.703125q-0.578125 0 -0.578125 -0.59375q0 -0.265625 0.34375 -0.5q1.5 -1.109375 1.5 -1.953125q0 -0.171875 -0.09375 -0.171875l-0.140625 0.015625l-0.15625 0.03125q-1.6875 0 -1.6875 -1.6875q0 -1.671875 1.765625 -1.671875zm35.515625 18.515625q0 1.734375 -1.3125 2.84375q-1.296875 1.109375 -3.828125 1.109375q-2.625 0 -4.109375 -1.15625q-1.484375 -1.15625 -1.484375 -2.46875q0 -1.03125 1.171875 -1.03125q0.734375 0 1.609375 1.296875q0.890625 1.296875 2.765625 1.296875q2.65625 0 2.65625 -1.875q0 -1.171875 -1.828125 -1.890625l-2.78125 -1.09375q-3.296875 -1.28125 -3.296875 -3.59375q0 -1.6875 1.375 -2.734375q1.375 -1.046875 3.515625 -1.046875q2.28125 0 3.6875 1.125q1.40625 1.125 1.40625 2.21875q0 1.015625 -1.140625 1.015625q-0.828125 0 -1.546875 -1.140625q-0.71875 -1.15625 -2.375 -1.15625q-2.40625 0 -2.40625 1.6875q0 1.09375 1.953125 1.859375l2.890625 1.09375q3.078125 1.15625 3.078125 3.640625zm27.0625 -1.75q0 2.625 -1.515625 4.171875q-1.5 1.53125 -4.109375 1.53125q-3.640625 0 -5.140625 -2.84375q-0.78125 -1.453125 -0.78125 -2.625q0 -1.328125 1.296875 -1.328125q1.171875 0 1.4375 1.5625q0.484375 3.0 3.25 3.0q1.328125 0 2.1875 -0.9375q0.859375 -0.9375 0.859375 -2.421875q0 -2.34375 -2.734375 -3.625l-2.703125 -1.265625q-3.390625 -1.59375 -3.390625 -4.84375q0 -2.40625 1.5625 -3.734375q1.5625 -1.34375 3.78125 -1.34375q2.5625 0 4.078125 1.515625q1.515625 1.5 1.515625 3.1875q0 1.25 -1.25 1.25q-1.078125 0 -1.484375 -1.453125q-0.625 -2.265625 -2.890625 -2.265625q-2.859375 0 -2.859375 2.765625q0 1.765625 2.03125 2.734375l3.03125 1.421875q3.828125 1.796875 3.828125 5.546875zm7.65625 -8.59375q2.53125 0 4.0625 1.8125q1.53125 1.8125 1.53125 5.375q0 7.109375 -5.703125 7.109375q-5.6875 0 -5.6875 -7.125q0 -7.171875 5.796875 -7.171875zm-0.125 2.140625q-3.25 0 -3.25 5.40625q0 4.609375 3.28125 4.609375q3.25 0 3.25 -4.9375q0 -5.078125 -3.28125 -5.078125zm10.25 0.390625q1.90625 -2.53125 4.484375 -2.53125q4.0 0 4.078125 4.6875l0 8.171875q0 1.4375 -1.1875 1.4375q-1.171875 0 -1.171875 -1.4375l0 -7.75q0 -3.0 -2.21875 -3.0q-1.65625 0 -2.828125 1.28125q-1.15625 1.28125 -1.15625 2.421875l0 7.046875q0 1.4375 -1.1875 1.4375q-1.171875 0 -1.171875 -1.4375l0 -11.53125q0 -1.328125 1.171875 -1.328125q1.1875 0 1.1875 1.3125l0 1.21875zm19.5 -1.359375q1.140625 -1.171875 2.15625 -1.171875q0.921875 0 0.921875 1.078125q0 0.796875 -0.890625 1.078125q-0.890625 0.265625 -1.140625 0.421875q0.515625 1.0 0.515625 2.09375q0 1.65625 -1.328125 2.796875q-1.328125 1.125 -3.359375 1.125q-0.71875 0 -1.453125 -0.1875q-0.890625 0.34375 -0.890625 0.78125q0 0.609375 1.78125 0.890625q3.453125 0.546875 4.8125 1.46875q1.375 0.921875 1.375 2.5625q0 3.3125 -5.796875 3.3125q-5.625 0 -5.625 -3.15625q0 -2.125 2.859375 -3.015625q-1.71875 -0.65625 -1.71875 -1.609375q0 -1.015625 1.71875 -1.828125q-2.0625 -1.1875 -2.0625 -3.40625q0 -1.828125 1.359375 -3.109375q1.359375 -1.296875 3.515625 -1.296875q2.0 0 3.25 1.171875zm-3.25 0.6875q-1.21875 0 -2.0 0.859375q-0.65625 0.75 -0.65625 1.71875q0 1.03125 0.734375 1.71875q0.78125 0.671875 1.921875 0.671875q2.59375 0 2.59375 -2.421875q0 -2.546875 -2.59375 -2.546875zm-0.671875 9.984375q-2.765625 0.546875 -2.765625 2.015625q0 1.6875 3.234375 1.6875q3.71875 0 3.71875 -1.59375q0 -0.953125 -1.75 -1.59375q-1.734375 -0.640625 -2.4375 -0.515625z" fill-rule="nonzero"/><path fill="#000000" fill-opacity="0.0" d="m85.14173 651.68506l301.92126 0l0 72.78735l-301.92126 0z" fill-rule="evenodd"/><path fill="#49352a" d="m104.15736 670.10376q0.890625 0 1.53125 0.65625q0.640625 0.640625 0.640625 1.546875q0 0.96875 -0.71875 1.640625q-0.640625 0.5625 -1.484375 0.5625q-0.984375 0 -1.640625 -0.71875q-0.5625 -0.640625 -0.5625 -1.5q0 -0.890625 0.640625 -1.53125q0.65625 -0.65625 1.59375 -0.65625zm12.703125 7.234375q0.015625 0.546875 0.5625 0.578125l5.125 0q1.0625 0 1.0625 0.875q0 0.875 -1.0625 0.875l-6.046875 0q-0.65625 0 -1.109375 -0.4375q-0.453125 -0.453125 -0.453125 -1.078125l0 -12.375q0 -1.140625 0.953125 -1.140625q0.96875 0 0.96875 1.140625l0 11.5625zm9.90625 -2.34375l0 0.1875q0.015625 3.28125 2.5312576 3.28125q1.6875 0 2.1875 -1.546875q0.28125 -0.84375 0.984375 -0.84375q0.859375 0 0.859375 0.796875q0 1.046875 -1.09375 2.078125q-1.078125 1.015625 -2.875 1.015625q-2.0937576 0 -3.2656326 -1.453125q-1.15625 -1.453125 -1.15625 -3.921875q0 -2.421875 1.09375 -3.890625q1.09375 -1.484375 3.1250076 -1.484375q2.015625 0 3.09375 1.28125q1.09375 1.265625 1.09375 3.28125q0 1.21875 -1.265625 1.21875l-5.3125076 0zm0.046875 -1.53125l4.4375076 0q0.234375 0 0.234375 -0.21875q0 -0.953125 -0.578125 -1.734375q-0.578125 -0.78125 -1.71875 -0.78125q-2.0937576 0 -2.3750076 2.734375zm14.687508 4.859375q-1.5 1.625 -3.375 1.625q-1.5625 0 -2.421875 -0.828125q-0.84375 -0.84375 -0.84375 -2.109375q0 -3.390625 5.03125 -3.6875l1.609375 -0.046875l0 -0.65625q0 -1.8125 -2.109375 -1.8125q-1.359375 0 -2.0625 1.203125q-0.359375 0.609375 -1.03125 0.609375q-0.921875 0 -0.921875 -0.796875q0 -0.578125 0.5 -1.203125q1.09375 -1.40625 3.40625 -1.40625q3.90625 0 3.96875 3.4375l0 6.40625q0 0.890625 -0.890625 0.890625q-0.859375 0 -0.859375 -0.828125l0 -0.796875zm0 -3.71875q-2.984375 0.078125 -3.921875 0.6875q-0.9375 0.609375 -0.9375 1.65625q0 1.484375 1.609375 1.484375q1.21875 0 2.21875 -0.828125q1.015625 -0.84375 1.03125 -1.484375l0 -1.515625zm6.84375 -3.625q1.34375 -1.765625 2.984375 -1.765625q0.921875 0 0.921875 0.84375q0 0.84375 -1.21875 1.0q-1.203125 0.140625 -1.9375 0.875q-0.734375 0.71875 -0.75 1.484375l0 5.453125q0 1.078125 -0.90625 1.078125q-0.875 0 -0.875 -1.078125l0 -8.578125q0 -1.078125 0.90625 -1.078125q0.875 0 0.875 1.046875l0 0.71875zm8.46875 0.140625q1.4375 -1.90625 3.359375 -1.90625q3.015625 0 3.078125 3.515625l0 6.140625q0 1.078125 -0.90625 1.078125q-0.875 0 -0.875 -1.078125l0 -5.828125q0 -2.234375 -1.65625 -2.234375q-1.25 0 -2.125 0.953125q-0.875 0.953125 -0.875 1.8125l0 5.296875q0 1.078125 -0.890625 1.078125q-0.875 0 -0.875 -1.078125l0 -8.65625q0 -1.0 0.875 -1.0q0.890625 0 0.890625 0.984375l0 0.921875zm11.390625 -0.6875q0 -1.109375 0.921875 -1.109375q0.921875 0 0.921875 1.109375l0 8.421875q0 1.09375 -0.921875 1.09375q-0.921875 0 -0.921875 -1.09375l0 -8.421875zm0.953125 -5.828125q0.546875 0 0.921875 0.4375q0.328125 0.34375 0.328125 0.84375q0 1.265625 -1.265625 1.265625q-1.265625 0 -1.265625 -1.265625q0 -1.28125 1.28125 -1.28125zm7.65625 6.515625q1.4375 -1.90625 3.359375 -1.90625q3.015625 0 3.078125 3.515625l0 6.140625q0 1.078125 -0.90625 1.078125q-0.875 0 -0.875 -1.078125l0 -5.828125q0 -2.234375 -1.65625 -2.234375q-1.25 0 -2.125 0.953125q-0.875 0.953125 -0.875 1.8125l0 5.296875q0 1.078125 -0.890625 1.078125q-0.875 0 -0.875 -1.078125l0 -8.65625q0 -1.0 0.875 -1.0q0.890625 0 0.890625 0.984375l0 0.921875zm14.640625 -1.015625q0.859375 -0.890625 1.609375 -0.890625q0.6875 0 0.6875 0.8125q0 0.59375 -0.671875 0.8125q-0.65625 0.203125 -0.84375 0.3125q0.390625 0.75 0.390625 1.5625q0 1.25 -1.0 2.109375q-1.0 0.84375 -2.515625 0.84375q-0.546875 0 -1.09375 -0.140625q-0.671875 0.25 -0.671875 0.59375q0 0.4375 1.328125 0.65625q2.59375 0.40625 3.625 1.109375q1.03125 0.6875 1.03125 1.921875q0 2.484375 -4.359375 2.484375q-4.21875 0 -4.21875 -2.359375q0 -1.609375 2.140625 -2.28125q-1.28125 -0.484375 -1.28125 -1.203125q0 -0.765625 1.28125 -1.375q-1.53125 -0.890625 -1.53125 -2.546875q0 -1.375 1.015625 -2.34375q1.015625 -0.96875 2.625 -0.96875q1.515625 0 2.453125 0.890625zm-2.453125 0.5q-0.90625 0 -1.5 0.640625q-0.484375 0.578125 -0.484375 1.296875q0 0.78125 0.546875 1.28125q0.578125 0.515625 1.4375 0.515625q1.953125 0 1.953125 -1.8125q0 -1.921875 -1.953125 -1.921875zm-0.5 7.5q-2.078125 0.40625 -2.078125 1.5q0 1.28125 2.421875 1.28125q2.796875 0 2.796875 -1.203125q0 -0.71875 -1.3125 -1.1875q-1.296875 -0.484375 -1.828125 -0.390625zm18.609375 -1.328125l1.015625 -6.5q0.15625 -1.0625 1.015625 -1.0625q0.859375 0 1.015625 1.0625l1.0 6.5l1.109375 -6.78125q0.125 -0.78125 0.75 -0.78125q0.71875 0 0.71875 0.703125l-0.015625 0.296875l-1.484375 8.765625q-0.15625 0.96875 -0.9375 0.96875q-0.765625 0 -0.9375 -0.96875l-1.21875 -7.46875l-1.203125 7.453125q-0.15625 0.984375 -0.96875 0.984375q-0.78125 0 -0.9375 -0.984375l-1.484375 -8.75l-0.015625 -0.3125q0 -0.6875 0.71875 -0.6875q0.625 0 0.75 0.765625l1.109375 6.796875zm12.109375 -7.5625q1.890625 0 3.046875 1.359375q1.15625 1.359375 1.15625 4.03125q0 5.34375 -4.28125 5.34375q-4.28125 0 -4.28125 -5.359375q0 -5.375 4.359375 -5.375zm-0.09375 1.609375q-2.4375 0 -2.4375 4.0625q0 3.453125 2.453125 3.453125q2.4375 0 2.4375 -3.703125q0 -3.8125 -2.453125 -3.8125zm9.21875 0.15625q1.34375 -1.765625 2.984375 -1.765625q0.921875 0 0.921875 0.84375q0 0.84375 -1.21875 1.0q-1.203125 0.140625 -1.9375 0.875q-0.734375 0.71875 -0.75 1.484375l0 5.453125q0 1.078125 -0.90625 1.078125q-0.875 0 -0.875 -1.078125l0 -8.578125q0 -1.078125 0.90625 -1.078125q0.875 0 0.875 1.046875l0 0.71875zm13.109375 7.40625q-1.0625 1.5625 -2.8125 1.5625q-1.875 0 -2.84375 -1.515625q-0.953125 -1.53125 -0.953125 -3.953125q0 -2.390625 1.046875 -3.828125q1.046875 -1.4375 2.765625 -1.4375q1.703125 0 2.796875 1.625l0 -5.140625q0 -1.0625 0.890625 -1.0625q0.875 0 0.875 1.0625l0 13.34375q0 0.90625 -0.890625 0.90625q-0.875 0 -0.875 -0.828125l0 -0.734375zm0 -4.890625q0 -0.84375 -0.703125 -1.765625q-0.6875 -0.921875 -1.828125 -0.921875q-2.234375 0 -2.234375 3.703125q0 3.84375 2.203125 3.84375q1.09375 0 1.828125 -0.8125q0.734375 -0.828125 0.734375 -1.765625l0 -2.28125zm11.71875 3.484375q0 1.296875 -0.984375 2.140625q-0.96875 0.828125 -2.875 0.828125q-1.96875 0 -3.078125 -0.875q-1.109375 -0.875 -1.109375 -1.84375q0 -0.78125 0.875 -0.78125q0.546875 0 1.203125 0.984375q0.671875 0.96875 2.078125 0.96875q1.984375 0 1.984375 -1.40625q0 -0.875 -1.359375 -1.421875l-2.09375 -0.828125q-2.484375 -0.953125 -2.484375 -2.6875q0 -1.28125 1.03125 -2.0625q1.046875 -0.78125 2.640625 -0.78125q1.71875 0 2.765625 0.84375q1.0625 0.84375 1.0625 1.65625q0 0.765625 -0.859375 0.765625q-0.625 0 -1.15625 -0.859375q-0.53125 -0.859375 -1.78125 -0.859375q-1.796875 0 -1.796875 1.265625q0 0.828125 1.453125 1.390625l2.171875 0.828125q2.3125 0.875 2.3125 2.734375zm14.999985 -7.46875l0 -2.453125q0 -2.09375 2.296875 -2.15625l1.25 0q0.90625 0 0.90625 0.796875q0 0.78125 -0.90625 0.78125l-0.6875 0q-1.046875 0 -1.09375 1.046875l0 1.984375l1.796875 0q0.984375 0 0.984375 0.78125q0 0.796875 -0.984375 0.796875l-1.796875 0l0 7.78125q0 1.078125 -0.890625 1.078125q-0.875 0 -0.875 -1.078125l0 -7.78125l-1.59375 0q-0.96875 0 -0.96875 -0.796875q0 -0.78125 0.96875 -0.78125l1.59375 0zm10.171875 1.46875q1.34375 -1.765625 2.984375 -1.765625q0.921875 0 0.921875 0.84375q0 0.84375 -1.21875 1.0q-1.203125 0.140625 -1.9375 0.875q-0.734375 0.71875 -0.75 1.484375l0 5.453125q0 1.078125 -0.90625 1.078125q-0.875 0 -0.875 -1.078125l0 -8.578125q0 -1.078125 0.90625 -1.078125q0.875 0 0.875 1.046875l0 0.71875zm10.875 -1.765625q1.890625 0 3.046875 1.359375q1.15625 1.359375 1.15625 4.03125q0 5.34375 -4.28125 5.34375q-4.28125 0 -4.28125 -5.359375q0 -5.375 4.359375 -5.375zm-0.09375 1.609375q-2.4375 0 -2.4375 4.0625q0 3.453125 2.453125 3.453125q2.4375 0 2.4375 -3.703125q0 -3.8125 -2.453125 -3.8125zm10.65625 -0.3125q0.765625 -1.296875 1.84375 -1.296875q1.796875 0 1.8125 2.703125l0 7.046875q0 0.984375 -0.84375 0.984375q-0.8125 0 -0.8125 -0.984375l0 -6.9375q0 -1.40625 -0.59375 -1.40625q-0.5 0 -0.859375 0.671875q-0.34375 0.65625 -0.34375 1.046875l0 6.625q0 0.984375 -0.84375 0.984375q-0.8125 0 -0.8125 -0.984375l0 -6.796875q0 -1.546875 -0.546875 -1.546875q-0.390625 0 -0.84375 0.625q-0.4375 0.625 -0.4375 1.15625l0 6.5625q0 0.984375 -0.828125 0.984375q-0.828125 0 -0.828125 -0.984375l0 -8.9375q0 -0.8125 0.84375 -0.8125q0.8125 0 0.8125 0.703125l0 0.546875q0.828125 -1.25 1.796875 -1.25q1.125 0 1.484375 1.296875zm21.71875 7.8125q-1.5 1.625 -3.375 1.625q-1.5625 0 -2.421875 -0.828125q-0.84375 -0.84375 -0.84375 -2.109375q0 -3.390625 5.03125 -3.6875l1.609375 -0.046875l0 -0.65625q0 -1.8125 -2.109375 -1.8125q-1.359375 0 -2.0625 1.203125q-0.359375 0.609375 -1.03125 0.609375q-0.921875 0 -0.921875 -0.796875q0 -0.578125 0.5 -1.203125q1.09375 -1.40625 3.40625 -1.40625q3.90625 0 3.96875 3.4375l0 6.40625q0 0.890625 -0.890625 0.890625q-0.859375 0 -0.859375 -0.828125l0 -0.796875zm0 -3.71875q-2.984375 0.078125 -3.921875 0.6875q-0.9375 0.609375 -0.9375 1.65625q0 1.484375 1.609375 1.484375q1.21875 0 2.21875 -0.828125q1.015625 -0.84375 1.03125 -1.484375l0 -1.515625zm21.671875 2.375q0 1.296875 -0.984375 2.140625q-0.96875 0.828125 -2.875 0.828125q-1.96875 0 -3.078125 -0.875q-1.109375 -0.875 -1.109375 -1.84375q0 -0.78125 0.875 -0.78125q0.546875 0 1.203125 0.984375q0.671875 0.96875 2.078125 0.96875q1.984375 0 1.984375 -1.40625q0 -0.875 -1.359375 -1.421875l-2.09375 -0.828125q-2.484375 -0.953125 -2.484375 -2.6875q0 -1.28125 1.03125 -2.0625q1.046875 -0.78125 2.640625 -0.78125q1.71875 0 2.765625 0.84375q1.0625 0.84375 1.0625 1.65625q0 0.765625 -0.859375 0.765625q-0.625 0 -1.15625 -0.859375q-0.53125 -0.859375 -1.78125 -0.859375q-1.796875 0 -1.796875 1.265625q0 0.828125 1.453125 1.390625l2.171875 0.828125q2.3125 0.875 2.3125 2.734375zm6.046875 -7.765625q1.890625 0 3.046875 1.359375q1.15625 1.359375 1.15625 4.03125q0 5.34375 -4.28125 5.34375q-4.28125 0 -4.28125 -5.359375q0 -5.375 4.359375 -5.375zm-0.09375 1.609375q-2.4375 0 -2.4375 4.0625q0 3.453125 2.453125 3.453125q2.4375 0 2.4375 -3.703125q0 -3.8125 -2.453125 -3.8125zm7.6875 0.296875q1.4375 -1.90625 3.359375 -1.90625q3.015625 0 3.078125 3.515625l0 6.140625q0 1.078125 -0.90625 1.078125q-0.875 0 -0.875 -1.078125l0 -5.828125q0 -2.234375 -1.65625 -2.234375q-1.25 0 -2.125 0.953125q-0.875 0.953125 -0.875 1.8125l0 5.296875q0 1.078125 -0.890625 1.078125q-0.875 0 -0.875 -1.078125l0 -8.65625q0 -1.0 0.875 -1.0q0.890625 0 0.890625 0.984375l0 0.921875zm14.640625 -1.015625q0.859375 -0.890625 1.609375 -0.890625q0.6875 0 0.6875 0.8125q0 0.59375 -0.671875 0.8125q-0.65625 0.203125 -0.84375 0.3125q0.390625 0.75 0.390625 1.5625q0 1.25 -1.0 2.109375q-1.0 0.84375 -2.515625 0.84375q-0.546875 0 -1.09375 -0.140625q-0.671875 0.25 -0.671875 0.59375q0 0.4375 1.328125 0.65625q2.59375 0.40625 3.625 1.109375q1.03125 0.6875 1.03125 1.921875q0 2.484375 -4.359375 2.484375q-4.21875 0 -4.21875 -2.359375q0 -1.609375 2.140625 -2.28125q-1.28125 -0.484375 -1.28125 -1.203125q0 -0.765625 1.28125 -1.375q-1.53125 -0.890625 -1.53125 -2.546875q0 -1.375 1.015625 -2.34375q1.015625 -0.96875 2.625 -0.96875q1.515625 0 2.453125 0.890625zm-2.453125 0.5q-0.90625 0 -1.5 0.640625q-0.484375 0.578125 -0.484375 1.296875q0 0.78125 0.546875 1.28125q0.578125 0.515625 1.4375 0.515625q1.953125 0 1.953125 -1.8125q0 -1.921875 -1.953125 -1.921875zm-0.5 7.5q-2.078125 0.40625 -2.078125 1.5q0 1.28125 2.421875 1.28125q2.796875 0 2.796875 -1.203125q0 -0.71875 -1.3125 -1.1875q-1.296875 -0.484375 -1.828125 -0.390625z" fill-rule="nonzero"/><path fill="#49352a" d="m104.15736 698.10376q0.890625 0 1.53125 0.65625q0.640625 0.640625 0.640625 1.546875q0 0.96875 -0.71875 1.640625q-0.640625 0.5625 -1.484375 0.5625q-0.984375 0 -1.640625 -0.71875q-0.5625 -0.640625 -0.5625 -1.5q0 -0.890625 0.640625 -1.53125q0.65625 -0.65625 1.59375 -0.65625zm19.328125 5.5625q0 1.96875 -1.140625 3.125q-1.125 1.15625 -3.078125 1.15625q-2.734375 0 -3.875 -2.140625q-0.578125 -1.09375 -0.578125 -1.96875q0 -1.0 0.96875 -1.0q0.875 0 1.078125 1.171875q0.375 2.25 2.4375 2.25q1.0 0 1.640625 -0.703125q0.640625 -0.703125 0.640625 -1.8125q0 -1.765625 -2.046875 -2.71875l-2.03125 -0.953125q-2.53125 -1.1875 -2.53125 -3.640625q0 -1.796875 1.171875 -2.796875q1.171875 -1.0 2.828125 -1.0q1.9375 0 3.0625 1.140625q1.140625 1.125 1.140625 2.390625q0 0.9375 -0.9375 0.9375q-0.8125 0 -1.125 -1.09375q-0.46875 -1.703125 -2.15625 -1.703125q-2.15625 0 -2.15625 2.078125q0 1.328125 1.53125 2.046875l2.28125 1.078125q2.875 1.34375 2.875 4.15625zm4.7187576 -5.234375q0 -1.109375 0.921875 -1.109375q0.921875 0 0.921875 1.109375l0 8.421875q0 1.09375 -0.921875 1.09375q-0.921875 0 -0.921875 -1.09375l0 -8.421875zm0.953125 -5.828125q0.546875 0 0.921875 0.4375q0.328125 0.34375 0.328125 0.84375q0 1.265625 -1.265625 1.265625q-1.2656326 0 -1.2656326 -1.265625q0 -1.28125 1.2812576 -1.28125zm7.65625 6.515625q1.4375 -1.90625 3.359375 -1.90625q3.015625 0 3.078125 3.515625l0 6.140625q0 1.078125 -0.90625 1.078125q-0.875 0 -0.875 -1.078125l0 -5.828125q0 -2.234375 -1.65625 -2.234375q-1.25 0 -2.125 0.953125q-0.875 0.953125 -0.875 1.8125l0 5.296875q0 1.078125 -0.890625 1.078125q-0.875 0 -0.875 -1.078125l0 -8.65625q0 -1.0 0.875 -1.0q0.890625 0 0.890625 0.984375l0 0.921875zm14.640625 -1.015625q0.859375 -0.890625 1.609375 -0.890625q0.6875 0 0.6875 0.8125q0 0.59375 -0.671875 0.8125q-0.65625 0.203125 -0.84375 0.3125q0.390625 0.75 0.390625 1.5625q0 1.25 -1.0 2.109375q-1.0 0.84375 -2.515625 0.84375q-0.546875 0 -1.09375 -0.140625q-0.671875 0.25 -0.671875 0.59375q0 0.4375 1.328125 0.65625q2.59375 0.40625 3.625 1.109375q1.03125 0.6875 1.03125 1.921875q0 2.484375 -4.359375 2.484375q-4.21875 0 -4.21875 -2.359375q0 -1.609375 2.140625 -2.28125q-1.28125 -0.484375 -1.28125 -1.203125q0 -0.765625 1.28125 -1.375q-1.53125 -0.890625 -1.53125 -2.546875q0 -1.375 1.015625 -2.34375q1.015625 -0.96875 2.625 -0.96875q1.515625 0 2.453125 0.890625zm-2.453125 0.5q-0.90625 0 -1.5 0.640625q-0.484375 0.578125 -0.484375 1.296875q0 0.78125 0.546875 1.28125q0.578125 0.515625 1.4375 0.515625q1.953125 0 1.953125 -1.8125q0 -1.921875 -1.953125 -1.921875zm-0.5 7.5q-2.078125 0.40625 -2.078125 1.5q0 1.28125 2.421875 1.28125q2.796875 0 2.796875 -1.203125q0 -0.71875 -1.3125 -1.1875q-1.296875 -0.484375 -1.828125 -0.390625zm20.71875 -8.890625q1.890625 0 3.046875 1.359375q1.15625 1.359375 1.15625 4.03125q0 5.34375 -4.28125 5.34375q-4.28125 0 -4.28125 -5.359375q0 -5.375 4.359375 -5.375zm-0.09375 1.609375q-2.4375 0 -2.4375 4.0625q0 3.453125 2.453125 3.453125q2.4375 0 2.4375 -3.703125q0 -3.8125 -2.453125 -3.8125zm12.34375 7.21875q-1.421875 1.90625 -3.359375 1.90625q-3.015625 0 -3.0625 -3.515625l0 -6.140625q0 -1.078125 0.890625 -1.078125q0.875 0 0.875 1.078125l0 5.84375q0 2.21875 1.671875 2.21875q1.25 0 2.109375 -0.953125q0.875 -0.953125 0.875 -1.8125l0 -5.296875q0 -1.078125 0.890625 -1.078125q0.890625 0 0.890625 1.078125l0 8.671875q0 0.984375 -0.90625 0.984375q-0.875 0 -0.875 -0.96875l0 -0.9375zm6.484375 -8.53125l0 -2.640625q0 -1.0625 0.890625 -1.0625q0.890625 0 0.890625 1.0625l0 2.640625l1.6875 0q0.984375 0 0.984375 0.78125q0 0.78125 -0.984375 0.78125l-1.6875 0l0 5.75q0.015625 0.96875 0.359375 1.140625q0.21875 0.125 1.203125 0.125q0.984375 0 0.984375 0.78125q0 0.796875 -0.875 0.796875l-1.046875 0q-1.46875 0 -1.984375 -0.5625q-0.421875 -0.546875 -0.421875 -2.03125l0 -6.0l-1.421875 0q-0.984375 0 -0.984375 -0.78125q0 -0.78125 0.984375 -0.78125l1.421875 0zm20.265625 -3.765625q0 -1.109375 0.921875 -1.109375q0.921875 0 0.921875 1.109375l0 13.078125q0 1.125 -0.921875 1.125q-0.921875 0 -0.921875 -1.125l0 -13.078125zm11.0 3.46875q1.890625 0 3.046875 1.359375q1.15625 1.359375 1.15625 4.03125q0 5.34375 -4.28125 5.34375q-4.28125 0 -4.28125 -5.359375q0 -5.375 4.359375 -5.375zm-0.09375 1.609375q-2.4375 0 -2.4375 4.0625q0 3.453125 2.453125 3.453125q2.4375 0 2.4375 -3.703125q0 -3.8125 -2.453125 -3.8125zm12.34375 7.21875q-1.421875 1.90625 -3.359375 1.90625q-3.015625 0 -3.0625 -3.515625l0 -6.140625q0 -1.078125 0.890625 -1.078125q0.875 0 0.875 1.078125l0 5.84375q0 2.21875 1.671875 2.21875q1.25 0 2.109375 -0.953125q0.875 -0.953125 0.875 -1.8125l0 -5.296875q0 -1.078125 0.890625 -1.078125q0.890625 0 0.890625 1.078125l0 8.671875q0 0.984375 -0.90625 0.984375q-0.875 0 -0.875 -0.96875l0 -0.9375zm9.984375 0.34375q-1.0625 1.5625 -2.8125 1.5625q-1.875 0 -2.84375 -1.515625q-0.953125 -1.53125 -0.953125 -3.953125q0 -2.390625 1.046875 -3.828125q1.046875 -1.4375 2.765625 -1.4375q1.703125 0 2.796875 1.625l0 -5.140625q0 -1.0625 0.890625 -1.0625q0.875 0 0.875 1.0625l0 13.34375q0 0.90625 -0.890625 0.90625q-0.875 0 -0.875 -0.828125l0 -0.734375zm0 -4.890625q0 -0.84375 -0.703125 -1.765625q-0.6875 -0.921875 -1.828125 -0.921875q-2.234375 0 -2.234375 3.703125q0 3.84375 2.203125 3.84375q1.09375 0 1.828125 -0.8125q0.734375 -0.828125 0.734375 -1.765625l0 -2.28125z" fill-rule="nonzero"/><path fill="#c97e83" d="m357.24146 275.33295l-19.055115 -5.6062927l24.0 -12.0z" fill-rule="evenodd"/><path stroke="#c97e83" stroke-width="1.0" stroke-linejoin="round" stroke-linecap="butt" d="m357.24146 275.33295l-19.055115 -5.6062927l24.0 -12.0z" fill-rule="evenodd"/><path fill="#c97e83" d="m174.8849 569.569l-7.433075 -17.448853l24.913376 10.078796z" fill-rule="evenodd"/><path stroke="#c97e83" stroke-width="1.0" stroke-linejoin="round" stroke-linecap="butt" d="m174.8849 569.569l-7.433075 -17.448853l24.913376 10.078796z" fill-rule="evenodd"/></g></svg>